# Created by Kenney (www.kenney.nl)

mtllib tower-hexagon-top.mtl

g tower-hexagon-top

v -0.1002459 0.13 -0.374123 1 1 1
v -0.216 0.13 -0.374123 1 1 1
v -0.1002459 0.085 -0.374123 1 1 1
v -0.216 0 -0.374123 1 1 1
v 0.216 0 -0.374123 1 1 1
v 0.1002459 0.085 -0.374123 1 1 1
v 0 0.085 -0.374123 1 1 1
v 0.216 0.13 -0.374123 1 1 1
v 0.1002459 0.13 -0.374123 1 1 1
v 0.432 0.13 -9.023893E-17 1 1 1
v 0.374123 0.13 0.1002459 1 1 1
v 0.374123 0.13 -0.1002459 1 1 1
v 0.3581805 0.13 -9.023893E-17 1 1 1
v 0.3101934 0.13 -0.08311608 1 1 1
v 0.3101934 0.13 0.08311608 1 1 1
v 0.1002459 0.13 0.374123 1 1 1
v 0.216 0.13 0.374123 1 1 1
v 0.1002459 0.085 0.374123 1 1 1
v 0.216 0 0.374123 1 1 1
v -0.216 0 0.374123 1 1 1
v -0.1002459 0.085 0.374123 1 1 1
v 0 0.085 0.374123 1 1 1
v -0.216 0.13 0.374123 1 1 1
v -0.1002459 0.13 0.374123 1 1 1
v 0.273877 0.13 0.273877 1 1 1
v 0.273877 0.085 0.273877 1 1 1
v 0.324 0.085 0.1870615 1 1 1
v 0.374123 0.085 0.1002459 1 1 1
v 0.432 0 -9.023893E-17 1 1 1
v 0.374123 0.085 -0.1002459 1 1 1
v 0.324 0.085 -0.1870615 1 1 1
v 0.273877 0.085 -0.273877 1 1 1
v 0.273877 0.13 -0.273877 1 1 1
v -0.273877 0.13 0.273877 1 1 1
v -0.273877 0.085 0.273877 1 1 1
v -0.324 0.085 0.1870615 1 1 1
v -0.374123 0.085 0.1002459 1 1 1
v -0.432 0 -4.511947E-16 1 1 1
v -0.432 0.13 -4.511947E-16 1 1 1
v -0.374123 0.13 0.1002459 1 1 1
v -0.374123 0.13 -0.1002459 1 1 1
v -0.374123 0.085 -0.1002459 1 1 1
v -0.324 0.085 -0.1870615 1 1 1
v -0.273877 0.085 -0.273877 1 1 1
v -0.273877 0.13 -0.273877 1 1 1
v -0.08311608 0.13 0.3101934 1 1 1
v -0.1790902 0.13 0.3101934 1 1 1
v -0.08311608 0.085 0.3101934 1 1 1
v -0.1790902 1.804779E-16 0.3101934 1 1 1
v 0.1790902 1.804779E-16 0.3101934 1 1 1
v 0.08311608 0.085 0.3101934 1 1 1
v 7.219114E-16 0.085 0.3101934 1 1 1
v 0.1790902 0.13 0.3101934 1 1 1
v 0.08311608 0.13 0.3101934 1 1 1
v 0.3581805 1.804779E-16 -9.023893E-17 1 1 1
v 0.3101934 0.085 -0.08311608 1 1 1
v 0.2686354 0.085 -0.1550967 1 1 1
v 0.2270773 0.085 -0.2270773 1 1 1
v 0.1790902 1.804779E-16 -0.3101934 1 1 1
v 0.1790902 0.13 -0.3101934 1 1 1
v 0.2270773 0.13 -0.2270773 1 1 1
v -0.3101934 0.13 -0.08311608 1 1 1
v -0.3101934 0.085 -0.08311608 1 1 1
v -0.3581805 0.13 -4.511947E-16 1 1 1
v -0.3581805 1.804779E-16 -4.511947E-16 1 1 1
v -0.2686354 0.085 -0.1550967 1 1 1
v -0.2270773 0.085 -0.2270773 1 1 1
v -0.1790902 1.804779E-16 -0.3101934 1 1 1
v -0.2270773 0.13 -0.2270773 1 1 1
v -0.1790902 0.13 -0.3101934 1 1 1
v -0.08311608 0.13 -0.3101934 1 1 1
v 0.2270773 0.13 0.2270773 1 1 1
v 0.2270773 0.085 0.2270773 1 1 1
v 0.2686354 0.085 0.1550967 1 1 1
v 0.3101934 0.085 0.08311608 1 1 1
v 0.08311608 0.13 -0.3101934 1 1 1
v 0.08311608 0.085 -0.3101934 1 1 1
v -0.08311608 0.085 -0.3101934 1 1 1
v 3.609557E-16 0.085 -0.3101934 1 1 1
v -0.2270773 0.13 0.2270773 1 1 1
v -0.2270773 0.085 0.2270773 1 1 1
v -0.2686354 0.085 0.1550967 1 1 1
v -0.3101934 0.085 0.08311608 1 1 1
v -0.3101934 0.13 0.08311608 1 1 1

vn 0 0 -1
vn 0 1 0
vn 0 0 1
vn 0.8660254 0 0.5
vn 0.8660254 0 -0.5
vn -0.8660254 0 0.5
vn -0.8660254 0 -0.5
vn -0.9659258 0 0.258819
vn 0.9659258 0 -0.258819
vn -0.7071068 0 0.7071068
vn -0.258819 0 -0.9659258
vn 0.7071068 0 -0.7071068
vn 0.9659258 0 0.258819
vn -0.258819 0 0.9659258
vn -0.9659258 0 -0.258819
vn 0.258819 0 0.9659258
vn 0.258819 0 -0.9659258
vn -0.7071068 0 -0.7071068
vn 0.7071068 0 0.7071068
vn 0 -1 0

vt 0.84375 0.225
vt 0.84375 0.1557692
vt 0.84375 0.025

usemtl colormap

f 3/2/1 2/1/1 1/1/1
f 3/2/1 4/3/1 2/1/1
f 4/3/1 3/2/1 5/3/1
f 6/2/1 5/3/1 3/2/1
f 6/2/1 3/2/1 7/2/1
f 5/3/1 6/2/1 8/1/1
f 8/1/1 6/2/1 9/1/1
f 12/1/2 11/1/2 10/1/2
f 11/1/2 12/1/2 13/1/2
f 13/1/2 12/1/2 14/1/2
f 15/1/2 11/1/2 13/1/2
f 18/2/3 17/1/3 16/1/3
f 18/2/3 19/3/3 17/1/3
f 19/3/3 18/2/3 20/3/3
f 21/2/3 20/3/3 18/2/3
f 21/2/3 18/2/3 22/2/3
f 20/3/3 21/2/3 23/1/3
f 23/1/3 21/2/3 24/1/3
f 17/1/4 26/2/4 25/1/4
f 19/3/4 26/2/4 17/1/4
f 19/3/4 27/2/4 26/2/4
f 19/3/4 28/2/4 27/2/4
f 29/3/4 28/2/4 19/3/4
f 29/3/4 11/1/4 28/2/4
f 11/1/4 29/3/4 10/1/4
f 10/1/5 30/2/5 12/1/5
f 29/3/5 30/2/5 10/1/5
f 29/3/5 31/2/5 30/2/5
f 29/3/5 32/2/5 31/2/5
f 5/3/5 32/2/5 29/3/5
f 5/3/5 33/1/5 32/2/5
f 33/1/5 5/3/5 8/1/5
f 34/1/6 20/3/6 23/1/6
f 35/2/6 20/3/6 34/1/6
f 36/2/6 20/3/6 35/2/6
f 37/2/6 20/3/6 36/2/6
f 37/2/6 38/3/6 20/3/6
f 38/3/6 37/2/6 39/1/6
f 40/1/6 39/1/6 37/2/6
f 41/1/7 38/3/7 39/1/7
f 42/2/7 38/3/7 41/1/7
f 43/2/7 38/3/7 42/2/7
f 44/2/7 38/3/7 43/2/7
f 44/2/7 4/3/7 38/3/7
f 4/3/7 44/2/7 2/1/7
f 45/1/7 2/1/7 44/2/7
f 48/2/1 47/1/1 46/1/1
f 48/2/1 49/3/1 47/1/1
f 49/3/1 48/2/1 50/3/1
f 51/2/1 50/3/1 48/2/1
f 51/2/1 48/2/1 52/2/1
f 50/3/1 51/2/1 53/1/1
f 53/1/1 51/2/1 54/1/1
f 14/1/6 55/3/6 13/1/6
f 56/2/6 55/3/6 14/1/6
f 57/2/6 55/3/6 56/2/6
f 58/2/6 55/3/6 57/2/6
f 58/2/6 59/3/6 55/3/6
f 59/3/6 58/2/6 60/1/6
f 61/1/6 60/1/6 58/2/6
f 64/1/4 63/2/4 62/1/4
f 65/3/4 63/2/4 64/1/4
f 65/3/4 66/2/4 63/2/4
f 65/3/4 67/2/4 66/2/4
f 68/3/4 67/2/4 65/3/4
f 68/3/4 69/1/4 67/2/4
f 69/1/4 68/3/4 70/1/4
f 1/1/2 70/1/2 71/1/2
f 70/1/2 1/1/2 2/1/2
f 70/1/2 2/1/2 69/1/2
f 69/1/2 2/1/2 45/1/2
f 72/1/7 50/3/7 53/1/7
f 73/2/7 50/3/7 72/1/7
f 74/2/7 50/3/7 73/2/7
f 75/2/7 50/3/7 74/2/7
f 75/2/7 55/3/7 50/3/7
f 55/3/7 75/2/7 13/1/7
f 15/1/7 13/1/7 75/2/7
f 77/2/3 60/1/3 76/1/3
f 77/2/3 59/3/3 60/1/3
f 59/3/3 77/2/3 68/3/3
f 78/2/3 68/3/3 77/2/3
f 78/2/3 77/2/3 79/2/3
f 68/3/3 78/2/3 70/1/3
f 70/1/3 78/2/3 71/1/3
f 47/1/5 81/2/5 80/1/5
f 49/3/5 81/2/5 47/1/5
f 49/3/5 82/2/5 81/2/5
f 49/3/5 83/2/5 82/2/5
f 65/3/5 83/2/5 49/3/5
f 65/3/5 84/1/5 83/2/5
f 84/1/5 65/3/5 64/1/5
f 47/1/2 24/1/2 46/1/2
f 24/1/2 47/1/2 23/1/2
f 23/1/2 47/1/2 80/1/2
f 23/1/2 80/1/2 34/1/2
f 8/1/2 61/1/2 33/1/2
f 61/1/2 8/1/2 60/1/2
f 60/1/2 8/1/2 9/1/2
f 60/1/2 9/1/2 76/1/2
f 18/2/8 54/1/8 51/2/8
f 54/1/8 18/2/8 16/1/8
f 72/1/2 17/1/2 25/1/2
f 17/1/2 72/1/2 53/1/2
f 17/1/2 53/1/2 16/1/2
f 16/1/2 53/1/2 54/1/2
f 44/2/2 66/2/2 67/2/2
f 66/2/2 44/2/2 63/2/2
f 63/2/2 44/2/2 43/2/2
f 63/2/2 43/2/2 42/2/2
f 71/1/9 3/2/9 1/1/9
f 3/2/9 71/1/9 78/2/9
f 67/2/10 45/1/10 44/2/10
f 45/1/10 67/2/10 69/1/10
f 14/1/11 30/2/11 56/2/11
f 30/2/11 14/1/11 12/1/11
f 7/2/2 77/2/2 6/2/2
f 77/2/2 7/2/2 79/2/2
f 79/2/2 7/2/2 78/2/2
f 78/2/2 7/2/2 3/2/2
f 72/1/12 26/2/12 73/2/12
f 26/2/12 72/1/12 25/1/12
f 51/2/2 22/2/2 18/2/2
f 22/2/2 51/2/2 52/2/2
f 22/2/2 52/2/2 48/2/2
f 22/2/2 48/2/2 21/2/2
f 24/1/13 48/2/13 46/1/13
f 48/2/13 24/1/13 21/2/13
f 31/2/2 56/2/2 30/2/2
f 56/2/2 31/2/2 32/2/2
f 56/2/2 32/2/2 57/2/2
f 57/2/2 32/2/2 58/2/2
f 11/1/14 75/2/14 28/2/14
f 75/2/14 11/1/14 15/1/14
f 82/2/2 35/2/2 81/2/2
f 35/2/2 82/2/2 83/2/2
f 35/2/2 83/2/2 36/2/2
f 36/2/2 83/2/2 37/2/2
f 77/2/15 9/1/15 6/2/15
f 9/1/15 77/2/15 76/1/15
f 84/1/16 37/2/16 83/2/16
f 37/2/16 84/1/16 40/1/16
f 41/1/17 63/2/17 42/2/17
f 63/2/17 41/1/17 62/1/17
f 35/2/18 80/1/18 81/2/18
f 80/1/18 35/2/18 34/1/18
f 33/1/19 58/2/19 32/2/19
f 58/2/19 33/1/19 61/1/19
f 75/2/2 27/2/2 28/2/2
f 27/2/2 75/2/2 26/2/2
f 26/2/2 75/2/2 74/2/2
f 26/2/2 74/2/2 73/2/2
f 41/1/2 64/1/2 62/1/2
f 40/1/2 64/1/2 41/1/2
f 40/1/2 41/1/2 39/1/2
f 64/1/2 40/1/2 84/1/2
f 4/3/20 59/3/20 68/3/20
f 4/3/20 68/3/20 65/3/20
f 5/3/20 59/3/20 4/3/20
f 4/3/20 65/3/20 38/3/20
f 5/3/20 55/3/20 59/3/20
f 55/3/20 5/3/20 29/3/20
f 19/3/20 55/3/20 29/3/20
f 55/3/20 19/3/20 50/3/20
f 65/3/20 20/3/20 38/3/20
f 50/3/20 19/3/20 20/3/20
f 49/3/20 20/3/20 65/3/20
f 50/3/20 20/3/20 49/3/20

g tower-hexagon-top




usemtl colormap

f 3/2/1 2/1/1 1/1/1
f 3/2/1 4/3/1 2/1/1
f 4/3/1 3/2/1 5/3/1
f 6/2/1 5/3/1 3/2/1
f 6/2/1 3/2/1 7/2/1
f 5/3/1 6/2/1 8/1/1
f 8/1/1 6/2/1 9/1/1
f 12/1/2 11/1/2 10/1/2
f 11/1/2 12/1/2 13/1/2
f 13/1/2 12/1/2 14/1/2
f 15/1/2 11/1/2 13/1/2
f 18/2/3 17/1/3 16/1/3
f 18/2/3 19/3/3 17/1/3
f 19/3/3 18/2/3 20/3/3
f 21/2/3 20/3/3 18/2/3
f 21/2/3 18/2/3 22/2/3
f 20/3/3 21/2/3 23/1/3
f 23/1/3 21/2/3 24/1/3
f 17/1/4 26/2/4 25/1/4
f 19/3/4 26/2/4 17/1/4
f 19/3/4 27/2/4 26/2/4
f 19/3/4 28/2/4 27/2/4
f 29/3/4 28/2/4 19/3/4
f 29/3/4 11/1/4 28/2/4
f 11/1/4 29/3/4 10/1/4
f 10/1/5 30/2/5 12/1/5
f 29/3/5 30/2/5 10/1/5
f 29/3/5 31/2/5 30/2/5
f 29/3/5 32/2/5 31/2/5
f 5/3/5 32/2/5 29/3/5
f 5/3/5 33/1/5 32/2/5
f 33/1/5 5/3/5 8/1/5
f 34/1/6 20/3/6 23/1/6
f 35/2/6 20/3/6 34/1/6
f 36/2/6 20/3/6 35/2/6
f 37/2/6 20/3/6 36/2/6
f 37/2/6 38/3/6 20/3/6
f 38/3/6 37/2/6 39/1/6
f 40/1/6 39/1/6 37/2/6
f 41/1/7 38/3/7 39/1/7
f 42/2/7 38/3/7 41/1/7
f 43/2/7 38/3/7 42/2/7
f 44/2/7 38/3/7 43/2/7
f 44/2/7 4/3/7 38/3/7
f 4/3/7 44/2/7 2/1/7
f 45/1/7 2/1/7 44/2/7
f 48/2/1 47/1/1 46/1/1
f 48/2/1 49/3/1 47/1/1
f 49/3/1 48/2/1 50/3/1
f 51/2/1 50/3/1 48/2/1
f 51/2/1 48/2/1 52/2/1
f 50/3/1 51/2/1 53/1/1
f 53/1/1 51/2/1 54/1/1
f 14/1/6 55/3/6 13/1/6
f 56/2/6 55/3/6 14/1/6
f 57/2/6 55/3/6 56/2/6
f 58/2/6 55/3/6 57/2/6
f 58/2/6 59/3/6 55/3/6
f 59/3/6 58/2/6 60/1/6
f 61/1/6 60/1/6 58/2/6
f 64/1/4 63/2/4 62/1/4
f 65/3/4 63/2/4 64/1/4
f 65/3/4 66/2/4 63/2/4
f 65/3/4 67/2/4 66/2/4
f 68/3/4 67/2/4 65/3/4
f 68/3/4 69/1/4 67/2/4
f 69/1/4 68/3/4 70/1/4
f 1/1/2 70/1/2 71/1/2
f 70/1/2 1/1/2 2/1/2
f 70/1/2 2/1/2 69/1/2
f 69/1/2 2/1/2 45/1/2
f 72/1/7 50/3/7 53/1/7
f 73/2/7 50/3/7 72/1/7
f 74/2/7 50/3/7 73/2/7
f 75/2/7 50/3/7 74/2/7
f 75/2/7 55/3/7 50/3/7
f 55/3/7 75/2/7 13/1/7
f 15/1/7 13/1/7 75/2/7
f 77/2/3 60/1/3 76/1/3
f 77/2/3 59/3/3 60/1/3
f 59/3/3 77/2/3 68/3/3
f 78/2/3 68/3/3 77/2/3
f 78/2/3 77/2/3 79/2/3
f 68/3/3 78/2/3 70/1/3
f 70/1/3 78/2/3 71/1/3
f 47/1/5 81/2/5 80/1/5
f 49/3/5 81/2/5 47/1/5
f 49/3/5 82/2/5 81/2/5
f 49/3/5 83/2/5 82/2/5
f 65/3/5 83/2/5 49/3/5
f 65/3/5 84/1/5 83/2/5
f 84/1/5 65/3/5 64/1/5
f 47/1/2 24/1/2 46/1/2
f 24/1/2 47/1/2 23/1/2
f 23/1/2 47/1/2 80/1/2
f 23/1/2 80/1/2 34/1/2
f 8/1/2 61/1/2 33/1/2
f 61/1/2 8/1/2 60/1/2
f 60/1/2 8/1/2 9/1/2
f 60/1/2 9/1/2 76/1/2
f 18/2/8 54/1/8 51/2/8
f 54/1/8 18/2/8 16/1/8
f 72/1/2 17/1/2 25/1/2
f 17/1/2 72/1/2 53/1/2
f 17/1/2 53/1/2 16/1/2
f 16/1/2 53/1/2 54/1/2
f 44/2/2 66/2/2 67/2/2
f 66/2/2 44/2/2 63/2/2
f 63/2/2 44/2/2 43/2/2
f 63/2/2 43/2/2 42/2/2
f 71/1/9 3/2/9 1/1/9
f 3/2/9 71/1/9 78/2/9
f 67/2/10 45/1/10 44/2/10
f 45/1/10 67/2/10 69/1/10
f 14/1/11 30/2/11 56/2/11
f 30/2/11 14/1/11 12/1/11
f 7/2/2 77/2/2 6/2/2
f 77/2/2 7/2/2 79/2/2
f 79/2/2 7/2/2 78/2/2
f 78/2/2 7/2/2 3/2/2
f 72/1/12 26/2/12 73/2/12
f 26/2/12 72/1/12 25/1/12
f 51/2/2 22/2/2 18/2/2
f 22/2/2 51/2/2 52/2/2
f 22/2/2 52/2/2 48/2/2
f 22/2/2 48/2/2 21/2/2
f 24/1/13 48/2/13 46/1/13
f 48/2/13 24/1/13 21/2/13
f 31/2/2 56/2/2 30/2/2
f 56/2/2 31/2/2 32/2/2
f 56/2/2 32/2/2 57/2/2
f 57/2/2 32/2/2 58/2/2
f 11/1/14 75/2/14 28/2/14
f 75/2/14 11/1/14 15/1/14
f 82/2/2 35/2/2 81/2/2
f 35/2/2 82/2/2 83/2/2
f 35/2/2 83/2/2 36/2/2
f 36/2/2 83/2/2 37/2/2
f 77/2/15 9/1/15 6/2/15
f 9/1/15 77/2/15 76/1/15
f 84/1/16 37/2/16 83/2/16
f 37/2/16 84/1/16 40/1/16
f 41/1/17 63/2/17 42/2/17
f 63/2/17 41/1/17 62/1/17
f 35/2/18 80/1/18 81/2/18
f 80/1/18 35/2/18 34/1/18
f 33/1/19 58/2/19 32/2/19
f 58/2/19 33/1/19 61/1/19
f 75/2/2 27/2/2 28/2/2
f 27/2/2 75/2/2 26/2/2
f 26/2/2 75/2/2 74/2/2
f 26/2/2 74/2/2 73/2/2
f 41/1/2 64/1/2 62/1/2
f 40/1/2 64/1/2 41/1/2
f 40/1/2 41/1/2 39/1/2
f 64/1/2 40/1/2 84/1/2
f 4/3/20 59/3/20 68/3/20
f 4/3/20 68/3/20 65/3/20
f 5/3/20 59/3/20 4/3/20
f 4/3/20 65/3/20 38/3/20
f 5/3/20 55/3/20 59/3/20
f 55/3/20 5/3/20 29/3/20
f 19/3/20 55/3/20 29/3/20
f 55/3/20 19/3/20 50/3/20
f 65/3/20 20/3/20 38/3/20
f 50/3/20 19/3/20 20/3/20
f 49/3/20 20/3/20 65/3/20
f 50/3/20 20/3/20 49/3/20

