# Created by Kenney (www.kenney.nl)

mtllib tower-square-top-color.mtl

g tower-square-top-color

v -0.5 0.18 -0.5 1 1 1
v 0.5 0.18 -0.5 1 1 1
v -0.5 0.38 -0.5 1 1 1
v -0.25 0.335 -0.5 1 1 1
v -0.25 0.38 -0.5 1 1 1
v 0.25 0.335 -0.5 1 1 1
v 0.5 0.38 -0.5 1 1 1
v 0.25 0.38 -0.5 1 1 1
v -0.5 0.18 0.5 1 1 1
v -0.465 0.08 -0.465 1 1 1
v -0.465 0.08 0.465 1 1 1
v 0.465 0.08 -0.465 1 1 1
v 0.5 0.18 0.5 1 1 1
v 0.465 0.08 0.465 1 1 1
v 0.5 0.38 0.25 1 1 1
v 0.5 0.335 0.25 1 1 1
v 0.5 0.38 0.5 1 1 1
v 0.5 0.335 -0.25 1 1 1
v 0.5 0.38 -0.25 1 1 1
v -0.5 0.335 -0.25 1 1 1
v -0.5 0.38 -0.25 1 1 1
v -0.5 0.335 0.25 1 1 1
v -0.5 0.38 0.25 1 1 1
v -0.5 0.38 0.5 1 1 1
v 0.25 0.335 0.5 1 1 1
v 0.25 0.38 0.5 1 1 1
v -0.25 0.335 0.5 1 1 1
v -0.25 0.38 0.5 1 1 1
v 0.25 0.29 -0.3804951 1 1 1
v 0.25 0.29 -0.3304951 1 1 1
v -0.25 0.29 -0.3804951 1 1 1
v -0.25 0.29 -0.3304951 1 1 1
v -0.2908356 0.29 -0.2908356 1 1 1
v -0.3304951 0.29 -0.3304951 1 1 1
v 0.2908356 0.29 -0.2908356 1 1 1
v 0.3304951 0.29 -0.3304951 1 1 1
v -0.2908356 0.29 0.2908356 1 1 1
v 0.3304951 0.29 -0.25 1 1 1
v -0.3304951 0.29 0.3304951 1 1 1
v -0.3304951 0.29 -0.25 1 1 1
v -0.3304951 0.29 0.25 1 1 1
v -0.3804951 0.29 -0.25 1 1 1
v -0.3804951 0.29 0.25 1 1 1
v -0.25 0.29 0.3304951 1 1 1
v 0.25 0.29 0.3804951 1 1 1
v -0.25 0.29 0.3804951 1 1 1
v 0.25 0.29 0.3304951 1 1 1
v 0.2908356 0.29 0.2908356 1 1 1
v 0.3304951 0.29 0.3304951 1 1 1
v 0.3304951 0.29 0.25 1 1 1
v 0.3804951 0.29 0.25 1 1 1
v 0.3804951 0.29 -0.25 1 1 1
v -0.2908356 0.25 -0.2908356 1 1 1
v -0.2908356 0.25 0.2908356 1 1 1
v 0.2908356 0.25 -0.2908356 1 1 1
v 0.2908356 0.25 0.2908356 1 1 1
v 0.3804951 0.335 -0.25 1 1 1
v 0.3804951 0.335 0.25 1 1 1
v 0.25 0.335 0.3804951 1 1 1
v -0.25 0.335 0.3804951 1 1 1
v -0.3804951 0.335 -0.25 1 1 1
v -0.3804951 0.335 0.25 1 1 1
v 0.25 0.335 -0.3804951 1 1 1
v -0.25 0.335 -0.3804951 1 1 1
v 0.3304951 0.38 -0.3304951 1 1 1
v 0.25 0.38 -0.3304951 1 1 1
v 0.3304951 0.38 -0.25 1 1 1
v 0.3304951 0.38 0.25 1 1 1
v 0.3304951 0.38 0.3304951 1 1 1
v 0.25 0.38 0.3304951 1 1 1
v -0.3304951 0.38 0.25 1 1 1
v -0.3304951 0.38 0.3304951 1 1 1
v -0.25 0.38 0.3304951 1 1 1
v -0.25 0.38 -0.3304951 1 1 1
v -0.3304951 0.38 -0.3304951 1 1 1
v -0.3304951 0.38 -0.25 1 1 1
v 0.465 0 0.465 1 1 1
v 0.465 0 -0.465 1 1 1
v -0.465 0 0.465 1 1 1
v -0.465 0 -0.465 1 1 1

vn 0 0 -1
vn -0.9438583 -0.3303504 0
vn 0.9438583 -0.3303504 0
vn 1 0 0
vn -1 0 0
vn 0 -0.3303504 0.9438583
vn 0 0 1
vn 0 -0.3303504 -0.9438583
vn 0 1 0
vn 0 -1 0

vt 0.84375 0.1197368
vt 0.84375 0.225
vt 0.84375 0.2013158
vt 0.84375 0.06710526
vt 0.84375 0.1776316
vt 0.84375 0.1565789
vt 0.96875 0.1565789
vt 0.59375 0.275
vt 0.59375 0.3171053

usemtl colormap

f 3/2/1 2/1/1 1/1/1
f 2/1/1 3/2/1 4/3/1
f 4/3/1 3/2/1 5/2/1
f 6/3/1 2/1/1 4/3/1
f 2/1/1 6/3/1 7/2/1
f 7/2/1 6/3/1 8/2/1
f 10/4/2 9/1/2 1/1/2
f 9/1/2 10/4/2 11/4/2
f 13/1/3 12/4/3 2/1/3
f 12/4/3 13/1/3 14/4/3
f 17/2/4 16/3/4 15/2/4
f 13/1/4 16/3/4 17/2/4
f 13/1/4 18/3/4 16/3/4
f 2/1/4 18/3/4 13/1/4
f 2/1/4 19/2/4 18/3/4
f 19/2/4 2/1/4 7/2/4
f 9/1/5 3/2/5 1/1/5
f 3/2/5 9/1/5 20/3/5
f 21/2/5 3/2/5 20/3/5
f 20/3/5 9/1/5 22/3/5
f 22/3/5 9/1/5 23/2/5
f 23/2/5 9/1/5 24/2/5
f 13/1/6 11/4/6 14/4/6
f 11/4/6 13/1/6 9/1/6
f 17/2/7 9/1/7 13/1/7
f 9/1/7 17/2/7 25/3/7
f 25/3/7 17/2/7 26/2/7
f 27/3/7 9/1/7 25/3/7
f 9/1/7 27/3/7 24/2/7
f 24/2/7 27/3/7 28/2/7
f 1/1/8 12/4/8 10/4/8
f 12/4/8 1/1/8 2/1/8
f 31/5/9 30/5/9 29/5/9
f 32/5/9 30/5/9 31/5/9
f 33/5/9 30/5/9 32/5/9
f 33/5/9 32/5/9 34/5/9
f 35/5/9 30/5/9 33/5/9
f 35/5/9 36/5/9 30/5/9
f 33/5/9 34/5/9 37/5/9
f 36/5/9 35/5/9 38/5/9
f 39/5/9 37/5/9 34/5/9
f 39/5/9 34/5/9 40/5/9
f 39/5/9 40/5/9 41/5/9
f 42/5/9 41/5/9 40/5/9
f 41/5/9 42/5/9 43/5/9
f 44/5/9 37/5/9 39/5/9
f 45/5/9 37/5/9 44/5/9
f 46/5/9 45/5/9 44/5/9
f 47/5/9 37/5/9 45/5/9
f 47/5/9 48/5/9 37/5/9
f 49/5/9 48/5/9 47/5/9
f 48/5/9 49/5/9 35/5/9
f 50/5/9 35/5/9 49/5/9
f 38/5/9 35/5/9 50/5/9
f 51/5/9 38/5/9 50/5/9
f 38/5/9 51/5/9 52/5/9
f 37/5/4 53/6/4 33/5/4
f 53/6/4 37/5/4 54/6/4
f 35/5/7 53/6/7 55/6/7
f 53/6/7 35/5/7 33/5/7
f 56/6/5 35/5/5 55/6/5
f 35/5/5 56/6/5 48/5/5
f 37/5/1 56/6/1 54/6/1
f 56/6/1 37/5/1 48/5/1
f 57/3/9 16/3/9 18/3/9
f 16/3/9 57/3/9 58/3/9
f 60/3/9 25/3/9 59/3/9
f 25/3/9 60/3/9 27/3/9
f 20/3/9 62/3/9 61/3/9
f 62/3/9 20/3/9 22/3/9
f 4/3/9 63/3/9 6/3/9
f 63/3/9 4/3/9 64/3/9
f 8/2/9 19/2/9 7/2/9
f 19/2/9 8/2/9 65/2/9
f 65/2/9 8/2/9 66/2/9
f 67/2/9 19/2/9 65/2/9
f 30/5/5 63/3/5 29/5/5
f 63/3/5 30/5/5 66/2/5
f 66/2/5 6/3/5 63/3/5
f 6/3/5 66/2/5 8/2/5
f 68/2/9 17/2/9 15/2/9
f 17/2/9 68/2/9 69/2/9
f 17/2/9 69/2/9 26/2/9
f 26/2/9 69/2/9 70/2/9
f 68/2/1 51/5/1 50/5/1
f 51/5/1 68/2/1 58/3/1
f 58/3/1 68/2/1 16/3/1
f 16/3/1 68/2/1 15/2/1
f 23/2/9 72/2/9 71/2/9
f 24/2/9 72/2/9 23/2/9
f 28/2/9 72/2/9 24/2/9
f 72/2/9 28/2/9 73/2/9
f 60/3/4 28/2/4 27/3/4
f 60/3/4 73/2/4 28/2/4
f 73/2/4 60/3/4 44/5/4
f 46/5/4 44/5/4 60/3/4
f 3/2/9 74/2/9 5/2/9
f 74/2/9 3/2/9 75/2/9
f 75/2/9 3/2/9 76/2/9
f 76/2/9 3/2/9 21/2/9
f 76/2/7 42/5/7 40/5/7
f 42/5/7 76/2/7 61/3/7
f 61/3/7 76/2/7 20/3/7
f 20/3/7 76/2/7 21/2/7
f 51/5/5 57/3/5 52/5/5
f 57/3/5 51/5/5 58/3/5
f 46/5/1 59/3/1 45/5/1
f 59/3/1 46/5/1 60/3/1
f 62/3/4 42/5/4 61/3/4
f 42/5/4 62/3/4 43/5/4
f 63/3/7 31/5/7 29/5/7
f 31/5/7 63/3/7 64/3/7
f 72/2/4 41/5/4 71/2/4
f 41/5/4 72/2/4 39/5/4
f 23/2/1 62/3/1 22/3/1
f 71/2/1 62/3/1 23/2/1
f 41/5/1 62/3/1 71/2/1
f 62/3/1 41/5/1 43/5/1
f 76/2/4 34/5/4 75/2/4
f 34/5/4 76/2/4 40/5/4
f 65/2/7 30/5/7 36/5/7
f 30/5/7 65/2/7 66/2/7
f 74/2/7 34/5/7 32/5/7
f 34/5/7 74/2/7 75/2/7
f 74/2/4 4/3/4 5/2/4
f 4/3/4 74/2/4 64/3/4
f 64/3/4 74/2/4 31/5/4
f 31/5/4 74/2/4 32/5/4
f 36/5/5 67/2/5 65/2/5
f 67/2/5 36/5/5 38/5/5
f 19/2/7 57/3/7 18/3/7
f 67/2/7 57/3/7 19/2/7
f 38/5/7 57/3/7 67/2/7
f 57/3/7 38/5/7 52/5/7
f 49/5/5 68/2/5 50/5/5
f 68/2/5 49/5/5 69/2/5
f 70/2/1 49/5/1 47/5/1
f 49/5/1 70/2/1 69/2/1
f 45/5/5 70/2/5 47/5/5
f 70/2/5 45/5/5 59/3/5
f 70/2/5 59/3/5 26/2/5
f 26/2/5 59/3/5 25/3/5
f 72/2/1 44/5/1 39/5/1
f 44/5/1 72/2/1 73/2/1
f 53/7/9 56/7/9 55/7/9
f 56/7/9 53/7/9 54/7/9
f 79/8/10 78/8/10 77/8/10
f 78/8/10 79/8/10 80/8/10
f 79/8/5 10/9/5 80/8/5
f 10/9/5 79/8/5 11/9/5
f 10/9/1 78/8/1 80/8/1
f 78/8/1 10/9/1 12/9/1
f 14/9/4 78/8/4 12/9/4
f 78/8/4 14/9/4 77/8/4
f 14/9/7 79/8/7 77/8/7
f 79/8/7 14/9/7 11/9/7

g tower-square-top-color




usemtl colormap

f 3/2/1 2/1/1 1/1/1
f 2/1/1 3/2/1 4/3/1
f 4/3/1 3/2/1 5/2/1
f 6/3/1 2/1/1 4/3/1
f 2/1/1 6/3/1 7/2/1
f 7/2/1 6/3/1 8/2/1
f 10/4/2 9/1/2 1/1/2
f 9/1/2 10/4/2 11/4/2
f 13/1/3 12/4/3 2/1/3
f 12/4/3 13/1/3 14/4/3
f 17/2/4 16/3/4 15/2/4
f 13/1/4 16/3/4 17/2/4
f 13/1/4 18/3/4 16/3/4
f 2/1/4 18/3/4 13/1/4
f 2/1/4 19/2/4 18/3/4
f 19/2/4 2/1/4 7/2/4
f 9/1/5 3/2/5 1/1/5
f 3/2/5 9/1/5 20/3/5
f 21/2/5 3/2/5 20/3/5
f 20/3/5 9/1/5 22/3/5
f 22/3/5 9/1/5 23/2/5
f 23/2/5 9/1/5 24/2/5
f 13/1/6 11/4/6 14/4/6
f 11/4/6 13/1/6 9/1/6
f 17/2/7 9/1/7 13/1/7
f 9/1/7 17/2/7 25/3/7
f 25/3/7 17/2/7 26/2/7
f 27/3/7 9/1/7 25/3/7
f 9/1/7 27/3/7 24/2/7
f 24/2/7 27/3/7 28/2/7
f 1/1/8 12/4/8 10/4/8
f 12/4/8 1/1/8 2/1/8
f 31/5/9 30/5/9 29/5/9
f 32/5/9 30/5/9 31/5/9
f 33/5/9 30/5/9 32/5/9
f 33/5/9 32/5/9 34/5/9
f 35/5/9 30/5/9 33/5/9
f 35/5/9 36/5/9 30/5/9
f 33/5/9 34/5/9 37/5/9
f 36/5/9 35/5/9 38/5/9
f 39/5/9 37/5/9 34/5/9
f 39/5/9 34/5/9 40/5/9
f 39/5/9 40/5/9 41/5/9
f 42/5/9 41/5/9 40/5/9
f 41/5/9 42/5/9 43/5/9
f 44/5/9 37/5/9 39/5/9
f 45/5/9 37/5/9 44/5/9
f 46/5/9 45/5/9 44/5/9
f 47/5/9 37/5/9 45/5/9
f 47/5/9 48/5/9 37/5/9
f 49/5/9 48/5/9 47/5/9
f 48/5/9 49/5/9 35/5/9
f 50/5/9 35/5/9 49/5/9
f 38/5/9 35/5/9 50/5/9
f 51/5/9 38/5/9 50/5/9
f 38/5/9 51/5/9 52/5/9
f 37/5/4 53/6/4 33/5/4
f 53/6/4 37/5/4 54/6/4
f 35/5/7 53/6/7 55/6/7
f 53/6/7 35/5/7 33/5/7
f 56/6/5 35/5/5 55/6/5
f 35/5/5 56/6/5 48/5/5
f 37/5/1 56/6/1 54/6/1
f 56/6/1 37/5/1 48/5/1
f 57/3/9 16/3/9 18/3/9
f 16/3/9 57/3/9 58/3/9
f 60/3/9 25/3/9 59/3/9
f 25/3/9 60/3/9 27/3/9
f 20/3/9 62/3/9 61/3/9
f 62/3/9 20/3/9 22/3/9
f 4/3/9 63/3/9 6/3/9
f 63/3/9 4/3/9 64/3/9
f 8/2/9 19/2/9 7/2/9
f 19/2/9 8/2/9 65/2/9
f 65/2/9 8/2/9 66/2/9
f 67/2/9 19/2/9 65/2/9
f 30/5/5 63/3/5 29/5/5
f 63/3/5 30/5/5 66/2/5
f 66/2/5 6/3/5 63/3/5
f 6/3/5 66/2/5 8/2/5
f 68/2/9 17/2/9 15/2/9
f 17/2/9 68/2/9 69/2/9
f 17/2/9 69/2/9 26/2/9
f 26/2/9 69/2/9 70/2/9
f 68/2/1 51/5/1 50/5/1
f 51/5/1 68/2/1 58/3/1
f 58/3/1 68/2/1 16/3/1
f 16/3/1 68/2/1 15/2/1
f 23/2/9 72/2/9 71/2/9
f 24/2/9 72/2/9 23/2/9
f 28/2/9 72/2/9 24/2/9
f 72/2/9 28/2/9 73/2/9
f 60/3/4 28/2/4 27/3/4
f 60/3/4 73/2/4 28/2/4
f 73/2/4 60/3/4 44/5/4
f 46/5/4 44/5/4 60/3/4
f 3/2/9 74/2/9 5/2/9
f 74/2/9 3/2/9 75/2/9
f 75/2/9 3/2/9 76/2/9
f 76/2/9 3/2/9 21/2/9
f 76/2/7 42/5/7 40/5/7
f 42/5/7 76/2/7 61/3/7
f 61/3/7 76/2/7 20/3/7
f 20/3/7 76/2/7 21/2/7
f 51/5/5 57/3/5 52/5/5
f 57/3/5 51/5/5 58/3/5
f 46/5/1 59/3/1 45/5/1
f 59/3/1 46/5/1 60/3/1
f 62/3/4 42/5/4 61/3/4
f 42/5/4 62/3/4 43/5/4
f 63/3/7 31/5/7 29/5/7
f 31/5/7 63/3/7 64/3/7
f 72/2/4 41/5/4 71/2/4
f 41/5/4 72/2/4 39/5/4
f 23/2/1 62/3/1 22/3/1
f 71/2/1 62/3/1 23/2/1
f 41/5/1 62/3/1 71/2/1
f 62/3/1 41/5/1 43/5/1
f 76/2/4 34/5/4 75/2/4
f 34/5/4 76/2/4 40/5/4
f 65/2/7 30/5/7 36/5/7
f 30/5/7 65/2/7 66/2/7
f 74/2/7 34/5/7 32/5/7
f 34/5/7 74/2/7 75/2/7
f 74/2/4 4/3/4 5/2/4
f 4/3/4 74/2/4 64/3/4
f 64/3/4 74/2/4 31/5/4
f 31/5/4 74/2/4 32/5/4
f 36/5/5 67/2/5 65/2/5
f 67/2/5 36/5/5 38/5/5
f 19/2/7 57/3/7 18/3/7
f 67/2/7 57/3/7 19/2/7
f 38/5/7 57/3/7 67/2/7
f 57/3/7 38/5/7 52/5/7
f 49/5/5 68/2/5 50/5/5
f 68/2/5 49/5/5 69/2/5
f 70/2/1 49/5/1 47/5/1
f 49/5/1 70/2/1 69/2/1
f 45/5/5 70/2/5 47/5/5
f 70/2/5 45/5/5 59/3/5
f 70/2/5 59/3/5 26/2/5
f 26/2/5 59/3/5 25/3/5
f 72/2/1 44/5/1 39/5/1
f 44/5/1 72/2/1 73/2/1
f 53/7/9 56/7/9 55/7/9
f 56/7/9 53/7/9 54/7/9
f 79/8/10 78/8/10 77/8/10
f 78/8/10 79/8/10 80/8/10
f 79/8/5 10/9/5 80/8/5
f 10/9/5 79/8/5 11/9/5
f 10/9/1 78/8/1 80/8/1
f 78/8/1 10/9/1 12/9/1
f 14/9/4 78/8/4 12/9/4
f 78/8/4 14/9/4 77/8/4
f 14/9/7 79/8/7 77/8/7
f 79/8/7 14/9/7 11/9/7

