# Created by Kenney (www.kenney.nl)

mtllib tower-square-mid-open-simple.mtl

g tower-square-mid-open-simple

v -0.465 6.793016E-17 0.34875 1 1 1
v -0.465 0.8781536 0.34875 1 1 1
v -0.465 6.793016E-17 0.465 1 1 1
v -0.465 0.8781536 0.465 1 1 1
v 0.465 6.793016E-17 0.465 1 1 1
v 0.34875 6.793016E-17 0.465 1 1 1
v 0.465 0.8781536 0.465 1 1 1
v 0.34875 0.8781536 0.465 1 1 1
v -0.465 6.793016E-17 -0.465 1 1 1
v -0.34875 6.793016E-17 -0.465 1 1 1
v -0.465 0.8781536 -0.465 1 1 1
v -0.34875 0.8781536 -0.465 1 1 1
v 0.465 6.948117E-17 -0.34875 1 1 1
v 0.465 6.793016E-17 -0.465 1 1 1
v 0.34875 0 -0.34875 1 1 1
v 0.34875 6.793016E-17 -0.465 1 1 1
v -0.34875 0 -0.34875 1 1 1
v -0.465 6.793016E-17 -0.34875 1 1 1
v -0.34875 6.793016E-17 0.465 1 1 1
v -0.34875 0 0.34875 1 1 1
v 0.465 6.793016E-17 0.34875 1 1 1
v 0.34875 0 0.34875 1 1 1
v 0.465 0.8781536 0.34875 1 1 1
v 0.34875 0.8781536 0.34875 1 1 1
v 0.465 0.8781536 -0.465 1 1 1
v 0.465 0.8781536 -0.34875 1 1 1
v 0.34875 0.8781536 -0.465 1 1 1
v 0.34875 0.8781536 -0.34875 1 1 1
v -0.34875 0.8781536 -0.34875 1 1 1
v -0.465 0.8781536 -0.34875 1 1 1
v -0.34875 0.8781536 0.34875 1 1 1
v -0.34875 0.8781536 0.465 1 1 1
v 0.465 6.76792E-17 0.346226 1 1 1
v 0.465 6.76792E-17 0.2476436 1 1 1
v -0.465 6.76792E-17 0.346226 1 1 1
v -0.465 6.76792E-17 0.2476436 1 1 1
v 0.465 0.02 0.346226 1 1 1
v -0.465 0.02 0.346226 1 1 1
v 0.465 0.02 0.2476436 1 1 1
v -0.465 0.02 0.2476436 1 1 1
v 0.465 0.02 -0.2274521 1 1 1
v 0.465 6.76792E-17 -0.2274521 1 1 1
v 0.465 0.02 -0.1288697 1 1 1
v 0.465 6.76792E-17 -0.1288697 1 1 1
v -0.465 6.76792E-17 -0.2274521 1 1 1
v -0.465 0.02 -0.2274521 1 1 1
v -0.465 6.76792E-17 -0.1288697 1 1 1
v -0.465 0.02 -0.1288697 1 1 1
v 0.465 0.02 -0.346226 1 1 1
v 0.465 0.02 -0.2476436 1 1 1
v -0.465 0.02 -0.346226 1 1 1
v -0.465 0.02 -0.2476436 1 1 1
v 0.465 6.76792E-17 -0.2476436 1 1 1
v -0.465 6.76792E-17 -0.2476436 1 1 1
v 0.465 6.76792E-17 -0.346226 1 1 1
v -0.465 6.76792E-17 -0.346226 1 1 1
v -0.34875 6.76792E-17 -0.465 1 1 1
v 0.34875 6.76792E-17 -0.465 1 1 1
v -0.34875 0.02 -0.465 1 1 1
v 0.34875 0.02 -0.465 1 1 1
v 0.34875 0.02 -0.3664176 1 1 1
v -0.34875 0.02 -0.3664176 1 1 1
v -0.34875 6.76792E-17 -0.3664176 1 1 1
v 0.34875 6.76792E-17 -0.3664176 1 1 1
v 0.465 6.76792E-17 0.1086782 1 1 1
v -0.465 6.76792E-17 0.1086782 1 1 1
v 0.465 0.02 0.1086782 1 1 1
v -0.465 0.02 0.1086782 1 1 1
v 0.465 6.76792E-17 0.01009579 1 1 1
v -0.465 6.76792E-17 0.01009579 1 1 1
v -0.465 0.02 0.01009579 1 1 1
v 0.465 0.02 0.01009579 1 1 1
v 0.465 6.76792E-17 0.2274521 1 1 1
v 0.465 6.76792E-17 0.1288697 1 1 1
v -0.465 6.76792E-17 0.2274521 1 1 1
v -0.465 6.76792E-17 0.1288697 1 1 1
v -0.465 0.02 0.1288697 1 1 1
v -0.465 0.02 0.2274521 1 1 1
v 0.465 0.02 0.1288697 1 1 1
v 0.465 0.02 0.2274521 1 1 1
v -0.465 6.76792E-17 -0.1086782 1 1 1
v -0.465 0.02 -0.1086782 1 1 1
v -0.465 6.76792E-17 -0.01009579 1 1 1
v -0.465 0.02 -0.01009579 1 1 1
v 0.465 0.02 -0.1086782 1 1 1
v 0.465 0.02 -0.01009579 1 1 1
v 0.465 6.76792E-17 -0.1086782 1 1 1
v 0.465 6.76792E-17 -0.01009579 1 1 1
v 0.34875 0.02 0.3664176 1 1 1
v 0.34875 0.02 0.465 1 1 1
v -0.34875 0.02 0.3664176 1 1 1
v -0.34875 0.02 0.465 1 1 1
v 0.34875 6.76792E-17 0.465 1 1 1
v 0.34875 6.76792E-17 0.3664176 1 1 1
v -0.34875 6.76792E-17 0.465 1 1 1
v -0.34875 6.76792E-17 0.3664176 1 1 1
v 0.34875 0.2581384 0.385 1 1 1
v 0.34875 0.2581384 0.465 1 1 1
v -0.3487501 0.2581384 0.385 1 1 1
v -0.3487501 0.2581384 0.465 1 1 1
v -0.3487501 0.1981384 0.385 1 1 1
v 0.34875 0.1981384 0.385 1 1 1
v 0.34875 0.1981384 0.465 1 1 1
v -0.3487501 0.1981384 0.465 1 1 1
v 0.34875 0.2581384 -0.465 1 1 1
v 0.34875 0.2581384 -0.385 1 1 1
v -0.3487501 0.2581384 -0.465 1 1 1
v -0.3487501 0.2581384 -0.385 1 1 1
v -0.3487501 0.1981384 -0.465 1 1 1
v 0.34875 0.1981384 -0.465 1 1 1
v 0.34875 0.1981384 -0.385 1 1 1
v -0.3487501 0.1981384 -0.385 1 1 1
v 0.385 0.2581384 0.34875 1 1 1
v 0.3850001 0.2581384 -0.3487501 1 1 1
v 0.465 0.2581384 0.34875 1 1 1
v 0.4650001 0.2581384 -0.3487501 1 1 1
v 0.4650001 0.1981384 -0.3487501 1 1 1
v 0.465 0.1981384 0.34875 1 1 1
v 0.385 0.1981384 0.34875 1 1 1
v 0.3850001 0.1981384 -0.3487501 1 1 1
v -0.385 0.2581384 0.34875 1 1 1
v -0.465 0.2581384 0.34875 1 1 1
v -0.3849999 0.2581384 -0.3487501 1 1 1
v -0.4649999 0.2581384 -0.3487501 1 1 1
v -0.3849999 0.1981384 -0.3487501 1 1 1
v -0.385 0.1981384 0.34875 1 1 1
v -0.465 0.1981384 0.34875 1 1 1
v -0.4649999 0.1981384 -0.3487501 1 1 1

vn -1 0 0
vn 0 0 1
vn 0 0 -1
vn 0 -1 0
vn 0 1 0
vn 1 0 0
vn 1 0 1.192093E-07
vn -1 0 -1.192093E-07

vt 0.84375 0.025
vt 0.84375 0.225
vt 0.59375 0.025
vt 0.59375 0.225

usemtl colormap

f 3/1/1 2/2/1 1/1/1
f 2/2/1 3/1/1 4/2/1
f 7/2/2 6/1/2 5/1/2
f 6/1/2 7/2/2 8/2/2
f 11/2/3 10/1/3 9/1/3
f 10/1/3 11/2/3 12/2/3
f 15/1/4 14/1/4 13/1/4
f 14/1/4 15/1/4 16/1/4
f 18/1/4 10/1/4 17/1/4
f 10/1/4 18/1/4 9/1/4
f 3/1/4 20/1/4 19/1/4
f 20/1/4 3/1/4 1/1/4
f 6/1/4 21/1/4 5/1/4
f 21/1/4 6/1/4 22/1/4
f 24/2/5 7/2/5 23/2/5
f 7/2/5 24/2/5 8/2/5
f 26/2/6 14/1/6 25/2/6
f 14/1/6 26/2/6 13/1/6
f 27/2/5 26/2/5 25/2/5
f 26/2/5 27/2/5 28/2/5
f 11/2/5 29/2/5 12/2/5
f 29/2/5 11/2/5 30/2/5
f 2/2/5 32/2/5 31/2/5
f 32/2/5 2/2/5 4/2/5
f 13/1/2 28/2/2 15/1/2
f 28/2/2 13/1/2 26/2/2
f 24/2/3 21/1/3 22/1/3
f 21/1/3 24/2/3 23/2/3
f 32/2/6 20/1/6 31/2/6
f 20/1/6 32/2/6 19/1/6
f 6/1/1 24/2/1 22/1/1
f 24/2/1 6/1/1 8/2/1
f 15/1/1 27/2/1 16/1/1
f 27/2/1 15/1/1 28/2/1
f 1/1/3 31/2/3 20/1/3
f 31/2/3 1/1/3 2/2/3
f 29/2/2 18/1/2 17/1/2
f 18/1/2 29/2/2 30/2/2
f 23/2/6 5/1/6 21/1/6
f 5/1/6 23/2/6 7/2/6
f 32/2/2 3/1/2 19/1/2
f 3/1/2 32/2/2 4/2/2
f 18/1/1 11/2/1 9/1/1
f 11/2/1 18/1/1 30/2/1
f 27/2/3 14/1/3 16/1/3
f 14/1/3 27/2/3 25/2/3
f 29/2/6 10/1/6 12/2/6
f 10/1/6 29/2/6 17/1/6
f 35/3/4 34/3/4 33/3/4
f 34/3/4 35/3/4 36/3/4
f 37/4/2 35/3/2 33/3/2
f 35/3/2 37/4/2 38/4/2
f 37/4/6 34/3/6 39/4/6
f 34/3/6 37/4/6 33/3/6
f 35/3/1 40/4/1 36/3/1
f 40/4/1 35/3/1 38/4/1
f 40/4/3 34/3/3 36/3/3
f 34/3/3 40/4/3 39/4/3
f 40/4/5 37/4/5 39/4/5
f 37/4/5 40/4/5 38/4/5
f 43/4/6 42/3/6 41/4/6
f 42/3/6 43/4/6 44/3/6
f 47/3/1 46/4/1 45/3/1
f 46/4/1 47/3/1 48/4/1
f 47/3/4 42/3/4 44/3/4
f 42/3/4 47/3/4 45/3/4
f 46/4/3 42/3/3 45/3/3
f 42/3/3 46/4/3 41/4/3
f 46/4/5 43/4/5 41/4/5
f 43/4/5 46/4/5 48/4/5
f 43/4/2 47/3/2 44/3/2
f 47/3/2 43/4/2 48/4/2
f 51/4/5 50/4/5 49/4/5
f 50/4/5 51/4/5 52/4/5
f 50/4/2 54/3/2 53/3/2
f 54/3/2 50/4/2 52/4/2
f 50/4/6 55/3/6 49/4/6
f 55/3/6 50/4/6 53/3/6
f 54/3/1 51/4/1 56/3/1
f 51/4/1 54/3/1 52/4/1
f 51/4/3 55/3/3 56/3/3
f 55/3/3 51/4/3 49/4/3
f 54/3/4 55/3/4 53/3/4
f 55/3/4 54/3/4 56/3/4
f 59/4/3 58/3/3 57/3/3
f 58/3/3 59/4/3 60/4/3
f 59/4/5 61/4/5 60/4/5
f 61/4/5 59/4/5 62/4/5
f 63/3/1 59/4/1 57/3/1
f 59/4/1 63/3/1 62/4/1
f 63/3/4 58/3/4 64/3/4
f 58/3/4 63/3/4 57/3/4
f 61/4/2 63/3/2 64/3/2
f 63/3/2 61/4/2 62/4/2
f 61/4/6 58/3/6 60/4/6
f 58/3/6 61/4/6 64/3/6
f 67/4/2 66/3/2 65/3/2
f 66/3/2 67/4/2 68/4/2
f 66/3/4 69/3/4 65/3/4
f 69/3/4 66/3/4 70/3/4
f 71/4/3 69/3/3 70/3/3
f 69/3/3 71/4/3 72/4/3
f 66/3/1 71/4/1 70/3/1
f 71/4/1 66/3/1 68/4/1
f 67/4/6 69/3/6 72/4/6
f 69/3/6 67/4/6 65/3/6
f 71/4/5 67/4/5 72/4/5
f 67/4/5 71/4/5 68/4/5
f 75/3/4 74/3/4 73/3/4
f 74/3/4 75/3/4 76/3/4
f 75/3/1 77/4/1 76/3/1
f 77/4/1 75/3/1 78/4/1
f 77/4/5 80/4/5 79/4/5
f 80/4/5 77/4/5 78/4/5
f 80/4/6 74/3/6 79/4/6
f 74/3/6 80/4/6 73/3/6
f 80/4/2 75/3/2 73/3/2
f 75/3/2 80/4/2 78/4/2
f 77/4/3 74/3/3 76/3/3
f 74/3/3 77/4/3 79/4/3
f 83/3/1 82/4/1 81/3/1
f 82/4/1 83/3/1 84/4/1
f 82/4/5 86/4/5 85/4/5
f 86/4/5 82/4/5 84/4/5
f 82/4/3 87/3/3 81/3/3
f 87/3/3 82/4/3 85/4/3
f 83/3/4 87/3/4 88/3/4
f 87/3/4 83/3/4 81/3/4
f 86/4/6 87/3/6 85/4/6
f 87/3/6 86/4/6 88/3/6
f 86/4/2 83/3/2 88/3/2
f 83/3/2 86/4/2 84/4/2
f 91/4/5 90/4/5 89/4/5
f 90/4/5 91/4/5 92/4/5
f 95/3/4 94/3/4 93/3/4
f 94/3/4 95/3/4 96/3/4
f 95/3/1 91/4/1 96/3/1
f 91/4/1 95/3/1 92/4/1
f 91/4/3 94/3/3 96/3/3
f 94/3/3 91/4/3 89/4/3
f 90/4/6 94/3/6 89/4/6
f 94/3/6 90/4/6 93/3/6
f 90/4/2 95/3/2 93/3/2
f 95/3/2 90/4/2 92/4/2
f 99/4/5 98/4/5 97/4/5
f 98/4/5 99/4/5 100/4/5
f 99/4/3 102/3/3 101/3/3
f 102/3/3 99/4/3 97/4/3
f 98/4/2 104/3/2 103/3/2
f 104/3/2 98/4/2 100/4/2
f 104/3/4 102/3/4 103/3/4
f 102/3/4 104/3/4 101/3/4
f 107/4/5 106/4/5 105/4/5
f 106/4/5 107/4/5 108/4/5
f 107/4/3 110/3/3 109/3/3
f 110/3/3 107/4/3 105/4/3
f 106/4/2 112/3/2 111/3/2
f 112/3/2 106/4/2 108/4/2
f 112/3/4 110/3/4 111/3/4
f 110/3/4 112/3/4 109/3/4
f 115/4/5 114/4/5 113/4/5
f 114/4/5 115/4/5 116/4/5
f 116/4/7 118/3/7 117/3/7
f 118/3/7 116/4/7 115/4/7
f 113/4/8 120/3/8 119/3/8
f 120/3/8 113/4/8 114/4/8
f 120/3/4 118/3/4 119/3/4
f 118/3/4 120/3/4 117/3/4
f 123/4/5 122/4/5 121/4/5
f 122/4/5 123/4/5 124/4/5
f 123/4/7 126/3/7 125/3/7
f 126/3/7 123/4/7 121/4/7
f 122/4/8 128/3/8 127/3/8
f 128/3/8 122/4/8 124/4/8
f 127/3/4 125/3/4 126/3/4
f 125/3/4 127/3/4 128/3/4

g tower-square-mid-open-simple




usemtl colormap

f 3/1/1 2/2/1 1/1/1
f 2/2/1 3/1/1 4/2/1
f 7/2/2 6/1/2 5/1/2
f 6/1/2 7/2/2 8/2/2
f 11/2/3 10/1/3 9/1/3
f 10/1/3 11/2/3 12/2/3
f 15/1/4 14/1/4 13/1/4
f 14/1/4 15/1/4 16/1/4
f 18/1/4 10/1/4 17/1/4
f 10/1/4 18/1/4 9/1/4
f 3/1/4 20/1/4 19/1/4
f 20/1/4 3/1/4 1/1/4
f 6/1/4 21/1/4 5/1/4
f 21/1/4 6/1/4 22/1/4
f 24/2/5 7/2/5 23/2/5
f 7/2/5 24/2/5 8/2/5
f 26/2/6 14/1/6 25/2/6
f 14/1/6 26/2/6 13/1/6
f 27/2/5 26/2/5 25/2/5
f 26/2/5 27/2/5 28/2/5
f 11/2/5 29/2/5 12/2/5
f 29/2/5 11/2/5 30/2/5
f 2/2/5 32/2/5 31/2/5
f 32/2/5 2/2/5 4/2/5
f 13/1/2 28/2/2 15/1/2
f 28/2/2 13/1/2 26/2/2
f 24/2/3 21/1/3 22/1/3
f 21/1/3 24/2/3 23/2/3
f 32/2/6 20/1/6 31/2/6
f 20/1/6 32/2/6 19/1/6
f 6/1/1 24/2/1 22/1/1
f 24/2/1 6/1/1 8/2/1
f 15/1/1 27/2/1 16/1/1
f 27/2/1 15/1/1 28/2/1
f 1/1/3 31/2/3 20/1/3
f 31/2/3 1/1/3 2/2/3
f 29/2/2 18/1/2 17/1/2
f 18/1/2 29/2/2 30/2/2
f 23/2/6 5/1/6 21/1/6
f 5/1/6 23/2/6 7/2/6
f 32/2/2 3/1/2 19/1/2
f 3/1/2 32/2/2 4/2/2
f 18/1/1 11/2/1 9/1/1
f 11/2/1 18/1/1 30/2/1
f 27/2/3 14/1/3 16/1/3
f 14/1/3 27/2/3 25/2/3
f 29/2/6 10/1/6 12/2/6
f 10/1/6 29/2/6 17/1/6
f 35/3/4 34/3/4 33/3/4
f 34/3/4 35/3/4 36/3/4
f 37/4/2 35/3/2 33/3/2
f 35/3/2 37/4/2 38/4/2
f 37/4/6 34/3/6 39/4/6
f 34/3/6 37/4/6 33/3/6
f 35/3/1 40/4/1 36/3/1
f 40/4/1 35/3/1 38/4/1
f 40/4/3 34/3/3 36/3/3
f 34/3/3 40/4/3 39/4/3
f 40/4/5 37/4/5 39/4/5
f 37/4/5 40/4/5 38/4/5
f 43/4/6 42/3/6 41/4/6
f 42/3/6 43/4/6 44/3/6
f 47/3/1 46/4/1 45/3/1
f 46/4/1 47/3/1 48/4/1
f 47/3/4 42/3/4 44/3/4
f 42/3/4 47/3/4 45/3/4
f 46/4/3 42/3/3 45/3/3
f 42/3/3 46/4/3 41/4/3
f 46/4/5 43/4/5 41/4/5
f 43/4/5 46/4/5 48/4/5
f 43/4/2 47/3/2 44/3/2
f 47/3/2 43/4/2 48/4/2
f 51/4/5 50/4/5 49/4/5
f 50/4/5 51/4/5 52/4/5
f 50/4/2 54/3/2 53/3/2
f 54/3/2 50/4/2 52/4/2
f 50/4/6 55/3/6 49/4/6
f 55/3/6 50/4/6 53/3/6
f 54/3/1 51/4/1 56/3/1
f 51/4/1 54/3/1 52/4/1
f 51/4/3 55/3/3 56/3/3
f 55/3/3 51/4/3 49/4/3
f 54/3/4 55/3/4 53/3/4
f 55/3/4 54/3/4 56/3/4
f 59/4/3 58/3/3 57/3/3
f 58/3/3 59/4/3 60/4/3
f 59/4/5 61/4/5 60/4/5
f 61/4/5 59/4/5 62/4/5
f 63/3/1 59/4/1 57/3/1
f 59/4/1 63/3/1 62/4/1
f 63/3/4 58/3/4 64/3/4
f 58/3/4 63/3/4 57/3/4
f 61/4/2 63/3/2 64/3/2
f 63/3/2 61/4/2 62/4/2
f 61/4/6 58/3/6 60/4/6
f 58/3/6 61/4/6 64/3/6
f 67/4/2 66/3/2 65/3/2
f 66/3/2 67/4/2 68/4/2
f 66/3/4 69/3/4 65/3/4
f 69/3/4 66/3/4 70/3/4
f 71/4/3 69/3/3 70/3/3
f 69/3/3 71/4/3 72/4/3
f 66/3/1 71/4/1 70/3/1
f 71/4/1 66/3/1 68/4/1
f 67/4/6 69/3/6 72/4/6
f 69/3/6 67/4/6 65/3/6
f 71/4/5 67/4/5 72/4/5
f 67/4/5 71/4/5 68/4/5
f 75/3/4 74/3/4 73/3/4
f 74/3/4 75/3/4 76/3/4
f 75/3/1 77/4/1 76/3/1
f 77/4/1 75/3/1 78/4/1
f 77/4/5 80/4/5 79/4/5
f 80/4/5 77/4/5 78/4/5
f 80/4/6 74/3/6 79/4/6
f 74/3/6 80/4/6 73/3/6
f 80/4/2 75/3/2 73/3/2
f 75/3/2 80/4/2 78/4/2
f 77/4/3 74/3/3 76/3/3
f 74/3/3 77/4/3 79/4/3
f 83/3/1 82/4/1 81/3/1
f 82/4/1 83/3/1 84/4/1
f 82/4/5 86/4/5 85/4/5
f 86/4/5 82/4/5 84/4/5
f 82/4/3 87/3/3 81/3/3
f 87/3/3 82/4/3 85/4/3
f 83/3/4 87/3/4 88/3/4
f 87/3/4 83/3/4 81/3/4
f 86/4/6 87/3/6 85/4/6
f 87/3/6 86/4/6 88/3/6
f 86/4/2 83/3/2 88/3/2
f 83/3/2 86/4/2 84/4/2
f 91/4/5 90/4/5 89/4/5
f 90/4/5 91/4/5 92/4/5
f 95/3/4 94/3/4 93/3/4
f 94/3/4 95/3/4 96/3/4
f 95/3/1 91/4/1 96/3/1
f 91/4/1 95/3/1 92/4/1
f 91/4/3 94/3/3 96/3/3
f 94/3/3 91/4/3 89/4/3
f 90/4/6 94/3/6 89/4/6
f 94/3/6 90/4/6 93/3/6
f 90/4/2 95/3/2 93/3/2
f 95/3/2 90/4/2 92/4/2
f 99/4/5 98/4/5 97/4/5
f 98/4/5 99/4/5 100/4/5
f 99/4/3 102/3/3 101/3/3
f 102/3/3 99/4/3 97/4/3
f 98/4/2 104/3/2 103/3/2
f 104/3/2 98/4/2 100/4/2
f 104/3/4 102/3/4 103/3/4
f 102/3/4 104/3/4 101/3/4
f 107/4/5 106/4/5 105/4/5
f 106/4/5 107/4/5 108/4/5
f 107/4/3 110/3/3 109/3/3
f 110/3/3 107/4/3 105/4/3
f 106/4/2 112/3/2 111/3/2
f 112/3/2 106/4/2 108/4/2
f 112/3/4 110/3/4 111/3/4
f 110/3/4 112/3/4 109/3/4
f 115/4/5 114/4/5 113/4/5
f 114/4/5 115/4/5 116/4/5
f 116/4/7 118/3/7 117/3/7
f 118/3/7 116/4/7 115/4/7
f 113/4/8 120/3/8 119/3/8
f 120/3/8 113/4/8 114/4/8
f 120/3/4 118/3/4 119/3/4
f 118/3/4 120/3/4 117/3/4
f 123/4/5 122/4/5 121/4/5
f 122/4/5 123/4/5 124/4/5
f 123/4/7 126/3/7 125/3/7
f 126/3/7 123/4/7 121/4/7
f 122/4/8 128/3/8 127/3/8
f 128/3/8 122/4/8 124/4/8
f 127/3/4 125/3/4 126/3/4
f 125/3/4 127/3/4 128/3/4

