# Created by Kenney (www.kenney.nl)

mtllib tower-square.mtl

g tower-square

v 0.5 0.28 -0.5 1 1 1
v 0.5 0 -0.5 1 1 1
v 0.5 0.28 0.5 1 1 1
v 0.5 0 0.5 1 1 1
v -0.5 0 -0.5 1 1 1
v -0.5 0.28 -0.5 1 1 1
v -0.5 0 0.5 1 1 1
v -0.5 0.28 0.5 1 1 1
v -0.5 1.11 -0.5 1 1 1
v 0.5 1.11 -0.5 1 1 1
v -0.5 1.31 -0.5 1 1 1
v -0.25 1.265 -0.5 1 1 1
v -0.25 1.31 -0.5 1 1 1
v 0.25 1.265 -0.5 1 1 1
v 0.5 1.31 -0.5 1 1 1
v 0.25 1.31 -0.5 1 1 1
v 0.465 0.45 -0.465 1 1 1
v 0.465 0.45 0.465 1 1 1
v -0.465 0.45 -0.465 1 1 1
v -0.465 0.45 0.465 1 1 1
v -0.5 1.11 0.5 1 1 1
v -0.465 1.01 -0.465 1 1 1
v -0.465 1.01 0.465 1 1 1
v 0.465 1.01 -0.465 1 1 1
v 0.5 1.11 0.5 1 1 1
v 0.465 1.01 0.465 1 1 1
v 0.5 1.31 0.25 1 1 1
v 0.5 1.265 0.25 1 1 1
v 0.5 1.31 0.5 1 1 1
v 0.5 1.265 -0.25 1 1 1
v 0.5 1.31 -0.25 1 1 1
v -0.5 1.265 -0.25 1 1 1
v -0.5 1.31 -0.25 1 1 1
v -0.5 1.265 0.25 1 1 1
v -0.5 1.31 0.25 1 1 1
v -0.5 1.31 0.5 1 1 1
v 0.25 1.265 0.5 1 1 1
v 0.25 1.31 0.5 1 1 1
v -0.25 1.265 0.5 1 1 1
v -0.25 1.31 0.5 1 1 1
v 0.25 1.22 -0.3804951 1 1 1
v 0.25 1.22 -0.3304951 1 1 1
v -0.25 1.22 -0.3804951 1 1 1
v -0.25 1.22 -0.3304951 1 1 1
v -0.2908356 1.22 -0.2908356 1 1 1
v -0.3304951 1.22 -0.3304951 1 1 1
v 0.2908356 1.22 -0.2908356 1 1 1
v 0.3304951 1.22 -0.3304951 1 1 1
v -0.2908356 1.22 0.2908356 1 1 1
v 0.3304951 1.22 -0.25 1 1 1
v -0.3304951 1.22 0.3304951 1 1 1
v -0.3304951 1.22 -0.25 1 1 1
v -0.3304951 1.22 0.25 1 1 1
v -0.3804951 1.22 -0.25 1 1 1
v -0.3804951 1.22 0.25 1 1 1
v -0.25 1.22 0.3304951 1 1 1
v 0.25 1.22 0.3804951 1 1 1
v -0.25 1.22 0.3804951 1 1 1
v 0.25 1.22 0.3304951 1 1 1
v 0.2908356 1.22 0.2908356 1 1 1
v 0.3304951 1.22 0.3304951 1 1 1
v 0.3304951 1.22 0.25 1 1 1
v 0.3804951 1.22 0.25 1 1 1
v 0.3804951 1.22 -0.25 1 1 1
v -0.2908356 1.18 -0.2908356 1 1 1
v -0.2908356 1.18 0.2908356 1 1 1
v 0.2908356 1.18 -0.2908356 1 1 1
v 0.2908356 1.18 0.2908356 1 1 1
v 0.3804951 1.265 -0.25 1 1 1
v 0.3804951 1.265 0.25 1 1 1
v 0.25 1.265 0.3804951 1 1 1
v -0.25 1.265 0.3804951 1 1 1
v -0.3804951 1.265 -0.25 1 1 1
v -0.3804951 1.265 0.25 1 1 1
v 0.25 1.265 -0.3804951 1 1 1
v -0.25 1.265 -0.3804951 1 1 1
v 0.3304951 1.31 -0.3304951 1 1 1
v 0.25 1.31 -0.3304951 1 1 1
v 0.3304951 1.31 -0.25 1 1 1
v 0.3304951 1.31 0.25 1 1 1
v 0.3304951 1.31 0.3304951 1 1 1
v 0.25 1.31 0.3304951 1 1 1
v -0.3304951 1.31 0.25 1 1 1
v -0.3304951 1.31 0.3304951 1 1 1
v -0.25 1.31 0.3304951 1 1 1
v -0.25 1.31 -0.3304951 1 1 1
v -0.3304951 1.31 -0.3304951 1 1 1
v -0.3304951 1.31 -0.25 1 1 1

vn 1 0 0
vn -1 0 0
vn 0 0 -1
vn 0.9794571 0.2016529 0
vn -0.9794571 0.2016529 0
vn -0.9438583 -0.3303504 0
vn 0.9438583 -0.3303504 0
vn 0 -0.3303504 0.9438583
vn 0 -1 0
vn 0 0 1
vn 0 -0.3303504 -0.9438583
vn 0 0.2016529 -0.9794571
vn 0 1 0
vn 0 0.2016529 0.9794571

vt 0.84375 0.06774809
vt 0.84375 0.025
vt 0.84375 0.1944656
vt 0.84375 0.225
vt 0.84375 0.2181298
vt 0.84375 0.09370229
vt 0.84375 0.1791985
vt 0.84375 0.2112595
vt 0.84375 0.2051527
vt 0.96875 0.1791985
vt 0.96875 0.09370229
vt 0.96875 0.2051527

usemtl colormap

f 3/1/1 2/2/1 1/1/1
f 2/2/1 3/1/1 4/2/1
f 7/2/2 6/1/2 5/2/2
f 6/1/2 7/2/2 8/1/2
f 11/4/3 10/3/3 9/3/3
f 10/3/3 11/4/3 12/5/3
f 12/5/3 11/4/3 13/4/3
f 14/5/3 10/3/3 12/5/3
f 10/3/3 14/5/3 15/4/3
f 15/4/3 14/5/3 16/4/3
f 17/6/4 3/1/4 1/1/4
f 3/1/4 17/6/4 18/6/4
f 8/1/5 19/6/5 6/1/5
f 19/6/5 8/1/5 20/6/5
f 22/7/6 21/3/6 9/3/6
f 21/3/6 22/7/6 23/7/6
f 25/3/7 24/7/7 10/3/7
f 24/7/7 25/3/7 26/7/7
f 29/4/1 28/5/1 27/4/1
f 25/3/1 28/5/1 29/4/1
f 25/3/1 30/5/1 28/5/1
f 10/3/1 30/5/1 25/3/1
f 10/3/1 31/4/1 30/5/1
f 31/4/1 10/3/1 15/4/1
f 21/3/2 11/4/2 9/3/2
f 11/4/2 21/3/2 32/5/2
f 33/4/2 11/4/2 32/5/2
f 32/5/2 21/3/2 34/5/2
f 34/5/2 21/3/2 35/4/2
f 35/4/2 21/3/2 36/4/2
f 25/3/8 23/7/8 26/7/8
f 23/7/8 25/3/8 21/3/8
f 7/2/9 2/2/9 4/2/9
f 2/2/9 7/2/9 5/2/9
f 29/4/10 21/3/10 25/3/10
f 21/3/10 29/4/10 37/5/10
f 37/5/10 29/4/10 38/4/10
f 39/5/10 21/3/10 37/5/10
f 21/3/10 39/5/10 36/4/10
f 36/4/10 39/5/10 40/4/10
f 3/1/10 7/2/10 4/2/10
f 7/2/10 3/1/10 8/1/10
f 9/3/11 24/7/11 22/7/11
f 24/7/11 9/3/11 10/3/11
f 6/1/3 2/2/3 5/2/3
f 2/2/3 6/1/3 1/1/3
f 19/6/12 1/1/12 6/1/12
f 1/1/12 19/6/12 17/6/12
f 19/6/13 18/6/13 17/6/13
f 18/6/13 19/6/13 20/6/13
f 18/6/14 8/1/14 3/1/14
f 8/1/14 18/6/14 20/6/14
f 6/1/13 3/1/13 1/1/13
f 3/1/13 6/1/13 8/1/13
f 43/8/13 42/8/13 41/8/13
f 44/8/13 42/8/13 43/8/13
f 45/8/13 42/8/13 44/8/13
f 45/8/13 44/8/13 46/8/13
f 47/8/13 42/8/13 45/8/13
f 47/8/13 48/8/13 42/8/13
f 45/8/13 46/8/13 49/8/13
f 48/8/13 47/8/13 50/8/13
f 51/8/13 49/8/13 46/8/13
f 51/8/13 46/8/13 52/8/13
f 51/8/13 52/8/13 53/8/13
f 54/8/13 53/8/13 52/8/13
f 53/8/13 54/8/13 55/8/13
f 56/8/13 49/8/13 51/8/13
f 57/8/13 49/8/13 56/8/13
f 58/8/13 57/8/13 56/8/13
f 59/8/13 49/8/13 57/8/13
f 59/8/13 60/8/13 49/8/13
f 61/8/13 60/8/13 59/8/13
f 60/8/13 61/8/13 47/8/13
f 62/8/13 47/8/13 61/8/13
f 50/8/13 47/8/13 62/8/13
f 63/8/13 50/8/13 62/8/13
f 50/8/13 63/8/13 64/8/13
f 49/8/1 65/9/1 45/8/1
f 65/9/1 49/8/1 66/9/1
f 47/8/10 65/9/10 67/9/10
f 65/9/10 47/8/10 45/8/10
f 68/9/2 47/8/2 67/9/2
f 47/8/2 68/9/2 60/8/2
f 66/9/3 60/8/3 68/9/3
f 60/8/3 66/9/3 49/8/3
f 69/5/13 28/5/13 30/5/13
f 28/5/13 69/5/13 70/5/13
f 72/5/13 37/5/13 71/5/13
f 37/5/13 72/5/13 39/5/13
f 32/5/13 74/5/13 73/5/13
f 74/5/13 32/5/13 34/5/13
f 12/5/13 75/5/13 14/5/13
f 75/5/13 12/5/13 76/5/13
f 16/4/13 31/4/13 15/4/13
f 31/4/13 16/4/13 77/4/13
f 77/4/13 16/4/13 78/4/13
f 79/4/13 31/4/13 77/4/13
f 42/8/2 75/5/2 41/8/2
f 78/4/2 75/5/2 42/8/2
f 16/4/2 75/5/2 78/4/2
f 75/5/2 16/4/2 14/5/2
f 80/4/13 29/4/13 27/4/13
f 29/4/13 80/4/13 81/4/13
f 29/4/13 81/4/13 38/4/13
f 38/4/13 81/4/13 82/4/13
f 80/4/3 63/8/3 62/8/3
f 63/8/3 80/4/3 70/5/3
f 70/5/3 80/4/3 28/5/3
f 28/5/3 80/4/3 27/4/3
f 35/4/13 84/4/13 83/4/13
f 36/4/13 84/4/13 35/4/13
f 40/4/13 84/4/13 36/4/13
f 84/4/13 40/4/13 85/4/13
f 72/5/1 40/4/1 39/5/1
f 72/5/1 85/4/1 40/4/1
f 85/4/1 72/5/1 56/8/1
f 58/8/1 56/8/1 72/5/1
f 11/4/13 86/4/13 13/4/13
f 86/4/13 11/4/13 87/4/13
f 87/4/13 11/4/13 88/4/13
f 88/4/13 11/4/13 33/4/13
f 88/4/10 54/8/10 52/8/10
f 54/8/10 88/4/10 73/5/10
f 73/5/10 88/4/10 32/5/10
f 32/5/10 88/4/10 33/4/10
f 63/8/2 69/5/2 64/8/2
f 69/5/2 63/8/2 70/5/2
f 58/8/3 71/5/3 57/8/3
f 71/5/3 58/8/3 72/5/3
f 74/5/1 54/8/1 73/5/1
f 54/8/1 74/5/1 55/8/1
f 75/5/10 43/8/10 41/8/10
f 43/8/10 75/5/10 76/5/10
f 84/4/1 53/8/1 83/4/1
f 53/8/1 84/4/1 51/8/1
f 35/4/3 74/5/3 34/5/3
f 83/4/3 74/5/3 35/4/3
f 53/8/3 74/5/3 83/4/3
f 74/5/3 53/8/3 55/8/3
f 88/4/1 46/8/1 87/4/1
f 46/8/1 88/4/1 52/8/1
f 77/4/10 42/8/10 48/8/10
f 42/8/10 77/4/10 78/4/10
f 86/4/10 46/8/10 44/8/10
f 46/8/10 86/4/10 87/4/10
f 86/4/1 12/5/1 13/4/1
f 12/5/1 86/4/1 76/5/1
f 76/5/1 86/4/1 43/8/1
f 43/8/1 86/4/1 44/8/1
f 50/8/2 77/4/2 48/8/2
f 77/4/2 50/8/2 79/4/2
f 31/4/10 69/5/10 30/5/10
f 69/5/10 31/4/10 79/4/10
f 79/4/10 64/8/10 69/5/10
f 64/8/10 79/4/10 50/8/10
f 61/8/2 80/4/2 62/8/2
f 80/4/2 61/8/2 81/4/2
f 82/4/3 61/8/3 59/8/3
f 61/8/3 82/4/3 81/4/3
f 57/8/2 82/4/2 59/8/2
f 82/4/2 57/8/2 71/5/2
f 82/4/2 71/5/2 38/4/2
f 38/4/2 71/5/2 37/5/2
f 84/4/3 56/8/3 51/8/3
f 56/8/3 84/4/3 85/4/3
f 26/10/1 17/11/1 24/10/1
f 17/11/1 26/10/1 18/11/1
f 20/11/2 22/10/2 19/11/2
f 22/10/2 20/11/2 23/10/2
f 22/10/3 17/11/3 19/11/3
f 17/11/3 22/10/3 24/10/3
f 26/10/10 20/11/10 18/11/10
f 20/11/10 26/10/10 23/10/10
f 65/12/13 68/12/13 67/12/13
f 68/12/13 65/12/13 66/12/13

g tower-square




usemtl colormap

f 3/1/1 2/2/1 1/1/1
f 2/2/1 3/1/1 4/2/1
f 7/2/2 6/1/2 5/2/2
f 6/1/2 7/2/2 8/1/2
f 11/4/3 10/3/3 9/3/3
f 10/3/3 11/4/3 12/5/3
f 12/5/3 11/4/3 13/4/3
f 14/5/3 10/3/3 12/5/3
f 10/3/3 14/5/3 15/4/3
f 15/4/3 14/5/3 16/4/3
f 17/6/4 3/1/4 1/1/4
f 3/1/4 17/6/4 18/6/4
f 8/1/5 19/6/5 6/1/5
f 19/6/5 8/1/5 20/6/5
f 22/7/6 21/3/6 9/3/6
f 21/3/6 22/7/6 23/7/6
f 25/3/7 24/7/7 10/3/7
f 24/7/7 25/3/7 26/7/7
f 29/4/1 28/5/1 27/4/1
f 25/3/1 28/5/1 29/4/1
f 25/3/1 30/5/1 28/5/1
f 10/3/1 30/5/1 25/3/1
f 10/3/1 31/4/1 30/5/1
f 31/4/1 10/3/1 15/4/1
f 21/3/2 11/4/2 9/3/2
f 11/4/2 21/3/2 32/5/2
f 33/4/2 11/4/2 32/5/2
f 32/5/2 21/3/2 34/5/2
f 34/5/2 21/3/2 35/4/2
f 35/4/2 21/3/2 36/4/2
f 25/3/8 23/7/8 26/7/8
f 23/7/8 25/3/8 21/3/8
f 7/2/9 2/2/9 4/2/9
f 2/2/9 7/2/9 5/2/9
f 29/4/10 21/3/10 25/3/10
f 21/3/10 29/4/10 37/5/10
f 37/5/10 29/4/10 38/4/10
f 39/5/10 21/3/10 37/5/10
f 21/3/10 39/5/10 36/4/10
f 36/4/10 39/5/10 40/4/10
f 3/1/10 7/2/10 4/2/10
f 7/2/10 3/1/10 8/1/10
f 9/3/11 24/7/11 22/7/11
f 24/7/11 9/3/11 10/3/11
f 6/1/3 2/2/3 5/2/3
f 2/2/3 6/1/3 1/1/3
f 19/6/12 1/1/12 6/1/12
f 1/1/12 19/6/12 17/6/12
f 19/6/13 18/6/13 17/6/13
f 18/6/13 19/6/13 20/6/13
f 18/6/14 8/1/14 3/1/14
f 8/1/14 18/6/14 20/6/14
f 6/1/13 3/1/13 1/1/13
f 3/1/13 6/1/13 8/1/13
f 43/8/13 42/8/13 41/8/13
f 44/8/13 42/8/13 43/8/13
f 45/8/13 42/8/13 44/8/13
f 45/8/13 44/8/13 46/8/13
f 47/8/13 42/8/13 45/8/13
f 47/8/13 48/8/13 42/8/13
f 45/8/13 46/8/13 49/8/13
f 48/8/13 47/8/13 50/8/13
f 51/8/13 49/8/13 46/8/13
f 51/8/13 46/8/13 52/8/13
f 51/8/13 52/8/13 53/8/13
f 54/8/13 53/8/13 52/8/13
f 53/8/13 54/8/13 55/8/13
f 56/8/13 49/8/13 51/8/13
f 57/8/13 49/8/13 56/8/13
f 58/8/13 57/8/13 56/8/13
f 59/8/13 49/8/13 57/8/13
f 59/8/13 60/8/13 49/8/13
f 61/8/13 60/8/13 59/8/13
f 60/8/13 61/8/13 47/8/13
f 62/8/13 47/8/13 61/8/13
f 50/8/13 47/8/13 62/8/13
f 63/8/13 50/8/13 62/8/13
f 50/8/13 63/8/13 64/8/13
f 49/8/1 65/9/1 45/8/1
f 65/9/1 49/8/1 66/9/1
f 47/8/10 65/9/10 67/9/10
f 65/9/10 47/8/10 45/8/10
f 68/9/2 47/8/2 67/9/2
f 47/8/2 68/9/2 60/8/2
f 66/9/3 60/8/3 68/9/3
f 60/8/3 66/9/3 49/8/3
f 69/5/13 28/5/13 30/5/13
f 28/5/13 69/5/13 70/5/13
f 72/5/13 37/5/13 71/5/13
f 37/5/13 72/5/13 39/5/13
f 32/5/13 74/5/13 73/5/13
f 74/5/13 32/5/13 34/5/13
f 12/5/13 75/5/13 14/5/13
f 75/5/13 12/5/13 76/5/13
f 16/4/13 31/4/13 15/4/13
f 31/4/13 16/4/13 77/4/13
f 77/4/13 16/4/13 78/4/13
f 79/4/13 31/4/13 77/4/13
f 42/8/2 75/5/2 41/8/2
f 78/4/2 75/5/2 42/8/2
f 16/4/2 75/5/2 78/4/2
f 75/5/2 16/4/2 14/5/2
f 80/4/13 29/4/13 27/4/13
f 29/4/13 80/4/13 81/4/13
f 29/4/13 81/4/13 38/4/13
f 38/4/13 81/4/13 82/4/13
f 80/4/3 63/8/3 62/8/3
f 63/8/3 80/4/3 70/5/3
f 70/5/3 80/4/3 28/5/3
f 28/5/3 80/4/3 27/4/3
f 35/4/13 84/4/13 83/4/13
f 36/4/13 84/4/13 35/4/13
f 40/4/13 84/4/13 36/4/13
f 84/4/13 40/4/13 85/4/13
f 72/5/1 40/4/1 39/5/1
f 72/5/1 85/4/1 40/4/1
f 85/4/1 72/5/1 56/8/1
f 58/8/1 56/8/1 72/5/1
f 11/4/13 86/4/13 13/4/13
f 86/4/13 11/4/13 87/4/13
f 87/4/13 11/4/13 88/4/13
f 88/4/13 11/4/13 33/4/13
f 88/4/10 54/8/10 52/8/10
f 54/8/10 88/4/10 73/5/10
f 73/5/10 88/4/10 32/5/10
f 32/5/10 88/4/10 33/4/10
f 63/8/2 69/5/2 64/8/2
f 69/5/2 63/8/2 70/5/2
f 58/8/3 71/5/3 57/8/3
f 71/5/3 58/8/3 72/5/3
f 74/5/1 54/8/1 73/5/1
f 54/8/1 74/5/1 55/8/1
f 75/5/10 43/8/10 41/8/10
f 43/8/10 75/5/10 76/5/10
f 84/4/1 53/8/1 83/4/1
f 53/8/1 84/4/1 51/8/1
f 35/4/3 74/5/3 34/5/3
f 83/4/3 74/5/3 35/4/3
f 53/8/3 74/5/3 83/4/3
f 74/5/3 53/8/3 55/8/3
f 88/4/1 46/8/1 87/4/1
f 46/8/1 88/4/1 52/8/1
f 77/4/10 42/8/10 48/8/10
f 42/8/10 77/4/10 78/4/10
f 86/4/10 46/8/10 44/8/10
f 46/8/10 86/4/10 87/4/10
f 86/4/1 12/5/1 13/4/1
f 12/5/1 86/4/1 76/5/1
f 76/5/1 86/4/1 43/8/1
f 43/8/1 86/4/1 44/8/1
f 50/8/2 77/4/2 48/8/2
f 77/4/2 50/8/2 79/4/2
f 31/4/10 69/5/10 30/5/10
f 69/5/10 31/4/10 79/4/10
f 79/4/10 64/8/10 69/5/10
f 64/8/10 79/4/10 50/8/10
f 61/8/2 80/4/2 62/8/2
f 80/4/2 61/8/2 81/4/2
f 82/4/3 61/8/3 59/8/3
f 61/8/3 82/4/3 81/4/3
f 57/8/2 82/4/2 59/8/2
f 82/4/2 57/8/2 71/5/2
f 82/4/2 71/5/2 38/4/2
f 38/4/2 71/5/2 37/5/2
f 84/4/3 56/8/3 51/8/3
f 56/8/3 84/4/3 85/4/3
f 26/10/1 17/11/1 24/10/1
f 17/11/1 26/10/1 18/11/1
f 20/11/2 22/10/2 19/11/2
f 22/10/2 20/11/2 23/10/2
f 22/10/3 17/11/3 19/11/3
f 17/11/3 22/10/3 24/10/3
f 26/10/10 20/11/10 18/11/10
f 20/11/10 26/10/10 23/10/10
f 65/12/13 68/12/13 67/12/13
f 68/12/13 65/12/13 66/12/13

