# Created by Kenney (www.kenney.nl)

mtllib tower-hexagon-roof-secondary.mtl

g tower-hexagon-roof-secondary

v 0.216 0.05 0.374123 1 1 1
v -0.216 0.05 0.374123 1 1 1
v 0.216 0.17 0.374123 1 1 1
v -0.216 0.17 0.374123 1 1 1
v 0.04 0.73064 -7.219114E-16 1 1 1
v 0.04 0.6773368 -7.219114E-16 1 1 1
v 0.02 0.73064 0.03464101 1 1 1
v 0.02 0.6773368 0.03464101 1 1 1
v -0.02 0.6773368 0.03464101 1 1 1
v -0.02 0.73064 0.03464101 1 1 1
v -0.04 0.6773368 -7.219114E-16 1 1 1
v -0.04 0.73064 -7.219114E-16 1 1 1
v 0.02 0.73064 -0.03464101 1 1 1
v -0.02 0.73064 -0.03464101 1 1 1
v 0.02 0.6773368 -0.03464101 1 1 1
v 0.01 0.75368 -0.01732051 1 1 1
v 0.02 0.75368 -9.023893E-16 1 1 1
v -0.01 0.75368 -0.01732051 1 1 1
v -0.02 0.75368 -9.023893E-16 1 1 1
v -0.01 0.75368 0.01732051 1 1 1
v 0.01 0.75368 0.01732051 1 1 1
v -0.02 0.6773368 -0.03464101 1 1 1
v -0.216 0.05 -0.374123 1 1 1
v -0.216 0.17 -0.374123 1 1 1
v -0.432 0.05 -3.609557E-16 1 1 1
v -0.432 0.17 -3.609557E-16 1 1 1
v 0.216 0.17 -0.374123 1 1 1
v 0.216 0.05 -0.374123 1 1 1
v 0.432 0.17 -1.804779E-16 1 1 1
v 0.432 0.05 -1.804779E-16 1 1 1
v 0 0.73 -7.219114E-16 1 1 1
v 0.24408 0.17 0.422759 1 1 1
v -0.24408 0.17 0.422759 1 1 1
v 0.24408 0.23 0.422759 1 1 1
v -0.24408 0.23 0.422759 1 1 1
v 0.48816 0.23 0 1 1 1
v 0.48816 0.17 0 1 1 1
v 0.24408 0.23 -0.422759 1 1 1
v 0.24408 0.17 -0.422759 1 1 1
v -0.1057285 0.33 -0.1831272 1 1 1
v 0.1057285 0.33 -0.1831272 1 1 1
v -0.2114571 0.33 9.023893E-16 1 1 1
v -0.24408 0.23 -0.422759 1 1 1
v -0.48816 0.23 0 1 1 1
v 0.1057285 0.33 0.1831272 1 1 1
v -0.1057285 0.33 0.1831272 1 1 1
v 0.2114571 0.33 9.023893E-16 1 1 1
v -0.24408 0.17 -0.422759 1 1 1
v -0.48816 0.17 0 1 1 1
v 0.432 0 2.707168E-16 1 1 1
v 0.216 0 -0.374123 1 1 1
v 0.216 0 0.374123 1 1 1
v -0.216 0 0.374123 1 1 1
v -0.216 0 -0.374123 1 1 1
v -0.432 0 9.023893E-17 1 1 1
v 0.432 0.05 2.707168E-16 1 1 1
v -0.432 0.05 9.023893E-17 1 1 1

vn 0 0 1
vn 1 0 0
vn 0.5 0 0.8660254
vn -0.5 0 0.8660254
vn -1 0 0
vn 0 1 0
vn 0.5 0 -0.8660254
vn 0.3775849 0.6555293 -0.6539962
vn 0.7551697 0.6555293 0
vn -0.3775849 0.6555293 -0.6539962
vn -0.7551697 0.6555293 0
vn -0.3775849 0.6555293 0.6539962
vn 0.3775849 0.6555293 0.6539962
vn -0.5 0 -0.8660254
vn -0.8660254 0 -0.5
vn 0.8660254 0 -0.5
vn 0 0 -1
vn 0.8660254 0 0.5
vn -0.8660254 0 0.5
vn 0.723529 0.5495522 -0.4177297
vn -0.723529 0.5495522 0.4177297
vn 0 0.5495522 0.8354594
vn 0.723529 0.5495522 0.4177297
vn 0 0.5495522 -0.8354594
vn -0.723529 0.5495522 -0.4177297
vn -0.4483495 0.4426407 -0.7765642
vn 0.4483495 0.4426407 -0.7765642
vn -0.8966991 0.4426407 0
vn -0.1699418 0.9404676 -0.2943478
vn -0.3398835 0.9404676 0
vn 0.4483495 0.4426407 0.7765642
vn -0.4483495 0.4426407 0.7765642
vn 0.8966991 0.4426407 0
vn 0.3398835 0.9404676 0
vn 0.1699418 0.9404676 0.2943478
vn 0.1699418 0.9404676 -0.2943478
vn -0.1699418 0.9404676 0.2943478
vn 0 -1 0

vt 0.84375 0.03826823
vt 0.84375 0.07011198
vt 0.84375 0.218886
vt 0.84375 0.2047412
vt 0.84375 0.225
vt 0.59375 0.4687161
vt 0.59375 0.4547412
vt 0.59375 0.320112
vt 0.59375 0.3360339
vt 0.59375 0.3625703
vt 0.59375 0.275
vt 0.59375 0.475

usemtl colormap

f 3/2/1 2/1/1 1/1/1
f 2/1/1 3/2/1 4/2/1
f 7/3/3 6/4/2 5/3/2
f 6/4/2 7/3/3 8/4/3
f 8/4/3 10/3/4 9/4/4
f 10/3/4 8/4/3 7/3/3
f 9/4/4 12/3/5 11/4/5
f 12/3/5 9/4/4 10/3/4
f 13/3/6 7/3/6 5/3/6
f 7/3/6 13/3/6 14/3/6
f 7/3/6 14/3/6 10/3/6
f 10/3/6 14/3/6 12/3/6
f 5/3/2 15/4/7 13/3/7
f 15/4/7 5/3/2 6/4/2
f 16/5/8 5/3/9 13/3/8
f 5/3/9 16/5/8 17/5/9
f 12/3/11 18/5/10 14/3/10
f 18/5/10 12/3/11 19/5/11
f 12/3/11 20/5/12 19/5/11
f 20/5/12 12/3/11 10/3/12
f 21/5/13 5/3/9 17/5/9
f 5/3/9 21/5/13 7/3/13
f 16/5/6 21/5/6 17/5/6
f 21/5/6 16/5/6 18/5/6
f 21/5/6 18/5/6 20/5/6
f 20/5/6 18/5/6 19/5/6
f 21/5/13 10/3/12 7/3/13
f 10/3/12 21/5/13 20/5/12
f 18/5/10 13/3/8 14/3/10
f 13/3/8 18/5/10 16/5/8
f 14/3/14 15/4/7 22/4/14
f 15/4/7 14/3/14 13/3/7
f 11/4/5 14/3/14 22/4/14
f 14/3/14 11/4/5 12/3/5
f 25/1/15 24/2/15 23/1/15
f 24/2/15 25/1/15 26/2/15
f 29/2/16 28/1/16 27/2/16
f 28/1/16 29/2/16 30/1/16
f 24/2/17 28/1/17 23/1/17
f 28/1/17 24/2/17 27/2/17
f 3/2/18 30/1/18 29/2/18
f 30/1/18 3/2/18 1/1/18
f 2/1/19 26/2/19 25/1/19
f 26/2/19 2/1/19 4/2/19
f 6/7/20 15/7/20 31/6/20
f 9/7/21 31/6/21 11/7/21
f 31/6/22 9/7/22 8/7/22
f 8/7/23 6/7/23 31/6/23
f 31/6/24 15/7/24 22/7/24
f 31/6/25 22/7/25 11/7/25
f 34/9/1 33/8/1 32/8/1
f 33/8/1 34/9/1 35/9/1
f 34/9/18 37/8/18 36/9/18
f 37/8/18 34/9/18 32/8/18
f 36/9/16 39/8/16 38/9/16
f 39/8/16 36/9/16 37/8/16
f 22/7/26 41/10/27 40/10/26
f 41/10/27 22/7/26 15/7/27
f 42/10/28 22/7/26 40/10/26
f 22/7/26 42/10/28 11/7/28
f 43/9/29 42/10/30 40/10/29
f 42/10/30 43/9/29 44/9/30
f 8/7/31 46/10/32 45/10/31
f 46/10/32 8/7/31 9/7/32
f 15/7/27 47/10/33 41/10/27
f 47/10/33 15/7/27 6/7/33
f 8/7/31 47/10/33 6/7/33
f 47/10/33 8/7/31 45/10/31
f 47/10/34 34/9/35 36/9/34
f 34/9/35 47/10/34 45/10/35
f 42/10/28 9/7/32 11/7/28
f 9/7/32 42/10/28 46/10/32
f 43/9/29 41/10/36 38/9/36
f 41/10/36 43/9/29 40/10/29
f 38/9/36 47/10/34 36/9/34
f 47/10/34 38/9/36 41/10/36
f 42/10/30 35/9/37 46/10/37
f 35/9/37 42/10/30 44/9/30
f 45/10/35 35/9/37 34/9/35
f 35/9/37 45/10/35 46/10/37
f 49/8/15 43/9/15 48/8/15
f 43/9/15 49/8/15 44/9/15
f 33/8/19 44/9/19 49/8/19
f 44/9/19 33/8/19 35/9/19
f 43/9/17 39/8/17 48/8/17
f 39/8/17 43/9/17 38/9/17
f 26/8/38 33/8/38 49/8/38
f 48/8/38 26/8/38 49/8/38
f 4/8/38 33/8/38 26/8/38
f 48/8/38 24/8/38 26/8/38
f 3/8/38 33/8/38 4/8/38
f 48/8/38 27/8/38 24/8/38
f 3/8/38 32/8/38 33/8/38
f 39/8/38 27/8/38 48/8/38
f 29/8/38 32/8/38 3/8/38
f 39/8/38 29/8/38 27/8/38
f 32/8/38 29/8/38 37/8/38
f 29/8/38 39/8/38 37/8/38
f 52/11/38 51/11/38 50/11/38
f 51/11/38 52/11/38 53/11/38
f 51/11/38 53/11/38 54/11/38
f 54/11/38 53/11/38 55/11/38
f 1/12/18 50/11/18 56/12/18
f 50/11/18 1/12/18 52/11/18
f 1/12/1 53/11/1 52/11/1
f 53/11/1 1/12/1 2/12/1
f 23/12/17 51/11/17 54/11/17
f 51/11/17 23/12/17 28/12/17
f 53/11/19 57/12/19 55/11/19
f 57/12/19 53/11/19 2/12/19
f 56/12/16 51/11/16 28/12/16
f 51/11/16 56/12/16 50/11/16
f 55/11/15 23/12/15 54/11/15
f 23/12/15 55/11/15 57/12/15

g tower-hexagon-roof-secondary




usemtl colormap

f 3/2/1 2/1/1 1/1/1
f 2/1/1 3/2/1 4/2/1
f 7/3/3 6/4/2 5/3/2
f 6/4/2 7/3/3 8/4/3
f 8/4/3 10/3/4 9/4/4
f 10/3/4 8/4/3 7/3/3
f 9/4/4 12/3/5 11/4/5
f 12/3/5 9/4/4 10/3/4
f 13/3/6 7/3/6 5/3/6
f 7/3/6 13/3/6 14/3/6
f 7/3/6 14/3/6 10/3/6
f 10/3/6 14/3/6 12/3/6
f 5/3/2 15/4/7 13/3/7
f 15/4/7 5/3/2 6/4/2
f 16/5/8 5/3/9 13/3/8
f 5/3/9 16/5/8 17/5/9
f 12/3/11 18/5/10 14/3/10
f 18/5/10 12/3/11 19/5/11
f 12/3/11 20/5/12 19/5/11
f 20/5/12 12/3/11 10/3/12
f 21/5/13 5/3/9 17/5/9
f 5/3/9 21/5/13 7/3/13
f 16/5/6 21/5/6 17/5/6
f 21/5/6 16/5/6 18/5/6
f 21/5/6 18/5/6 20/5/6
f 20/5/6 18/5/6 19/5/6
f 21/5/13 10/3/12 7/3/13
f 10/3/12 21/5/13 20/5/12
f 18/5/10 13/3/8 14/3/10
f 13/3/8 18/5/10 16/5/8
f 14/3/14 15/4/7 22/4/14
f 15/4/7 14/3/14 13/3/7
f 11/4/5 14/3/14 22/4/14
f 14/3/14 11/4/5 12/3/5
f 25/1/15 24/2/15 23/1/15
f 24/2/15 25/1/15 26/2/15
f 29/2/16 28/1/16 27/2/16
f 28/1/16 29/2/16 30/1/16
f 24/2/17 28/1/17 23/1/17
f 28/1/17 24/2/17 27/2/17
f 3/2/18 30/1/18 29/2/18
f 30/1/18 3/2/18 1/1/18
f 2/1/19 26/2/19 25/1/19
f 26/2/19 2/1/19 4/2/19
f 6/7/20 15/7/20 31/6/20
f 9/7/21 31/6/21 11/7/21
f 31/6/22 9/7/22 8/7/22
f 8/7/23 6/7/23 31/6/23
f 31/6/24 15/7/24 22/7/24
f 31/6/25 22/7/25 11/7/25
f 34/9/1 33/8/1 32/8/1
f 33/8/1 34/9/1 35/9/1
f 34/9/18 37/8/18 36/9/18
f 37/8/18 34/9/18 32/8/18
f 36/9/16 39/8/16 38/9/16
f 39/8/16 36/9/16 37/8/16
f 22/7/26 41/10/27 40/10/26
f 41/10/27 22/7/26 15/7/27
f 42/10/28 22/7/26 40/10/26
f 22/7/26 42/10/28 11/7/28
f 43/9/29 42/10/30 40/10/29
f 42/10/30 43/9/29 44/9/30
f 8/7/31 46/10/32 45/10/31
f 46/10/32 8/7/31 9/7/32
f 15/7/27 47/10/33 41/10/27
f 47/10/33 15/7/27 6/7/33
f 8/7/31 47/10/33 6/7/33
f 47/10/33 8/7/31 45/10/31
f 47/10/34 34/9/35 36/9/34
f 34/9/35 47/10/34 45/10/35
f 42/10/28 9/7/32 11/7/28
f 9/7/32 42/10/28 46/10/32
f 43/9/29 41/10/36 38/9/36
f 41/10/36 43/9/29 40/10/29
f 38/9/36 47/10/34 36/9/34
f 47/10/34 38/9/36 41/10/36
f 42/10/30 35/9/37 46/10/37
f 35/9/37 42/10/30 44/9/30
f 45/10/35 35/9/37 34/9/35
f 35/9/37 45/10/35 46/10/37
f 49/8/15 43/9/15 48/8/15
f 43/9/15 49/8/15 44/9/15
f 33/8/19 44/9/19 49/8/19
f 44/9/19 33/8/19 35/9/19
f 43/9/17 39/8/17 48/8/17
f 39/8/17 43/9/17 38/9/17
f 26/8/38 33/8/38 49/8/38
f 48/8/38 26/8/38 49/8/38
f 4/8/38 33/8/38 26/8/38
f 48/8/38 24/8/38 26/8/38
f 3/8/38 33/8/38 4/8/38
f 48/8/38 27/8/38 24/8/38
f 3/8/38 32/8/38 33/8/38
f 39/8/38 27/8/38 48/8/38
f 29/8/38 32/8/38 3/8/38
f 39/8/38 29/8/38 27/8/38
f 32/8/38 29/8/38 37/8/38
f 29/8/38 39/8/38 37/8/38
f 52/11/38 51/11/38 50/11/38
f 51/11/38 52/11/38 53/11/38
f 51/11/38 53/11/38 54/11/38
f 54/11/38 53/11/38 55/11/38
f 1/12/18 50/11/18 56/12/18
f 50/11/18 1/12/18 52/11/18
f 1/12/1 53/11/1 52/11/1
f 53/11/1 1/12/1 2/12/1
f 23/12/17 51/11/17 54/11/17
f 51/11/17 23/12/17 28/12/17
f 53/11/19 57/12/19 55/11/19
f 57/12/19 53/11/19 2/12/19
f 56/12/16 51/11/16 28/12/16
f 51/11/16 56/12/16 50/11/16
f 55/11/15 23/12/15 54/11/15
f 23/12/15 55/11/15 57/12/15

