# Created by Kenney (www.kenney.nl)

mtllib tower-square-base-color.mtl

g tower-square-base-color

v 0.5 0.28 -0.5 1 1 1
v 0.5 0 -0.5 1 1 1
v 0.5 0.28 0.5 1 1 1
v 0.5 0 0.5 1 1 1
v -0.5 0 -0.5 1 1 1
v -0.5 0.28 -0.5 1 1 1
v -0.5 0 0.5 1 1 1
v -0.5 0.28 0.5 1 1 1
v 0.465 0.45 -0.465 1 1 1
v 0.465 0.45 0.465 1 1 1
v -0.465 0.45 -0.465 1 1 1
v -0.465 0.45 0.465 1 1 1
v 0.465 0.87 0.2325 1 1 1
v 0.465 0.78 0.2325 1 1 1
v 0.465 0.87 0.465 1 1 1
v 0.465 0.78 -0.2325 1 1 1
v 0.465 0.87 -0.2325 1 1 1
v 0.465 0.87 -0.465 1 1 1
v -0.465 0.87 -0.465 1 1 1
v -0.2325 0.78 -0.465 1 1 1
v -0.2325 0.87 -0.465 1 1 1
v 0.2325 0.78 -0.465 1 1 1
v 0.2325 0.87 -0.465 1 1 1
v -0.465 0.78 -0.2325 1 1 1
v -0.465 0.87 -0.2325 1 1 1
v -0.465 0.78 0.2325 1 1 1
v -0.465 0.87 0.2325 1 1 1
v -0.465 0.87 0.465 1 1 1
v 0.2325 0.78 0.465 1 1 1
v 0.2325 0.87 0.465 1 1 1
v -0.2325 0.78 0.465 1 1 1
v -0.2325 0.87 0.465 1 1 1
v 0.465 1.01 -0.465 1 1 1
v 0.465 1.01 0.465 1 1 1
v -0.465 1.01 -0.465 1 1 1
v -0.465 1.01 0.465 1 1 1

vn 1 0 0
vn -1 0 0
vn 0.9794571 0.2016529 0
vn -0.9794571 0.2016529 0
vn 0 -1 0
vn 0 0 1
vn 0 0 -1
vn 0 0.2016529 -0.9794571
vn 0 0.2016529 0.9794571
vn 0 1 0

vt 0.84375 0.08936781
vt 0.84375 0.025
vt 0.84375 0.1284483
vt 0.96875 0.225
vt 0.96875 0.2043103
vt 0.96875 0.1284483
vt 0.59375 0.475
vt 0.59375 0.3532609
vt 0.59375 0.275

usemtl colormap

f 3/1/1 2/2/1 1/1/1
f 2/2/1 3/1/1 4/2/1
f 7/2/2 6/1/2 5/2/2
f 6/1/2 7/2/2 8/1/2
f 9/3/3 3/1/3 1/1/3
f 3/1/3 9/3/3 10/3/3
f 8/1/4 11/3/4 6/1/4
f 11/3/4 8/1/4 12/3/4
f 7/2/5 2/2/5 4/2/5
f 2/2/5 7/2/5 5/2/5
f 3/1/6 7/2/6 4/2/6
f 7/2/6 3/1/6 8/1/6
f 6/1/7 2/2/7 5/2/7
f 2/2/7 6/1/7 1/1/7
f 11/3/8 1/1/8 6/1/8
f 1/1/8 11/3/8 9/3/8
f 10/3/9 8/1/9 3/1/9
f 8/1/9 10/3/9 12/3/9
f 15/4/1 14/5/1 13/4/1
f 10/6/1 14/5/1 15/4/1
f 10/6/1 16/5/1 14/5/1
f 9/6/1 16/5/1 10/6/1
f 9/6/1 17/4/1 16/5/1
f 17/4/1 9/6/1 18/4/1
f 19/4/7 9/6/7 11/6/7
f 9/6/7 19/4/7 20/5/7
f 20/5/7 19/4/7 21/4/7
f 22/5/7 9/6/7 20/5/7
f 9/6/7 22/5/7 18/4/7
f 18/4/7 22/5/7 23/4/7
f 12/6/2 19/4/2 11/6/2
f 19/4/2 12/6/2 24/5/2
f 25/4/2 19/4/2 24/5/2
f 24/5/2 12/6/2 26/5/2
f 26/5/2 12/6/2 27/4/2
f 27/4/2 12/6/2 28/4/2
f 15/4/6 12/6/6 10/6/6
f 12/6/6 15/4/6 29/5/6
f 29/5/6 15/4/6 30/4/6
f 31/5/6 12/6/6 29/5/6
f 12/6/6 31/5/6 28/4/6
f 28/4/6 31/5/6 32/4/6
f 35/7/10 34/7/10 33/7/10
f 34/7/10 35/7/10 36/7/10
f 34/7/1 18/8/1 33/7/1
f 18/8/1 34/7/1 17/8/1
f 17/8/1 34/7/1 16/9/1
f 16/9/1 34/7/1 13/8/1
f 13/8/1 34/7/1 15/8/1
f 14/9/1 16/9/1 13/8/1
f 34/7/6 30/8/6 15/8/6
f 30/8/6 34/7/6 32/8/6
f 32/8/6 34/7/6 28/8/6
f 28/8/6 34/7/6 36/7/6
f 31/9/6 30/8/6 32/8/6
f 30/8/6 31/9/6 29/9/6
f 35/7/7 21/8/7 19/8/7
f 21/8/7 35/7/7 23/8/7
f 23/8/7 35/7/7 18/8/7
f 18/8/7 35/7/7 33/7/7
f 22/9/7 21/8/7 23/8/7
f 21/8/7 22/9/7 20/9/7
f 26/9/2 25/8/2 24/9/2
f 27/8/2 25/8/2 26/9/2
f 36/7/2 25/8/2 27/8/2
f 36/7/2 27/8/2 28/8/2
f 35/7/2 25/8/2 36/7/2
f 25/8/2 35/7/2 19/8/2

g tower-square-base-color




usemtl colormap

f 3/1/1 2/2/1 1/1/1
f 2/2/1 3/1/1 4/2/1
f 7/2/2 6/1/2 5/2/2
f 6/1/2 7/2/2 8/1/2
f 9/3/3 3/1/3 1/1/3
f 3/1/3 9/3/3 10/3/3
f 8/1/4 11/3/4 6/1/4
f 11/3/4 8/1/4 12/3/4
f 7/2/5 2/2/5 4/2/5
f 2/2/5 7/2/5 5/2/5
f 3/1/6 7/2/6 4/2/6
f 7/2/6 3/1/6 8/1/6
f 6/1/7 2/2/7 5/2/7
f 2/2/7 6/1/7 1/1/7
f 11/3/8 1/1/8 6/1/8
f 1/1/8 11/3/8 9/3/8
f 10/3/9 8/1/9 3/1/9
f 8/1/9 10/3/9 12/3/9
f 15/4/1 14/5/1 13/4/1
f 10/6/1 14/5/1 15/4/1
f 10/6/1 16/5/1 14/5/1
f 9/6/1 16/5/1 10/6/1
f 9/6/1 17/4/1 16/5/1
f 17/4/1 9/6/1 18/4/1
f 19/4/7 9/6/7 11/6/7
f 9/6/7 19/4/7 20/5/7
f 20/5/7 19/4/7 21/4/7
f 22/5/7 9/6/7 20/5/7
f 9/6/7 22/5/7 18/4/7
f 18/4/7 22/5/7 23/4/7
f 12/6/2 19/4/2 11/6/2
f 19/4/2 12/6/2 24/5/2
f 25/4/2 19/4/2 24/5/2
f 24/5/2 12/6/2 26/5/2
f 26/5/2 12/6/2 27/4/2
f 27/4/2 12/6/2 28/4/2
f 15/4/6 12/6/6 10/6/6
f 12/6/6 15/4/6 29/5/6
f 29/5/6 15/4/6 30/4/6
f 31/5/6 12/6/6 29/5/6
f 12/6/6 31/5/6 28/4/6
f 28/4/6 31/5/6 32/4/6
f 35/7/10 34/7/10 33/7/10
f 34/7/10 35/7/10 36/7/10
f 34/7/1 18/8/1 33/7/1
f 18/8/1 34/7/1 17/8/1
f 17/8/1 34/7/1 16/9/1
f 16/9/1 34/7/1 13/8/1
f 13/8/1 34/7/1 15/8/1
f 14/9/1 16/9/1 13/8/1
f 34/7/6 30/8/6 15/8/6
f 30/8/6 34/7/6 32/8/6
f 32/8/6 34/7/6 28/8/6
f 28/8/6 34/7/6 36/7/6
f 31/9/6 30/8/6 32/8/6
f 30/8/6 31/9/6 29/9/6
f 35/7/7 21/8/7 19/8/7
f 21/8/7 35/7/7 23/8/7
f 23/8/7 35/7/7 18/8/7
f 18/8/7 35/7/7 33/7/7
f 22/9/7 21/8/7 23/8/7
f 21/8/7 22/9/7 20/9/7
f 26/9/2 25/8/2 24/9/2
f 27/8/2 25/8/2 26/9/2
f 36/7/2 25/8/2 27/8/2
f 36/7/2 27/8/2 28/8/2
f 35/7/2 25/8/2 36/7/2
f 25/8/2 35/7/2 19/8/2

