# Created by Kenney (www.kenney.nl)

mtllib tower-square-mid-open.mtl

g tower-square-mid-open

v -0.465 6.793016E-17 0.34875 1 1 1
v -0.465 0.8781536 0.34875 1 1 1
v -0.465 6.793016E-17 0.465 1 1 1
v -0.465 0.96 0.34875 1 1 1
v -0.465 1.01 0.34875 1 1 1
v -0.465 1.01 0.465 1 1 1
v -0.465 0.96 -0.34875 1 1 1
v -0.465 0.8781536 -0.34875 1 1 1
v -0.465 1.01 -0.34875 1 1 1
v -0.465 6.793016E-17 -0.34875 1 1 1
v -0.465 1.01 -0.465 1 1 1
v -0.465 6.793016E-17 -0.465 1 1 1
v 0.465 6.793016E-17 0.465 1 1 1
v 0.34875 6.793016E-17 0.465 1 1 1
v 0.465 1.01 0.465 1 1 1
v 0.34875 0.8781536 0.465 1 1 1
v 0.34875 0.96 0.465 1 1 1
v 0.34875 1.01 0.465 1 1 1
v -0.34875 0.8781536 0.465 1 1 1
v -0.34875 0.96 0.465 1 1 1
v -0.34875 1.01 0.465 1 1 1
v -0.34875 6.793016E-17 0.465 1 1 1
v -0.34875 6.793016E-17 -0.465 1 1 1
v -0.34875 0.8781536 -0.465 1 1 1
v -0.34875 0.96 -0.465 1 1 1
v -0.34875 1.01 -0.465 1 1 1
v 0.34875 0.8781536 -0.465 1 1 1
v 0.34875 0.96 -0.465 1 1 1
v 0.465 1.01 -0.465 1 1 1
v 0.34875 1.01 -0.465 1 1 1
v 0.465 6.793016E-17 -0.465 1 1 1
v 0.34875 6.793016E-17 -0.465 1 1 1
v 0.34875 0 -0.34875 1 1 1
v 0.34875 0.8781536 -0.34875 1 1 1
v 0.465 6.948117E-17 -0.34875 1 1 1
v 0.465 0.8781536 -0.34875 1 1 1
v -0.34875 0.8781536 -0.34875 1 1 1
v -0.34875 0.96 -0.34875 1 1 1
v 0.34875 0.96 -0.34875 1 1 1
v -0.34875 0 -0.34875 1 1 1
v 0.465 0.96 -0.34875 1 1 1
v 0.465 1.01 -0.34875 1 1 1
v 0.34875 1.01 -0.34875 1 1 1
v -0.34875 1.01 -0.34875 1 1 1
v 0.34875 0 0.34875 1 1 1
v 0.34875 0.8781536 0.34875 1 1 1
v 0.34875 0.96 0.34875 1 1 1
v 0.34875 1.01 0.34875 1 1 1
v 0.465 6.793016E-17 0.34875 1 1 1
v 0.465 0.8781536 0.34875 1 1 1
v -0.34875 0.96 0.34875 1 1 1
v -0.34875 0.8781536 0.34875 1 1 1
v 0.465 0.96 0.34875 1 1 1
v 0.465 1.01 0.34875 1 1 1
v -0.34875 0 0.34875 1 1 1
v -0.34875 1.01 0.34875 1 1 1
v 0.465 6.76792E-17 0.1086782 1 1 1
v -0.465 6.76792E-17 0.1086782 1 1 1
v 0.465 0.02 0.1086782 1 1 1
v -0.465 0.02 0.1086782 1 1 1
v 0.465 6.76792E-17 0.01009579 1 1 1
v -0.465 6.76792E-17 0.01009579 1 1 1
v -0.465 0.02 0.01009579 1 1 1
v 0.465 0.02 0.01009579 1 1 1
v 0.465 0.02 -0.346226 1 1 1
v 0.465 0.02 -0.2476436 1 1 1
v -0.465 0.02 -0.346226 1 1 1
v -0.465 0.02 -0.2476436 1 1 1
v 0.465 6.76792E-17 -0.2476436 1 1 1
v -0.465 6.76792E-17 -0.2476436 1 1 1
v 0.465 6.76792E-17 -0.346226 1 1 1
v -0.465 6.76792E-17 -0.346226 1 1 1
v 0.465 0.02 -0.2274521 1 1 1
v 0.465 6.76792E-17 -0.2274521 1 1 1
v 0.465 0.02 -0.1288697 1 1 1
v 0.465 6.76792E-17 -0.1288697 1 1 1
v -0.465 6.76792E-17 -0.2274521 1 1 1
v -0.465 0.02 -0.2274521 1 1 1
v -0.465 6.76792E-17 -0.1288697 1 1 1
v -0.465 0.02 -0.1288697 1 1 1
v -0.465 6.76792E-17 -0.1086782 1 1 1
v -0.465 0.02 -0.1086782 1 1 1
v -0.465 6.76792E-17 -0.01009579 1 1 1
v -0.465 0.02 -0.01009579 1 1 1
v 0.465 0.02 -0.1086782 1 1 1
v 0.465 0.02 -0.01009579 1 1 1
v 0.465 6.76792E-17 -0.1086782 1 1 1
v 0.465 6.76792E-17 -0.01009579 1 1 1
v 0.465 6.76792E-17 0.2274521 1 1 1
v 0.465 6.76792E-17 0.1288697 1 1 1
v -0.465 6.76792E-17 0.2274521 1 1 1
v -0.465 6.76792E-17 0.1288697 1 1 1
v -0.465 0.02 0.1288697 1 1 1
v -0.465 0.02 0.2274521 1 1 1
v 0.465 0.02 0.1288697 1 1 1
v 0.465 0.02 0.2274521 1 1 1
v -0.34875 6.76792E-17 -0.465 1 1 1
v 0.34875 6.76792E-17 -0.465 1 1 1
v -0.34875 0.02 -0.465 1 1 1
v 0.34875 0.02 -0.465 1 1 1
v 0.34875 0.02 -0.3664176 1 1 1
v -0.34875 0.02 -0.3664176 1 1 1
v -0.34875 6.76792E-17 -0.3664176 1 1 1
v 0.34875 6.76792E-17 -0.3664176 1 1 1
v 0.34875 0.02 0.3664176 1 1 1
v 0.34875 0.02 0.465 1 1 1
v -0.34875 0.02 0.3664176 1 1 1
v -0.34875 0.02 0.465 1 1 1
v 0.34875 6.76792E-17 0.465 1 1 1
v 0.34875 6.76792E-17 0.3664176 1 1 1
v -0.34875 6.76792E-17 0.465 1 1 1
v -0.34875 6.76792E-17 0.3664176 1 1 1
v 0.465 6.76792E-17 0.346226 1 1 1
v 0.465 6.76792E-17 0.2476436 1 1 1
v -0.465 6.76792E-17 0.346226 1 1 1
v -0.465 6.76792E-17 0.2476436 1 1 1
v 0.465 0.02 0.346226 1 1 1
v -0.465 0.02 0.346226 1 1 1
v 0.465 0.02 0.2476436 1 1 1
v -0.465 0.02 0.2476436 1 1 1
v 0.34875 0.2581384 -0.465 1 1 1
v 0.34875 0.2581384 -0.385 1 1 1
v -0.3487501 0.2581384 -0.465 1 1 1
v -0.3487501 0.2581384 -0.385 1 1 1
v -0.3487501 0.1981384 -0.465 1 1 1
v 0.34875 0.1981384 -0.465 1 1 1
v 0.34875 0.1981384 -0.385 1 1 1
v -0.3487501 0.1981384 -0.385 1 1 1
v 0.34875 0.2581384 0.385 1 1 1
v 0.34875 0.2581384 0.465 1 1 1
v -0.3487501 0.2581384 0.385 1 1 1
v -0.3487501 0.2581384 0.465 1 1 1
v -0.3487501 0.1981384 0.385 1 1 1
v 0.34875 0.1981384 0.385 1 1 1
v 0.34875 0.1981384 0.465 1 1 1
v -0.3487501 0.1981384 0.465 1 1 1
v 0.385 0.2581384 0.34875 1 1 1
v 0.3850001 0.2581384 -0.3487501 1 1 1
v 0.465 0.2581384 0.34875 1 1 1
v 0.4650001 0.2581384 -0.3487501 1 1 1
v 0.4650001 0.1981384 -0.3487501 1 1 1
v 0.465 0.1981384 0.34875 1 1 1
v 0.385 0.1981384 0.34875 1 1 1
v 0.3850001 0.1981384 -0.3487501 1 1 1
v -0.385 0.2581384 0.34875 1 1 1
v -0.465 0.2581384 0.34875 1 1 1
v -0.3849999 0.2581384 -0.3487501 1 1 1
v -0.4649999 0.2581384 -0.3487501 1 1 1
v -0.3849999 0.1981384 -0.3487501 1 1 1
v -0.385 0.1981384 0.34875 1 1 1
v -0.465 0.1981384 0.34875 1 1 1
v -0.4649999 0.1981384 -0.3487501 1 1 1

vn -1 0 0
vn 0 0 1
vn 0 0 -1
vn 1 0 0
vn 0 -1 0
vn 0 1 0
vn 1 0 1.192093E-07
vn -1 0 -1.192093E-07

vt 0.84375 0.025
vt 0.84375 0.1988918
vt 0.84375 0.215099
vt 0.84375 0.225
vt 0.59375 0.025
vt 0.59375 0.225

usemtl colormap

f 3/1/1 2/2/1 1/1/1
f 2/2/1 3/1/1 4/3/1
f 4/3/1 3/1/1 5/4/1
f 5/4/1 3/1/1 6/4/1
f 7/3/1 2/2/1 4/3/1
f 2/2/1 7/3/1 8/2/1
f 9/4/1 8/2/1 7/3/1
f 9/4/1 10/1/1 8/2/1
f 11/4/1 10/1/1 9/4/1
f 10/1/1 11/4/1 12/1/1
f 15/4/2 14/1/2 13/1/2
f 14/1/2 15/4/2 16/2/2
f 16/2/2 15/4/2 17/3/2
f 17/3/2 15/4/2 18/4/2
f 16/2/2 17/3/2 19/2/2
f 20/3/2 19/2/2 17/3/2
f 6/4/2 19/2/2 20/3/2
f 6/4/2 20/3/2 21/4/2
f 3/1/2 19/2/2 6/4/2
f 19/2/2 3/1/2 22/1/2
f 11/4/3 23/1/3 12/1/3
f 23/1/3 11/4/3 24/2/3
f 24/2/3 11/4/3 25/3/3
f 25/3/3 11/4/3 26/4/3
f 24/2/3 25/3/3 27/2/3
f 28/3/3 27/2/3 25/3/3
f 29/4/3 27/2/3 28/3/3
f 29/4/3 28/3/3 30/4/3
f 31/1/3 27/2/3 29/4/3
f 27/2/3 31/1/3 32/1/3
f 35/1/2 34/2/2 33/1/2
f 34/2/2 35/1/2 36/2/2
f 34/2/2 38/3/2 37/2/2
f 38/3/2 34/2/2 39/3/2
f 37/2/2 10/1/2 40/1/2
f 10/1/2 37/2/2 8/2/2
f 42/4/2 39/3/2 41/3/2
f 39/3/2 42/4/2 43/4/2
f 44/4/2 7/3/2 38/3/2
f 7/3/2 44/4/2 9/4/2
f 14/1/1 46/2/1 45/1/1
f 46/2/1 14/1/1 16/2/1
f 46/2/1 39/3/1 34/2/1
f 39/3/1 46/2/1 47/3/1
f 27/2/1 33/1/1 34/2/1
f 33/1/1 27/2/1 32/1/1
f 17/3/1 48/4/1 47/3/1
f 48/4/1 17/3/1 18/4/1
f 39/3/1 30/4/1 28/3/1
f 30/4/1 39/3/1 43/4/1
f 46/2/3 49/1/3 45/1/3
f 49/1/3 46/2/3 50/2/3
f 46/2/3 51/3/3 47/3/3
f 51/3/3 46/2/3 52/2/3
f 48/4/3 53/3/3 47/3/3
f 53/3/3 48/4/3 54/4/3
f 1/1/3 52/2/3 55/1/3
f 52/2/3 1/1/3 2/2/3
f 5/4/3 51/3/3 4/3/3
f 51/3/3 5/4/3 56/4/3
f 55/1/4 19/2/4 22/1/4
f 19/2/4 55/1/4 52/2/4
f 37/2/4 51/3/4 52/2/4
f 51/3/4 37/2/4 38/3/4
f 25/3/4 44/4/4 38/3/4
f 44/4/4 25/3/4 26/4/4
f 37/2/4 23/1/4 24/2/4
f 23/1/4 37/2/4 40/1/4
f 21/4/4 51/3/4 56/4/4
f 51/3/4 21/4/4 20/3/4
f 33/1/5 31/1/5 35/1/5
f 31/1/5 33/1/5 32/1/5
f 10/1/5 23/1/5 40/1/5
f 23/1/5 10/1/5 12/1/5
f 3/1/5 55/1/5 22/1/5
f 55/1/5 3/1/5 1/1/5
f 14/1/5 49/1/5 13/1/5
f 49/1/5 14/1/5 45/1/5
f 48/4/6 15/4/6 54/4/6
f 15/4/6 48/4/6 18/4/6
f 15/4/4 53/3/4 54/4/4
f 53/3/4 15/4/4 50/2/4
f 13/1/4 50/2/4 15/4/4
f 50/2/4 13/1/4 49/1/4
f 36/2/4 53/3/4 50/2/4
f 53/3/4 36/2/4 41/3/4
f 35/1/4 41/3/4 36/2/4
f 35/1/4 42/4/4 41/3/4
f 31/1/4 42/4/4 35/1/4
f 42/4/4 31/1/4 29/4/4
f 30/4/6 42/4/6 29/4/6
f 42/4/6 30/4/6 43/4/6
f 11/4/6 44/4/6 26/4/6
f 44/4/6 11/4/6 9/4/6
f 5/4/6 21/4/6 56/4/6
f 21/4/6 5/4/6 6/4/6
f 51/3/6 7/3/6 4/3/6
f 7/3/6 51/3/6 38/3/6
f 17/3/6 51/3/6 20/3/6
f 51/3/6 17/3/6 47/3/6
f 39/3/6 25/3/6 38/3/6
f 25/3/6 39/3/6 28/3/6
f 53/3/6 39/3/6 47/3/6
f 39/3/6 53/3/6 41/3/6
f 34/2/5 24/2/5 27/2/5
f 24/2/5 34/2/5 37/2/5
f 37/2/5 2/2/5 8/2/5
f 2/2/5 37/2/5 52/2/5
f 36/2/5 46/2/5 34/2/5
f 46/2/5 36/2/5 50/2/5
f 46/2/5 19/2/5 52/2/5
f 19/2/5 46/2/5 16/2/5
f 59/6/2 58/5/2 57/5/2
f 58/5/2 59/6/2 60/6/2
f 58/5/5 61/5/5 57/5/5
f 61/5/5 58/5/5 62/5/5
f 63/6/3 61/5/3 62/5/3
f 61/5/3 63/6/3 64/6/3
f 58/5/1 63/6/1 62/5/1
f 63/6/1 58/5/1 60/6/1
f 59/6/4 61/5/4 64/6/4
f 61/5/4 59/6/4 57/5/4
f 63/6/6 59/6/6 64/6/6
f 59/6/6 63/6/6 60/6/6
f 67/6/6 66/6/6 65/6/6
f 66/6/6 67/6/6 68/6/6
f 66/6/2 70/5/2 69/5/2
f 70/5/2 66/6/2 68/6/2
f 66/6/4 71/5/4 65/6/4
f 71/5/4 66/6/4 69/5/4
f 70/5/1 67/6/1 72/5/1
f 67/6/1 70/5/1 68/6/1
f 67/6/3 71/5/3 72/5/3
f 71/5/3 67/6/3 65/6/3
f 70/5/5 71/5/5 69/5/5
f 71/5/5 70/5/5 72/5/5
f 75/6/4 74/5/4 73/6/4
f 74/5/4 75/6/4 76/5/4
f 79/5/1 78/6/1 77/5/1
f 78/6/1 79/5/1 80/6/1
f 79/5/5 74/5/5 76/5/5
f 74/5/5 79/5/5 77/5/5
f 78/6/3 74/5/3 77/5/3
f 74/5/3 78/6/3 73/6/3
f 78/6/6 75/6/6 73/6/6
f 75/6/6 78/6/6 80/6/6
f 75/6/2 79/5/2 76/5/2
f 79/5/2 75/6/2 80/6/2
f 83/5/1 82/6/1 81/5/1
f 82/6/1 83/5/1 84/6/1
f 82/6/6 86/6/6 85/6/6
f 86/6/6 82/6/6 84/6/6
f 82/6/3 87/5/3 81/5/3
f 87/5/3 82/6/3 85/6/3
f 83/5/5 87/5/5 88/5/5
f 87/5/5 83/5/5 81/5/5
f 86/6/4 87/5/4 85/6/4
f 87/5/4 86/6/4 88/5/4
f 86/6/2 83/5/2 88/5/2
f 83/5/2 86/6/2 84/6/2
f 91/5/5 90/5/5 89/5/5
f 90/5/5 91/5/5 92/5/5
f 91/5/1 93/6/1 92/5/1
f 93/6/1 91/5/1 94/6/1
f 93/6/6 96/6/6 95/6/6
f 96/6/6 93/6/6 94/6/6
f 96/6/4 90/5/4 95/6/4
f 90/5/4 96/6/4 89/5/4
f 96/6/2 91/5/2 89/5/2
f 91/5/2 96/6/2 94/6/2
f 93/6/3 90/5/3 92/5/3
f 90/5/3 93/6/3 95/6/3
f 99/6/3 98/5/3 97/5/3
f 98/5/3 99/6/3 100/6/3
f 99/6/6 101/6/6 100/6/6
f 101/6/6 99/6/6 102/6/6
f 103/5/1 99/6/1 97/5/1
f 99/6/1 103/5/1 102/6/1
f 103/5/5 98/5/5 104/5/5
f 98/5/5 103/5/5 97/5/5
f 101/6/2 103/5/2 104/5/2
f 103/5/2 101/6/2 102/6/2
f 101/6/4 98/5/4 100/6/4
f 98/5/4 101/6/4 104/5/4
f 107/6/6 106/6/6 105/6/6
f 106/6/6 107/6/6 108/6/6
f 111/5/5 110/5/5 109/5/5
f 110/5/5 111/5/5 112/5/5
f 111/5/1 107/6/1 112/5/1
f 107/6/1 111/5/1 108/6/1
f 107/6/3 110/5/3 112/5/3
f 110/5/3 107/6/3 105/6/3
f 106/6/4 110/5/4 105/6/4
f 110/5/4 106/6/4 109/5/4
f 106/6/2 111/5/2 109/5/2
f 111/5/2 106/6/2 108/6/2
f 115/5/5 114/5/5 113/5/5
f 114/5/5 115/5/5 116/5/5
f 117/6/2 115/5/2 113/5/2
f 115/5/2 117/6/2 118/6/2
f 117/6/4 114/5/4 119/6/4
f 114/5/4 117/6/4 113/5/4
f 115/5/1 120/6/1 116/5/1
f 120/6/1 115/5/1 118/6/1
f 120/6/3 114/5/3 116/5/3
f 114/5/3 120/6/3 119/6/3
f 120/6/6 117/6/6 119/6/6
f 117/6/6 120/6/6 118/6/6
f 123/6/6 122/6/6 121/6/6
f 122/6/6 123/6/6 124/6/6
f 123/6/3 126/5/3 125/5/3
f 126/5/3 123/6/3 121/6/3
f 122/6/2 128/5/2 127/5/2
f 128/5/2 122/6/2 124/6/2
f 128/5/5 126/5/5 127/5/5
f 126/5/5 128/5/5 125/5/5
f 131/6/6 130/6/6 129/6/6
f 130/6/6 131/6/6 132/6/6
f 131/6/3 134/5/3 133/5/3
f 134/5/3 131/6/3 129/6/3
f 130/6/2 136/5/2 135/5/2
f 136/5/2 130/6/2 132/6/2
f 136/5/5 134/5/5 135/5/5
f 134/5/5 136/5/5 133/5/5
f 139/6/6 138/6/6 137/6/6
f 138/6/6 139/6/6 140/6/6
f 140/6/7 142/5/7 141/5/7
f 142/5/7 140/6/7 139/6/7
f 137/6/8 144/5/8 143/5/8
f 144/5/8 137/6/8 138/6/8
f 144/5/5 142/5/5 143/5/5
f 142/5/5 144/5/5 141/5/5
f 147/6/6 146/6/6 145/6/6
f 146/6/6 147/6/6 148/6/6
f 147/6/7 150/5/7 149/5/7
f 150/5/7 147/6/7 145/6/7
f 146/6/8 152/5/8 151/5/8
f 152/5/8 146/6/8 148/6/8
f 151/5/5 149/5/5 150/5/5
f 149/5/5 151/5/5 152/5/5

g tower-square-mid-open




usemtl colormap

f 3/1/1 2/2/1 1/1/1
f 2/2/1 3/1/1 4/3/1
f 4/3/1 3/1/1 5/4/1
f 5/4/1 3/1/1 6/4/1
f 7/3/1 2/2/1 4/3/1
f 2/2/1 7/3/1 8/2/1
f 9/4/1 8/2/1 7/3/1
f 9/4/1 10/1/1 8/2/1
f 11/4/1 10/1/1 9/4/1
f 10/1/1 11/4/1 12/1/1
f 15/4/2 14/1/2 13/1/2
f 14/1/2 15/4/2 16/2/2
f 16/2/2 15/4/2 17/3/2
f 17/3/2 15/4/2 18/4/2
f 16/2/2 17/3/2 19/2/2
f 20/3/2 19/2/2 17/3/2
f 6/4/2 19/2/2 20/3/2
f 6/4/2 20/3/2 21/4/2
f 3/1/2 19/2/2 6/4/2
f 19/2/2 3/1/2 22/1/2
f 11/4/3 23/1/3 12/1/3
f 23/1/3 11/4/3 24/2/3
f 24/2/3 11/4/3 25/3/3
f 25/3/3 11/4/3 26/4/3
f 24/2/3 25/3/3 27/2/3
f 28/3/3 27/2/3 25/3/3
f 29/4/3 27/2/3 28/3/3
f 29/4/3 28/3/3 30/4/3
f 31/1/3 27/2/3 29/4/3
f 27/2/3 31/1/3 32/1/3
f 35/1/2 34/2/2 33/1/2
f 34/2/2 35/1/2 36/2/2
f 34/2/2 38/3/2 37/2/2
f 38/3/2 34/2/2 39/3/2
f 37/2/2 10/1/2 40/1/2
f 10/1/2 37/2/2 8/2/2
f 42/4/2 39/3/2 41/3/2
f 39/3/2 42/4/2 43/4/2
f 44/4/2 7/3/2 38/3/2
f 7/3/2 44/4/2 9/4/2
f 14/1/1 46/2/1 45/1/1
f 46/2/1 14/1/1 16/2/1
f 46/2/1 39/3/1 34/2/1
f 39/3/1 46/2/1 47/3/1
f 27/2/1 33/1/1 34/2/1
f 33/1/1 27/2/1 32/1/1
f 17/3/1 48/4/1 47/3/1
f 48/4/1 17/3/1 18/4/1
f 39/3/1 30/4/1 28/3/1
f 30/4/1 39/3/1 43/4/1
f 46/2/3 49/1/3 45/1/3
f 49/1/3 46/2/3 50/2/3
f 46/2/3 51/3/3 47/3/3
f 51/3/3 46/2/3 52/2/3
f 48/4/3 53/3/3 47/3/3
f 53/3/3 48/4/3 54/4/3
f 1/1/3 52/2/3 55/1/3
f 52/2/3 1/1/3 2/2/3
f 5/4/3 51/3/3 4/3/3
f 51/3/3 5/4/3 56/4/3
f 55/1/4 19/2/4 22/1/4
f 19/2/4 55/1/4 52/2/4
f 37/2/4 51/3/4 52/2/4
f 51/3/4 37/2/4 38/3/4
f 25/3/4 44/4/4 38/3/4
f 44/4/4 25/3/4 26/4/4
f 37/2/4 23/1/4 24/2/4
f 23/1/4 37/2/4 40/1/4
f 21/4/4 51/3/4 56/4/4
f 51/3/4 21/4/4 20/3/4
f 33/1/5 31/1/5 35/1/5
f 31/1/5 33/1/5 32/1/5
f 10/1/5 23/1/5 40/1/5
f 23/1/5 10/1/5 12/1/5
f 3/1/5 55/1/5 22/1/5
f 55/1/5 3/1/5 1/1/5
f 14/1/5 49/1/5 13/1/5
f 49/1/5 14/1/5 45/1/5
f 48/4/6 15/4/6 54/4/6
f 15/4/6 48/4/6 18/4/6
f 15/4/4 53/3/4 54/4/4
f 53/3/4 15/4/4 50/2/4
f 13/1/4 50/2/4 15/4/4
f 50/2/4 13/1/4 49/1/4
f 36/2/4 53/3/4 50/2/4
f 53/3/4 36/2/4 41/3/4
f 35/1/4 41/3/4 36/2/4
f 35/1/4 42/4/4 41/3/4
f 31/1/4 42/4/4 35/1/4
f 42/4/4 31/1/4 29/4/4
f 30/4/6 42/4/6 29/4/6
f 42/4/6 30/4/6 43/4/6
f 11/4/6 44/4/6 26/4/6
f 44/4/6 11/4/6 9/4/6
f 5/4/6 21/4/6 56/4/6
f 21/4/6 5/4/6 6/4/6
f 51/3/6 7/3/6 4/3/6
f 7/3/6 51/3/6 38/3/6
f 17/3/6 51/3/6 20/3/6
f 51/3/6 17/3/6 47/3/6
f 39/3/6 25/3/6 38/3/6
f 25/3/6 39/3/6 28/3/6
f 53/3/6 39/3/6 47/3/6
f 39/3/6 53/3/6 41/3/6
f 34/2/5 24/2/5 27/2/5
f 24/2/5 34/2/5 37/2/5
f 37/2/5 2/2/5 8/2/5
f 2/2/5 37/2/5 52/2/5
f 36/2/5 46/2/5 34/2/5
f 46/2/5 36/2/5 50/2/5
f 46/2/5 19/2/5 52/2/5
f 19/2/5 46/2/5 16/2/5
f 59/6/2 58/5/2 57/5/2
f 58/5/2 59/6/2 60/6/2
f 58/5/5 61/5/5 57/5/5
f 61/5/5 58/5/5 62/5/5
f 63/6/3 61/5/3 62/5/3
f 61/5/3 63/6/3 64/6/3
f 58/5/1 63/6/1 62/5/1
f 63/6/1 58/5/1 60/6/1
f 59/6/4 61/5/4 64/6/4
f 61/5/4 59/6/4 57/5/4
f 63/6/6 59/6/6 64/6/6
f 59/6/6 63/6/6 60/6/6
f 67/6/6 66/6/6 65/6/6
f 66/6/6 67/6/6 68/6/6
f 66/6/2 70/5/2 69/5/2
f 70/5/2 66/6/2 68/6/2
f 66/6/4 71/5/4 65/6/4
f 71/5/4 66/6/4 69/5/4
f 70/5/1 67/6/1 72/5/1
f 67/6/1 70/5/1 68/6/1
f 67/6/3 71/5/3 72/5/3
f 71/5/3 67/6/3 65/6/3
f 70/5/5 71/5/5 69/5/5
f 71/5/5 70/5/5 72/5/5
f 75/6/4 74/5/4 73/6/4
f 74/5/4 75/6/4 76/5/4
f 79/5/1 78/6/1 77/5/1
f 78/6/1 79/5/1 80/6/1
f 79/5/5 74/5/5 76/5/5
f 74/5/5 79/5/5 77/5/5
f 78/6/3 74/5/3 77/5/3
f 74/5/3 78/6/3 73/6/3
f 78/6/6 75/6/6 73/6/6
f 75/6/6 78/6/6 80/6/6
f 75/6/2 79/5/2 76/5/2
f 79/5/2 75/6/2 80/6/2
f 83/5/1 82/6/1 81/5/1
f 82/6/1 83/5/1 84/6/1
f 82/6/6 86/6/6 85/6/6
f 86/6/6 82/6/6 84/6/6
f 82/6/3 87/5/3 81/5/3
f 87/5/3 82/6/3 85/6/3
f 83/5/5 87/5/5 88/5/5
f 87/5/5 83/5/5 81/5/5
f 86/6/4 87/5/4 85/6/4
f 87/5/4 86/6/4 88/5/4
f 86/6/2 83/5/2 88/5/2
f 83/5/2 86/6/2 84/6/2
f 91/5/5 90/5/5 89/5/5
f 90/5/5 91/5/5 92/5/5
f 91/5/1 93/6/1 92/5/1
f 93/6/1 91/5/1 94/6/1
f 93/6/6 96/6/6 95/6/6
f 96/6/6 93/6/6 94/6/6
f 96/6/4 90/5/4 95/6/4
f 90/5/4 96/6/4 89/5/4
f 96/6/2 91/5/2 89/5/2
f 91/5/2 96/6/2 94/6/2
f 93/6/3 90/5/3 92/5/3
f 90/5/3 93/6/3 95/6/3
f 99/6/3 98/5/3 97/5/3
f 98/5/3 99/6/3 100/6/3
f 99/6/6 101/6/6 100/6/6
f 101/6/6 99/6/6 102/6/6
f 103/5/1 99/6/1 97/5/1
f 99/6/1 103/5/1 102/6/1
f 103/5/5 98/5/5 104/5/5
f 98/5/5 103/5/5 97/5/5
f 101/6/2 103/5/2 104/5/2
f 103/5/2 101/6/2 102/6/2
f 101/6/4 98/5/4 100/6/4
f 98/5/4 101/6/4 104/5/4
f 107/6/6 106/6/6 105/6/6
f 106/6/6 107/6/6 108/6/6
f 111/5/5 110/5/5 109/5/5
f 110/5/5 111/5/5 112/5/5
f 111/5/1 107/6/1 112/5/1
f 107/6/1 111/5/1 108/6/1
f 107/6/3 110/5/3 112/5/3
f 110/5/3 107/6/3 105/6/3
f 106/6/4 110/5/4 105/6/4
f 110/5/4 106/6/4 109/5/4
f 106/6/2 111/5/2 109/5/2
f 111/5/2 106/6/2 108/6/2
f 115/5/5 114/5/5 113/5/5
f 114/5/5 115/5/5 116/5/5
f 117/6/2 115/5/2 113/5/2
f 115/5/2 117/6/2 118/6/2
f 117/6/4 114/5/4 119/6/4
f 114/5/4 117/6/4 113/5/4
f 115/5/1 120/6/1 116/5/1
f 120/6/1 115/5/1 118/6/1
f 120/6/3 114/5/3 116/5/3
f 114/5/3 120/6/3 119/6/3
f 120/6/6 117/6/6 119/6/6
f 117/6/6 120/6/6 118/6/6
f 123/6/6 122/6/6 121/6/6
f 122/6/6 123/6/6 124/6/6
f 123/6/3 126/5/3 125/5/3
f 126/5/3 123/6/3 121/6/3
f 122/6/2 128/5/2 127/5/2
f 128/5/2 122/6/2 124/6/2
f 128/5/5 126/5/5 127/5/5
f 126/5/5 128/5/5 125/5/5
f 131/6/6 130/6/6 129/6/6
f 130/6/6 131/6/6 132/6/6
f 131/6/3 134/5/3 133/5/3
f 134/5/3 131/6/3 129/6/3
f 130/6/2 136/5/2 135/5/2
f 136/5/2 130/6/2 132/6/2
f 136/5/5 134/5/5 135/5/5
f 134/5/5 136/5/5 133/5/5
f 139/6/6 138/6/6 137/6/6
f 138/6/6 139/6/6 140/6/6
f 140/6/7 142/5/7 141/5/7
f 142/5/7 140/6/7 139/6/7
f 137/6/8 144/5/8 143/5/8
f 144/5/8 137/6/8 138/6/8
f 144/5/5 142/5/5 143/5/5
f 142/5/5 144/5/5 141/5/5
f 147/6/6 146/6/6 145/6/6
f 146/6/6 147/6/6 148/6/6
f 147/6/7 150/5/7 149/5/7
f 150/5/7 147/6/7 145/6/7
f 146/6/8 152/5/8 151/5/8
f 152/5/8 146/6/8 148/6/8
f 151/5/5 149/5/5 150/5/5
f 149/5/5 151/5/5 152/5/5

