# Created by Kenney (www.kenney.nl)

mtllib tower-square-mid.mtl

g tower-square-mid

v 0.465 0 0.465 1 1 1
v 0.465 0 0.34875 1 1 1
v 0.34875 0 0.465 1 1 1
v 0.4187076 0 0.34875 1 1 1
v 0.4187076 1.551006E-18 -0.34875 1 1 1
v 0.34875 0 -0.465 1 1 1
v 0.34875 0 0.4187076 1 1 1
v 0.465 0 -0.465 1 1 1
v 0.465 1.551006E-18 -0.34875 1 1 1
v 0.34875 0 -0.4187076 1 1 1
v -0.34875 0 0.4187076 1 1 1
v -0.34875 0 -0.4187076 1 1 1
v -0.4187076 0 0.34875 1 1 1
v -0.34875 0 -0.465 1 1 1
v -0.465 0 0.465 1 1 1
v -0.34875 0 0.465 1 1 1
v -0.465 0 0.34875 1 1 1
v -0.4187076 0 -0.34875 1 1 1
v -0.465 0 -0.465 1 1 1
v -0.465 0 -0.34875 1 1 1
v -0.465 1.01 0.34875 1 1 1
v -0.465 1.01 0.465 1 1 1
v 0.465 1.01 -0.465 1 1 1
v 0.465 1.01 -0.34875 1 1 1
v 0.465 1.01 0.465 1 1 1
v 0.34875 1.01 0.465 1 1 1
v -0.465 1.01 -0.465 1 1 1
v -0.34875 1.01 -0.465 1 1 1
v 0.34875 1.01 -0.465 1 1 1
v 0.4187076 1.01 0.34875 1 1 1
v 0.465 1.01 0.34875 1 1 1
v 0.4187076 1.01 -0.34875 1 1 1
v -0.34875 1.01 -0.4187076 1 1 1
v 0.34875 1.01 -0.4187076 1 1 1
v -0.34875 1.01 0.465 1 1 1
v 0.34875 1.01 0.4187076 1 1 1
v -0.34875 1.01 0.4187076 1 1 1
v -0.465 1.01 -0.34875 1 1 1
v -0.4187076 1.01 0.34875 1 1 1
v -0.4187076 1.01 -0.34875 1 1 1

vn 0 -1 0
vn -1 0 0
vn 1 0 0
vn 0 0 1
vn 0 0 -1
vn 0 1 0

vt 0.84375 0.025
vt 0.84375 0.225
vt 0.96875 0.225
vt 0.96875 0.025

usemtl colormap

f 3/1/1 2/1/1 1/1/1
f 2/1/1 3/1/1 4/1/1
f 4/1/1 3/1/1 5/1/1
f 6/1/1 5/1/1 3/1/1
f 6/1/1 3/1/1 7/1/1
f 8/1/1 5/1/1 6/1/1
f 5/1/1 8/1/1 9/1/1
f 6/1/1 7/1/1 10/1/1
f 11/1/1 10/1/1 7/1/1
f 10/1/1 11/1/1 12/1/1
f 11/1/1 13/1/1 12/1/1
f 12/1/1 13/1/1 14/1/1
f 11/1/1 15/1/1 13/1/1
f 15/1/1 11/1/1 16/1/1
f 13/1/1 15/1/1 17/1/1
f 18/1/1 14/1/1 13/1/1
f 14/1/1 18/1/1 19/1/1
f 19/1/1 18/1/1 20/1/1
f 15/1/2 21/2/2 17/1/2
f 21/2/2 15/1/2 22/2/2
f 24/2/3 8/1/3 23/2/3
f 8/1/3 24/2/3 9/1/3
f 25/2/4 3/1/4 1/1/4
f 3/1/4 25/2/4 26/2/4
f 27/2/5 14/1/5 19/1/5
f 14/1/5 27/2/5 28/2/5
f 29/2/5 8/1/5 6/1/5
f 8/1/5 29/2/5 23/2/5
f 30/2/5 2/1/5 4/1/5
f 2/1/5 30/2/5 31/2/5
f 24/2/4 5/1/4 9/1/4
f 5/1/4 24/2/4 32/2/4
f 33/2/3 14/1/3 28/2/3
f 14/1/3 33/2/3 12/1/3
f 10/1/2 29/2/2 6/1/2
f 29/2/2 10/1/2 34/2/2
f 35/2/4 15/1/4 16/1/4
f 15/1/4 35/2/4 22/2/4
f 3/1/2 36/2/2 7/1/2
f 36/2/2 3/1/2 26/2/2
f 35/2/3 11/1/3 37/2/3
f 11/1/3 35/2/3 16/1/3
f 20/1/2 27/2/2 19/1/2
f 27/2/2 20/1/2 38/2/2
f 21/2/5 13/1/5 17/1/5
f 13/1/5 21/2/5 39/2/5
f 40/2/4 20/1/4 18/1/4
f 20/1/4 40/2/4 38/2/4
f 25/2/3 2/1/3 31/2/3
f 2/1/3 25/2/3 1/1/3
f 29/2/6 24/2/6 23/2/6
f 24/2/6 29/2/6 32/2/6
f 32/2/6 29/2/6 30/2/6
f 26/2/6 30/2/6 29/2/6
f 26/2/6 29/2/6 34/2/6
f 25/2/6 30/2/6 26/2/6
f 30/2/6 25/2/6 31/2/6
f 26/2/6 34/2/6 36/2/6
f 33/2/6 36/2/6 34/2/6
f 36/2/6 33/2/6 37/2/6
f 33/2/6 40/2/6 37/2/6
f 37/2/6 40/2/6 35/2/6
f 33/2/6 27/2/6 40/2/6
f 27/2/6 33/2/6 28/2/6
f 40/2/6 27/2/6 38/2/6
f 39/2/6 35/2/6 40/2/6
f 35/2/6 39/2/6 22/2/6
f 22/2/6 39/2/6 21/2/6
f 30/3/3 5/4/3 32/3/3
f 5/4/3 30/3/3 4/4/3
f 33/3/5 10/4/5 12/4/5
f 10/4/5 33/3/5 34/3/5
f 36/3/4 11/4/4 7/4/4
f 11/4/4 36/3/4 37/3/4
f 13/4/2 40/3/2 18/4/2
f 40/3/2 13/4/2 39/3/2

g tower-square-mid




usemtl colormap

f 3/1/1 2/1/1 1/1/1
f 2/1/1 3/1/1 4/1/1
f 4/1/1 3/1/1 5/1/1
f 6/1/1 5/1/1 3/1/1
f 6/1/1 3/1/1 7/1/1
f 8/1/1 5/1/1 6/1/1
f 5/1/1 8/1/1 9/1/1
f 6/1/1 7/1/1 10/1/1
f 11/1/1 10/1/1 7/1/1
f 10/1/1 11/1/1 12/1/1
f 11/1/1 13/1/1 12/1/1
f 12/1/1 13/1/1 14/1/1
f 11/1/1 15/1/1 13/1/1
f 15/1/1 11/1/1 16/1/1
f 13/1/1 15/1/1 17/1/1
f 18/1/1 14/1/1 13/1/1
f 14/1/1 18/1/1 19/1/1
f 19/1/1 18/1/1 20/1/1
f 15/1/2 21/2/2 17/1/2
f 21/2/2 15/1/2 22/2/2
f 24/2/3 8/1/3 23/2/3
f 8/1/3 24/2/3 9/1/3
f 25/2/4 3/1/4 1/1/4
f 3/1/4 25/2/4 26/2/4
f 27/2/5 14/1/5 19/1/5
f 14/1/5 27/2/5 28/2/5
f 29/2/5 8/1/5 6/1/5
f 8/1/5 29/2/5 23/2/5
f 30/2/5 2/1/5 4/1/5
f 2/1/5 30/2/5 31/2/5
f 24/2/4 5/1/4 9/1/4
f 5/1/4 24/2/4 32/2/4
f 33/2/3 14/1/3 28/2/3
f 14/1/3 33/2/3 12/1/3
f 10/1/2 29/2/2 6/1/2
f 29/2/2 10/1/2 34/2/2
f 35/2/4 15/1/4 16/1/4
f 15/1/4 35/2/4 22/2/4
f 3/1/2 36/2/2 7/1/2
f 36/2/2 3/1/2 26/2/2
f 35/2/3 11/1/3 37/2/3
f 11/1/3 35/2/3 16/1/3
f 20/1/2 27/2/2 19/1/2
f 27/2/2 20/1/2 38/2/2
f 21/2/5 13/1/5 17/1/5
f 13/1/5 21/2/5 39/2/5
f 40/2/4 20/1/4 18/1/4
f 20/1/4 40/2/4 38/2/4
f 25/2/3 2/1/3 31/2/3
f 2/1/3 25/2/3 1/1/3
f 29/2/6 24/2/6 23/2/6
f 24/2/6 29/2/6 32/2/6
f 32/2/6 29/2/6 30/2/6
f 26/2/6 30/2/6 29/2/6
f 26/2/6 29/2/6 34/2/6
f 25/2/6 30/2/6 26/2/6
f 30/2/6 25/2/6 31/2/6
f 26/2/6 34/2/6 36/2/6
f 33/2/6 36/2/6 34/2/6
f 36/2/6 33/2/6 37/2/6
f 33/2/6 40/2/6 37/2/6
f 37/2/6 40/2/6 35/2/6
f 33/2/6 27/2/6 40/2/6
f 27/2/6 33/2/6 28/2/6
f 40/2/6 27/2/6 38/2/6
f 39/2/6 35/2/6 40/2/6
f 35/2/6 39/2/6 22/2/6
f 22/2/6 39/2/6 21/2/6
f 30/3/3 5/4/3 32/3/3
f 5/4/3 30/3/3 4/4/3
f 33/3/5 10/4/5 12/4/5
f 10/4/5 33/3/5 34/3/5
f 36/3/4 11/4/4 7/4/4
f 11/4/4 36/3/4 37/3/4
f 13/4/2 40/3/2 18/4/2
f 40/3/2 13/4/2 39/3/2

