# Created by Kenney (www.kenney.nl)

mtllib tower-base.mtl

g tower-base

v -0.1294095 0 -0.4829629 1 1 1
v -7.219114E-16 0 -0.5 1 1 1
v -0.1294095 0.28 -0.4829629 1 1 1
v -7.219114E-16 0.28 -0.5 1 1 1
v 0.1294095 0 -0.4829629 1 1 1
v 0.1294095 0.28 -0.4829629 1 1 1
v 0.25 0 -0.4330127 1 1 1
v 0.25 0.28 -0.4330127 1 1 1
v 0.3535534 0 -0.3535534 1 1 1
v 0.3535534 0.28 -0.3535534 1 1 1
v 0.4330127 0.28 -0.25 1 1 1
v 0.4330127 0 -0.25 1 1 1
v 0.4829629 0.28 -0.1294095 1 1 1
v 0.4829629 0 -0.1294095 1 1 1
v 0.5 0.28 7.219114E-16 1 1 1
v 0.5 0 7.219114E-16 1 1 1
v 0.4829629 0.28 0.1294095 1 1 1
v 0.4829629 0 0.1294095 1 1 1
v 0.4330127 0.28 0.25 1 1 1
v 0.4330127 0 0.25 1 1 1
v 0.3535534 0.28 0.3535534 1 1 1
v 0.3535534 0 0.3535534 1 1 1
v 0.25 0 0.4330127 1 1 1
v 0.25 0.28 0.4330127 1 1 1
v 0.1294095 0 0.4829629 1 1 1
v 0.1294095 0.28 0.4829629 1 1 1
v -7.219114E-16 0 0.5 1 1 1
v -7.219114E-16 0.28 0.5 1 1 1
v -0.1294095 0 0.4829629 1 1 1
v -0.1294095 0.28 0.4829629 1 1 1
v -0.25 0 0.4330127 1 1 1
v -0.25 0.28 0.4330127 1 1 1
v -0.3535534 0 0.3535534 1 1 1
v -0.3535534 0.28 0.3535534 1 1 1
v -0.4330127 0 0.25 1 1 1
v -0.4330127 0.28 0.25 1 1 1
v -0.4829629 0 0.1294095 1 1 1
v -0.4829629 0.28 0.1294095 1 1 1
v -0.5 0 7.219114E-16 1 1 1
v -0.5 0.28 7.219114E-16 1 1 1
v -0.4829629 0 -0.1294095 1 1 1
v -0.4829629 0.28 -0.1294095 1 1 1
v -0.4330127 0 -0.25 1 1 1
v -0.4330127 0.28 -0.25 1 1 1
v -0.3535534 0 -0.3535534 1 1 1
v -0.3535534 0.28 -0.3535534 1 1 1
v -0.25 0 -0.4330127 1 1 1
v -0.25 0.28 -0.4330127 1 1 1
v -0.429837 0.45 0.1151745 1 1 1
v -0.3853813 0.45 0.2225 1 1 1
v -0.1151745 0.45 -0.429837 1 1 1
v 1.082867E-14 0.45 -0.445 1 1 1
v -0.3146625 0.45 0.3146625 1 1 1
v -0.2225 0.45 0.3853813 1 1 1
v -0.1151745 0.45 0.429837 1 1 1
v 1.082867E-14 0.45 0.445 1 1 1
v -0.3853813 0.45 -0.2225 1 1 1
v -0.429837 0.45 -0.1151745 1 1 1
v 0.1151745 0.45 0.429837 1 1 1
v 0.2225 0.45 0.3853813 1 1 1
v -0.2225 0.45 -0.3853813 1 1 1
v -0.3146625 0.45 -0.3146625 1 1 1
v -0.445 0.45 -7.941025E-15 1 1 1
v 0.429837 0.45 0.1151745 1 1 1
v 0.3853813 0.45 0.2225 1 1 1
v 0.3146625 0.45 0.3146625 1 1 1
v 0.445 0.45 -7.941025E-15 1 1 1
v 0.429837 0.45 -0.1151745 1 1 1
v 0.1151745 0.45 -0.429837 1 1 1
v 0.2225 0.45 -0.3853813 1 1 1
v 0.3146625 0.45 -0.3146625 1 1 1
v 0.3853813 0.45 -0.2225 1 1 1
v 0.2225 1.01 0.3853813 1 1 1
v 0.1151745 1.01 0.429837 1 1 1
v 0.2225 1.11 0.3853813 1 1 1
v 0.1151745 1.11 0.429837 1 1 1
v 0.3146625 1.01 0.3146625 1 1 1
v 0.3146625 1.11 0.3146625 1 1 1
v 0.3853813 1.11 0.2225 1 1 1
v 0.3853813 1.01 0.2225 1 1 1
v 0.429837 1.11 0.1151745 1 1 1
v 0.429837 1.01 0.1151745 1 1 1
v 0.429837 1.11 -0.1151745 1 1 1
v 0.429837 1.01 -0.1151745 1 1 1
v 0.445 1.11 -7.941025E-15 1 1 1
v 0.445 1.01 -7.941025E-15 1 1 1
v 0.3853813 1.11 -0.2225 1 1 1
v 0.3853813 1.01 -0.2225 1 1 1
v 0.3146625 1.11 -0.3146625 1 1 1
v 0.3146625 1.01 -0.3146625 1 1 1
v 0.2225 1.01 -0.3853813 1 1 1
v 0.2225 1.11 -0.3853813 1 1 1
v 0.1151745 1.01 -0.429837 1 1 1
v 0.1151745 1.11 -0.429837 1 1 1
v 1.082867E-14 1.01 -0.445 1 1 1
v 1.082867E-14 1.11 -0.445 1 1 1
v -0.2225 1.01 -0.3853813 1 1 1
v -0.1151745 1.01 -0.429837 1 1 1
v -0.2225 1.11 -0.3853813 1 1 1
v -0.1151745 1.11 -0.429837 1 1 1
v -0.445 1.01 -7.941025E-15 1 1 1
v -0.445 1.11 -7.941025E-15 1 1 1
v -0.429837 1.01 0.1151745 1 1 1
v -0.429837 1.11 0.1151745 1 1 1
v -0.3853813 1.01 0.2225 1 1 1
v -0.3853813 1.11 0.2225 1 1 1
v -0.3146625 1.01 0.3146625 1 1 1
v -0.3146625 1.11 0.3146625 1 1 1
v -0.2225 1.01 0.3853813 1 1 1
v -0.2225 1.11 0.3853813 1 1 1
v 1.082867E-14 1.01 0.445 1 1 1
v -0.1151745 1.01 0.429837 1 1 1
v 1.082867E-14 1.11 0.445 1 1 1
v -0.1151745 1.11 0.429837 1 1 1
v -0.3146625 1.01 -0.3146625 1 1 1
v -0.3146625 1.11 -0.3146625 1 1 1
v -0.3853813 1.01 -0.2225 1 1 1
v -0.3853813 1.11 -0.2225 1 1 1
v -0.429837 1.01 -0.1151745 1 1 1
v -0.429837 1.11 -0.1151745 1 1 1
v 0.5 1.11 -7.941025E-15 1 1 1
v 0.4829629 1.11 -0.1294095 1 1 1
v 0.4829629 1.11 0.1294095 1 1 1
v 0.4330127 1.11 0.25 1 1 1
v 0.4330127 1.11 -0.25 1 1 1
v 0.3535534 1.11 0.3535534 1 1 1
v 0.25 1.11 0.4330127 1 1 1
v 0.1294095 1.11 0.4829629 1 1 1
v 1.082867E-14 1.11 0.5 1 1 1
v 0.3535534 1.11 -0.3535534 1 1 1
v 0.25 1.11 -0.4330127 1 1 1
v 0.1294095 1.11 -0.4829629 1 1 1
v -0.1294095 1.11 0.4829629 1 1 1
v -0.25 1.11 0.4330127 1 1 1
v -0.3535534 1.11 0.3535534 1 1 1
v 1.082867E-14 1.11 -0.5 1 1 1
v -0.1294095 1.11 -0.4829629 1 1 1
v -0.25 1.11 -0.4330127 1 1 1
v -0.3535534 1.11 -0.3535534 1 1 1
v -0.4330127 1.11 0.25 1 1 1
v -0.4330127 1.11 -0.25 1 1 1
v -0.4829629 1.11 0.1294095 1 1 1
v -0.4829629 1.11 -0.1294095 1 1 1
v -0.5 1.11 -7.941025E-15 1 1 1
v 0.25 1.31 0.4330127 1 1 1
v 0.1294095 1.31 0.4829629 1 1 1
v 0.3535534 1.31 0.3535534 1 1 1
v 0.4330127 1.31 0.25 1 1 1
v 0.4829629 1.31 0.1294095 1 1 1
v 0.5 1.31 -7.941025E-15 1 1 1
v 0.4829629 1.31 -0.1294095 1 1 1
v 0.4330127 1.31 -0.25 1 1 1
v 0.3535534 1.31 -0.3535534 1 1 1
v 0.25 1.31 -0.4330127 1 1 1
v 0.1294095 1.31 -0.4829629 1 1 1
v 1.082867E-14 1.31 -0.5 1 1 1
v -0.1294095 1.31 -0.4829629 1 1 1
v -0.25 1.31 -0.4330127 1 1 1
v -0.3535534 1.31 -0.3535534 1 1 1
v -0.4330127 1.31 -0.25 1 1 1
v -0.4829629 1.31 -0.1294095 1 1 1
v -0.5 1.31 -7.941025E-15 1 1 1
v -0.4829629 1.31 0.1294095 1 1 1
v -0.4330127 1.31 0.25 1 1 1
v -0.3535534 1.31 0.3535534 1 1 1
v -0.25 1.31 0.4330127 1 1 1
v -0.1294095 1.31 0.4829629 1 1 1
v 1.082867E-14 1.31 0.5 1 1 1

vn -0.258819 0 -0.9659258
vn 0 0 -1
vn 0.258819 0 -0.9659258
vn 0.5 0 -0.8660254
vn 0.7071068 0 -0.7071068
vn 0.8660254 0 -0.5
vn 0.9659258 0 -0.258819
vn 1 0 0
vn 0.9659258 0 0.258819
vn 0.8660254 0 0.5
vn 0.7071068 0 0.7071068
vn 0.5 0 0.8660254
vn 0.258819 0 0.9659258
vn 0 0 1
vn -0.258819 0 0.9659258
vn -0.5 0 0.8660254
vn -0.7071068 0 0.7071068
vn -0.8660254 0 0.5
vn -0.9659258 0 0.258819
vn -1 0 0
vn -0.9659258 0 -0.258819
vn -0.8660254 0 -0.5
vn -0.7071068 0 -0.7071068
vn -0.5 0 -0.8660254
vn -0.9190249 0.3078203 0.246252
vn -0.8239751 0.3078203 0.4757222
vn -0.246252 0.3078203 -0.9190249
vn 0 0.3078203 -0.9514446
vn -0.6727729 0.3078203 0.6727729
vn -0.4757222 0.3078203 0.8239751
vn -0.246252 0.3078203 0.9190249
vn 0 0.3078203 0.9514446
vn -0.8239751 0.3078203 -0.4757222
vn -0.9190249 0.3078203 -0.246252
vn 0.246252 0.3078203 0.9190249
vn 0.4757222 0.3078203 0.8239751
vn -0.4757222 0.3078203 -0.8239751
vn -0.6727729 0.3078203 -0.6727729
vn -0.9514446 0.3078203 0
vn 0.9190249 0.3078203 0.246252
vn 0.8239751 0.3078203 0.4757222
vn 0.6727729 0.3078203 0.6727729
vn 0.9514446 0.3078203 0
vn 0.9190249 0.3078203 -0.246252
vn 0.246252 0.3078203 -0.9190249
vn 0.4757222 0.3078203 -0.8239751
vn 0.6727729 0.3078203 -0.6727729
vn 0.8239751 0.3078203 -0.4757222
vn 0 -1 0
vn 0 1 0

vt 0.84375 0.025
vt 0.84375 0.06774809
vt 0.84375 0.09370229
vt 0.96875 0.1791985
vt 0.84375 0.1944656
vt 0.84375 0.225
vt 0.96875 0.09370229
vt 0.96875 0.225

usemtl colormap

f 3/2/1 2/1/2 1/1/1
f 2/1/2 3/2/1 4/2/2
f 4/2/2 5/1/3 2/1/2
f 5/1/3 4/2/2 6/2/3
f 6/2/3 7/1/4 5/1/3
f 7/1/4 6/2/3 8/2/4
f 8/2/4 9/1/5 7/1/4
f 9/1/5 8/2/4 10/2/5
f 11/2/6 9/1/5 10/2/5
f 9/1/5 11/2/6 12/1/6
f 13/2/7 12/1/6 11/2/6
f 12/1/6 13/2/7 14/1/7
f 15/2/8 14/1/7 13/2/7
f 14/1/7 15/2/8 16/1/8
f 17/2/9 16/1/8 15/2/8
f 16/1/8 17/2/9 18/1/9
f 19/2/10 18/1/9 17/2/9
f 18/1/9 19/2/10 20/1/10
f 21/2/11 20/1/10 19/2/10
f 20/1/10 21/2/11 22/1/11
f 21/2/11 23/1/12 22/1/11
f 23/1/12 21/2/11 24/2/12
f 24/2/12 25/1/13 23/1/12
f 25/1/13 24/2/12 26/2/13
f 26/2/13 27/1/14 25/1/13
f 27/1/14 26/2/13 28/2/14
f 28/2/14 29/1/15 27/1/14
f 29/1/15 28/2/14 30/2/15
f 30/2/15 31/1/16 29/1/15
f 31/1/16 30/2/15 32/2/16
f 32/2/16 33/1/17 31/1/16
f 33/1/17 32/2/16 34/2/17
f 33/1/17 36/2/18 35/1/18
f 36/2/18 33/1/17 34/2/17
f 35/1/18 38/2/19 37/1/19
f 38/2/19 35/1/18 36/2/18
f 37/1/19 40/2/20 39/1/20
f 40/2/20 37/1/19 38/2/19
f 39/1/20 42/2/21 41/1/21
f 42/2/21 39/1/20 40/2/20
f 41/1/21 44/2/22 43/1/22
f 44/2/22 41/1/21 42/2/21
f 43/1/22 46/2/23 45/1/23
f 46/2/23 43/1/22 44/2/22
f 46/2/23 47/1/24 45/1/23
f 47/1/24 46/2/23 48/2/24
f 48/2/24 1/1/1 47/1/24
f 1/1/1 48/2/24 3/2/1
f 38/2/25 50/3/26 49/3/25
f 50/3/26 38/2/25 36/2/26
f 51/3/27 4/2/28 3/2/27
f 4/2/28 51/3/27 52/3/28
f 36/2/26 53/3/29 50/3/26
f 53/3/29 36/2/26 34/2/29
f 54/3/30 34/2/29 32/2/30
f 34/2/29 54/3/30 53/3/29
f 55/3/31 32/2/30 30/2/31
f 32/2/30 55/3/31 54/3/30
f 56/3/32 30/2/31 28/2/32
f 30/2/31 56/3/32 55/3/31
f 42/2/34 57/3/33 44/2/33
f 57/3/33 42/2/34 58/3/34
f 59/3/35 28/2/32 26/2/35
f 28/2/32 59/3/35 56/3/32
f 60/3/36 26/2/35 24/2/36
f 26/2/35 60/3/36 59/3/35
f 61/3/37 3/2/27 48/2/37
f 3/2/27 61/3/37 51/3/27
f 62/3/38 48/2/37 46/2/38
f 48/2/37 62/3/38 61/3/37
f 44/2/33 62/3/38 46/2/38
f 62/3/38 44/2/33 57/3/33
f 40/2/39 58/3/34 42/2/34
f 58/3/34 40/2/39 63/3/39
f 40/2/39 49/3/25 63/3/39
f 49/3/25 40/2/39 38/2/25
f 65/3/41 17/2/40 64/3/40
f 17/2/40 65/3/41 19/2/41
f 66/3/42 24/2/36 21/2/42
f 24/2/36 66/3/42 60/3/36
f 64/3/40 15/2/43 67/3/43
f 15/2/43 64/3/40 17/2/40
f 68/3/44 15/2/43 13/2/44
f 15/2/43 68/3/44 67/3/43
f 66/3/42 19/2/41 65/3/41
f 19/2/41 66/3/42 21/2/42
f 69/3/45 8/2/46 6/2/45
f 8/2/46 69/3/45 70/3/46
f 71/3/47 11/2/48 10/2/47
f 11/2/48 71/3/47 72/3/48
f 70/3/46 10/2/47 8/2/46
f 10/2/47 70/3/46 71/3/47
f 52/3/28 6/2/45 4/2/28
f 6/2/45 52/3/28 69/3/45
f 72/3/48 13/2/44 11/2/48
f 13/2/44 72/3/48 68/3/44
f 75/5/12 74/4/13 73/4/12
f 74/4/13 75/5/12 76/5/13
f 78/5/11 73/4/12 77/4/11
f 73/4/12 78/5/11 75/5/12
f 78/5/11 80/4/10 79/5/10
f 80/4/10 78/5/11 77/4/11
f 79/5/10 82/4/9 81/5/9
f 82/4/9 79/5/10 80/4/10
f 85/5/8 84/4/7 83/5/7
f 84/4/7 85/5/8 86/4/8
f 83/5/7 88/4/6 87/5/6
f 88/4/6 83/5/7 84/4/7
f 87/5/6 90/4/5 89/5/5
f 90/4/5 87/5/6 88/4/6
f 92/5/4 90/4/5 91/4/4
f 90/4/5 92/5/4 89/5/5
f 94/5/3 91/4/4 93/4/3
f 91/4/4 94/5/3 92/5/4
f 96/5/2 93/4/3 95/4/2
f 93/4/3 96/5/2 94/5/3
f 81/5/9 86/4/8 85/5/8
f 86/4/8 81/5/9 82/4/9
f 99/5/24 98/4/1 97/4/24
f 98/4/1 99/5/24 100/5/1
f 103/4/19 102/5/20 101/4/20
f 102/5/20 103/4/19 104/5/19
f 105/4/18 104/5/19 103/4/19
f 104/5/19 105/4/18 106/5/18
f 107/4/17 106/5/18 105/4/18
f 106/5/18 107/4/17 108/5/17
f 110/5/16 107/4/17 109/4/16
f 107/4/17 110/5/16 108/5/17
f 113/5/14 112/4/15 111/4/14
f 112/4/15 113/5/14 114/5/15
f 114/5/15 109/4/16 112/4/15
f 109/4/16 114/5/15 110/5/16
f 76/5/13 111/4/14 74/4/13
f 111/4/14 76/5/13 113/5/14
f 116/5/23 97/4/24 115/4/23
f 97/4/24 116/5/23 99/5/24
f 119/4/21 118/5/22 117/4/22
f 118/5/22 119/4/21 120/5/21
f 117/4/22 116/5/23 115/4/23
f 116/5/23 117/4/22 118/5/22
f 100/5/1 95/4/2 98/4/1
f 95/4/2 100/5/1 96/5/2
f 101/4/20 120/5/21 119/4/21
f 120/5/21 101/4/20 102/5/20
f 123/5/49 122/5/49 121/5/49
f 122/5/49 123/5/49 124/5/49
f 122/5/49 124/5/49 85/5/49
f 85/5/49 125/5/49 122/5/49
f 85/5/49 124/5/49 81/5/49
f 125/5/49 85/5/49 83/5/49
f 81/5/49 124/5/49 126/5/49
f 81/5/49 126/5/49 79/5/49
f 79/5/49 126/5/49 78/5/49
f 78/5/49 126/5/49 127/5/49
f 78/5/49 127/5/49 75/5/49
f 75/5/49 127/5/49 128/5/49
f 75/5/49 128/5/49 76/5/49
f 76/5/49 128/5/49 129/5/49
f 76/5/49 129/5/49 113/5/49
f 125/5/49 83/5/49 130/5/49
f 130/5/49 83/5/49 87/5/49
f 130/5/49 87/5/49 89/5/49
f 130/5/49 89/5/49 131/5/49
f 131/5/49 89/5/49 92/5/49
f 131/5/49 92/5/49 132/5/49
f 132/5/49 92/5/49 94/5/49
f 113/5/49 129/5/49 133/5/49
f 113/5/49 133/5/49 114/5/49
f 114/5/49 133/5/49 110/5/49
f 110/5/49 133/5/49 134/5/49
f 110/5/49 134/5/49 108/5/49
f 108/5/49 134/5/49 135/5/49
f 108/5/49 135/5/49 106/5/49
f 132/5/49 94/5/49 136/5/49
f 136/5/49 94/5/49 96/5/49
f 136/5/49 96/5/49 100/5/49
f 136/5/49 100/5/49 137/5/49
f 137/5/49 100/5/49 99/5/49
f 137/5/49 99/5/49 138/5/49
f 138/5/49 99/5/49 116/5/49
f 138/5/49 116/5/49 139/5/49
f 139/5/49 116/5/49 118/5/49
f 106/5/49 135/5/49 140/5/49
f 106/5/49 140/5/49 104/5/49
f 139/5/49 118/5/49 141/5/49
f 141/5/49 118/5/49 120/5/49
f 104/5/49 140/5/49 102/5/49
f 141/5/49 120/5/49 102/5/49
f 102/5/49 140/5/49 142/5/49
f 141/5/49 102/5/49 143/5/49
f 143/5/49 102/5/49 142/5/49
f 143/5/49 142/5/49 144/5/49
f 145/6/12 128/5/13 127/5/12
f 128/5/13 145/6/12 146/6/13
f 147/6/11 127/5/12 126/5/11
f 127/5/12 147/6/11 145/6/12
f 147/6/11 124/5/10 148/6/10
f 124/5/10 147/6/11 126/5/11
f 148/6/10 123/5/9 149/6/9
f 123/5/9 148/6/10 124/5/10
f 149/6/9 121/5/8 150/6/8
f 121/5/8 149/6/9 123/5/9
f 150/6/8 122/5/7 151/6/7
f 122/5/7 150/6/8 121/5/8
f 151/6/7 125/5/6 152/6/6
f 125/5/6 151/6/7 122/5/7
f 152/6/6 130/5/5 153/6/5
f 130/5/5 152/6/6 125/5/6
f 154/6/4 130/5/5 131/5/4
f 130/5/5 154/6/4 153/6/5
f 155/6/3 131/5/4 132/5/3
f 131/5/4 155/6/3 154/6/4
f 156/6/2 132/5/3 136/5/2
f 132/5/3 156/6/2 155/6/3
f 157/6/1 136/5/2 137/5/1
f 136/5/2 157/6/1 156/6/2
f 158/6/24 137/5/1 138/5/24
f 137/5/1 158/6/24 157/6/1
f 159/6/23 138/5/24 139/5/23
f 138/5/24 159/6/23 158/6/24
f 141/5/22 159/6/23 139/5/23
f 159/6/23 141/5/22 160/6/22
f 143/5/21 160/6/22 141/5/22
f 160/6/22 143/5/21 161/6/21
f 144/5/20 161/6/21 143/5/21
f 161/6/21 144/5/20 162/6/20
f 142/5/19 162/6/20 144/5/20
f 162/6/20 142/5/19 163/6/19
f 140/5/18 163/6/19 142/5/19
f 163/6/19 140/5/18 164/6/18
f 135/5/17 164/6/18 140/5/18
f 164/6/18 135/5/17 165/6/17
f 166/6/16 135/5/17 134/5/16
f 135/5/17 166/6/16 165/6/17
f 167/6/15 134/5/16 133/5/15
f 134/5/16 167/6/15 166/6/16
f 168/6/14 133/5/15 129/5/14
f 133/5/15 168/6/14 167/6/15
f 146/6/13 129/5/14 128/5/13
f 129/5/14 146/6/13 168/6/14
f 18/1/49 14/1/49 16/1/49
f 14/1/49 18/1/49 20/1/49
f 14/1/49 20/1/49 12/1/49
f 12/1/49 20/1/49 22/1/49
f 12/1/49 22/1/49 9/1/49
f 9/1/49 22/1/49 23/1/49
f 9/1/49 23/1/49 7/1/49
f 7/1/49 23/1/49 5/1/49
f 5/1/49 23/1/49 25/1/49
f 5/1/49 25/1/49 27/1/49
f 5/1/49 27/1/49 2/1/49
f 2/1/49 27/1/49 29/1/49
f 2/1/49 29/1/49 1/1/49
f 1/1/49 29/1/49 31/1/49
f 1/1/49 31/1/49 47/1/49
f 47/1/49 31/1/49 45/1/49
f 45/1/49 31/1/49 33/1/49
f 45/1/49 33/1/49 43/1/49
f 43/1/49 33/1/49 35/1/49
f 43/1/49 35/1/49 37/1/49
f 43/1/49 37/1/49 41/1/49
f 41/1/49 37/1/49 39/1/49
f 98/4/1 52/7/2 51/7/1
f 52/7/2 98/4/1 95/4/2
f 97/4/24 51/7/1 61/7/24
f 51/7/1 97/4/24 98/4/1
f 115/4/23 61/7/24 62/7/23
f 61/7/24 115/4/23 97/4/24
f 57/7/22 115/4/23 62/7/23
f 115/4/23 57/7/22 117/4/22
f 58/7/21 117/4/22 57/7/22
f 117/4/22 58/7/21 119/4/21
f 63/7/20 119/4/21 58/7/21
f 119/4/21 63/7/20 101/4/20
f 49/7/19 101/4/20 63/7/20
f 101/4/20 49/7/19 103/4/19
f 50/7/18 103/4/19 49/7/19
f 103/4/19 50/7/18 105/4/18
f 53/7/17 105/4/18 50/7/18
f 105/4/18 53/7/17 107/4/17
f 109/4/16 53/7/17 54/7/16
f 53/7/17 109/4/16 107/4/17
f 112/4/15 54/7/16 55/7/15
f 54/7/16 112/4/15 109/4/16
f 111/4/14 55/7/15 56/7/14
f 55/7/15 111/4/14 112/4/15
f 74/4/13 56/7/14 59/7/13
f 56/7/14 74/4/13 111/4/14
f 73/4/12 59/7/13 60/7/12
f 59/7/13 73/4/12 74/4/13
f 77/4/11 60/7/12 66/7/11
f 60/7/12 77/4/11 73/4/12
f 77/4/11 65/7/10 80/4/10
f 65/7/10 77/4/11 66/7/11
f 80/4/10 64/7/9 82/4/9
f 64/7/9 80/4/10 65/7/10
f 82/4/9 67/7/8 86/4/8
f 67/7/8 82/4/9 64/7/9
f 86/4/8 68/7/7 84/4/7
f 68/7/7 86/4/8 67/7/8
f 84/4/7 72/7/6 88/4/6
f 72/7/6 84/4/7 68/7/7
f 88/4/6 71/7/5 90/4/5
f 71/7/5 88/4/6 72/7/6
f 91/4/4 71/7/5 70/7/4
f 71/7/5 91/4/4 90/4/5
f 93/4/3 70/7/4 69/7/3
f 70/7/4 93/4/3 91/4/4
f 95/4/2 69/7/3 52/7/2
f 69/7/3 95/4/2 93/4/3
f 151/8/50 149/8/50 150/8/50
f 149/8/50 151/8/50 152/8/50
f 149/8/50 152/8/50 148/8/50
f 148/8/50 152/8/50 153/8/50
f 148/8/50 153/8/50 147/8/50
f 147/8/50 153/8/50 154/8/50
f 147/8/50 154/8/50 145/8/50
f 145/8/50 154/8/50 155/8/50
f 145/8/50 155/8/50 146/8/50
f 146/8/50 155/8/50 168/8/50
f 168/8/50 155/8/50 156/8/50
f 168/8/50 156/8/50 157/8/50
f 168/8/50 157/8/50 167/8/50
f 167/8/50 157/8/50 158/8/50
f 167/8/50 158/8/50 166/8/50
f 166/8/50 158/8/50 159/8/50
f 166/8/50 159/8/50 165/8/50
f 165/8/50 159/8/50 164/8/50
f 164/8/50 159/8/50 160/8/50
f 164/8/50 160/8/50 161/8/50
f 164/8/50 161/8/50 163/8/50
f 163/8/50 161/8/50 162/8/50

g tower-base




usemtl colormap

f 3/2/1 2/1/2 1/1/1
f 2/1/2 3/2/1 4/2/2
f 4/2/2 5/1/3 2/1/2
f 5/1/3 4/2/2 6/2/3
f 6/2/3 7/1/4 5/1/3
f 7/1/4 6/2/3 8/2/4
f 8/2/4 9/1/5 7/1/4
f 9/1/5 8/2/4 10/2/5
f 11/2/6 9/1/5 10/2/5
f 9/1/5 11/2/6 12/1/6
f 13/2/7 12/1/6 11/2/6
f 12/1/6 13/2/7 14/1/7
f 15/2/8 14/1/7 13/2/7
f 14/1/7 15/2/8 16/1/8
f 17/2/9 16/1/8 15/2/8
f 16/1/8 17/2/9 18/1/9
f 19/2/10 18/1/9 17/2/9
f 18/1/9 19/2/10 20/1/10
f 21/2/11 20/1/10 19/2/10
f 20/1/10 21/2/11 22/1/11
f 21/2/11 23/1/12 22/1/11
f 23/1/12 21/2/11 24/2/12
f 24/2/12 25/1/13 23/1/12
f 25/1/13 24/2/12 26/2/13
f 26/2/13 27/1/14 25/1/13
f 27/1/14 26/2/13 28/2/14
f 28/2/14 29/1/15 27/1/14
f 29/1/15 28/2/14 30/2/15
f 30/2/15 31/1/16 29/1/15
f 31/1/16 30/2/15 32/2/16
f 32/2/16 33/1/17 31/1/16
f 33/1/17 32/2/16 34/2/17
f 33/1/17 36/2/18 35/1/18
f 36/2/18 33/1/17 34/2/17
f 35/1/18 38/2/19 37/1/19
f 38/2/19 35/1/18 36/2/18
f 37/1/19 40/2/20 39/1/20
f 40/2/20 37/1/19 38/2/19
f 39/1/20 42/2/21 41/1/21
f 42/2/21 39/1/20 40/2/20
f 41/1/21 44/2/22 43/1/22
f 44/2/22 41/1/21 42/2/21
f 43/1/22 46/2/23 45/1/23
f 46/2/23 43/1/22 44/2/22
f 46/2/23 47/1/24 45/1/23
f 47/1/24 46/2/23 48/2/24
f 48/2/24 1/1/1 47/1/24
f 1/1/1 48/2/24 3/2/1
f 38/2/25 50/3/26 49/3/25
f 50/3/26 38/2/25 36/2/26
f 51/3/27 4/2/28 3/2/27
f 4/2/28 51/3/27 52/3/28
f 36/2/26 53/3/29 50/3/26
f 53/3/29 36/2/26 34/2/29
f 54/3/30 34/2/29 32/2/30
f 34/2/29 54/3/30 53/3/29
f 55/3/31 32/2/30 30/2/31
f 32/2/30 55/3/31 54/3/30
f 56/3/32 30/2/31 28/2/32
f 30/2/31 56/3/32 55/3/31
f 42/2/34 57/3/33 44/2/33
f 57/3/33 42/2/34 58/3/34
f 59/3/35 28/2/32 26/2/35
f 28/2/32 59/3/35 56/3/32
f 60/3/36 26/2/35 24/2/36
f 26/2/35 60/3/36 59/3/35
f 61/3/37 3/2/27 48/2/37
f 3/2/27 61/3/37 51/3/27
f 62/3/38 48/2/37 46/2/38
f 48/2/37 62/3/38 61/3/37
f 44/2/33 62/3/38 46/2/38
f 62/3/38 44/2/33 57/3/33
f 40/2/39 58/3/34 42/2/34
f 58/3/34 40/2/39 63/3/39
f 40/2/39 49/3/25 63/3/39
f 49/3/25 40/2/39 38/2/25
f 65/3/41 17/2/40 64/3/40
f 17/2/40 65/3/41 19/2/41
f 66/3/42 24/2/36 21/2/42
f 24/2/36 66/3/42 60/3/36
f 64/3/40 15/2/43 67/3/43
f 15/2/43 64/3/40 17/2/40
f 68/3/44 15/2/43 13/2/44
f 15/2/43 68/3/44 67/3/43
f 66/3/42 19/2/41 65/3/41
f 19/2/41 66/3/42 21/2/42
f 69/3/45 8/2/46 6/2/45
f 8/2/46 69/3/45 70/3/46
f 71/3/47 11/2/48 10/2/47
f 11/2/48 71/3/47 72/3/48
f 70/3/46 10/2/47 8/2/46
f 10/2/47 70/3/46 71/3/47
f 52/3/28 6/2/45 4/2/28
f 6/2/45 52/3/28 69/3/45
f 72/3/48 13/2/44 11/2/48
f 13/2/44 72/3/48 68/3/44
f 75/5/12 74/4/13 73/4/12
f 74/4/13 75/5/12 76/5/13
f 78/5/11 73/4/12 77/4/11
f 73/4/12 78/5/11 75/5/12
f 78/5/11 80/4/10 79/5/10
f 80/4/10 78/5/11 77/4/11
f 79/5/10 82/4/9 81/5/9
f 82/4/9 79/5/10 80/4/10
f 85/5/8 84/4/7 83/5/7
f 84/4/7 85/5/8 86/4/8
f 83/5/7 88/4/6 87/5/6
f 88/4/6 83/5/7 84/4/7
f 87/5/6 90/4/5 89/5/5
f 90/4/5 87/5/6 88/4/6
f 92/5/4 90/4/5 91/4/4
f 90/4/5 92/5/4 89/5/5
f 94/5/3 91/4/4 93/4/3
f 91/4/4 94/5/3 92/5/4
f 96/5/2 93/4/3 95/4/2
f 93/4/3 96/5/2 94/5/3
f 81/5/9 86/4/8 85/5/8
f 86/4/8 81/5/9 82/4/9
f 99/5/24 98/4/1 97/4/24
f 98/4/1 99/5/24 100/5/1
f 103/4/19 102/5/20 101/4/20
f 102/5/20 103/4/19 104/5/19
f 105/4/18 104/5/19 103/4/19
f 104/5/19 105/4/18 106/5/18
f 107/4/17 106/5/18 105/4/18
f 106/5/18 107/4/17 108/5/17
f 110/5/16 107/4/17 109/4/16
f 107/4/17 110/5/16 108/5/17
f 113/5/14 112/4/15 111/4/14
f 112/4/15 113/5/14 114/5/15
f 114/5/15 109/4/16 112/4/15
f 109/4/16 114/5/15 110/5/16
f 76/5/13 111/4/14 74/4/13
f 111/4/14 76/5/13 113/5/14
f 116/5/23 97/4/24 115/4/23
f 97/4/24 116/5/23 99/5/24
f 119/4/21 118/5/22 117/4/22
f 118/5/22 119/4/21 120/5/21
f 117/4/22 116/5/23 115/4/23
f 116/5/23 117/4/22 118/5/22
f 100/5/1 95/4/2 98/4/1
f 95/4/2 100/5/1 96/5/2
f 101/4/20 120/5/21 119/4/21
f 120/5/21 101/4/20 102/5/20
f 123/5/49 122/5/49 121/5/49
f 122/5/49 123/5/49 124/5/49
f 122/5/49 124/5/49 85/5/49
f 85/5/49 125/5/49 122/5/49
f 85/5/49 124/5/49 81/5/49
f 125/5/49 85/5/49 83/5/49
f 81/5/49 124/5/49 126/5/49
f 81/5/49 126/5/49 79/5/49
f 79/5/49 126/5/49 78/5/49
f 78/5/49 126/5/49 127/5/49
f 78/5/49 127/5/49 75/5/49
f 75/5/49 127/5/49 128/5/49
f 75/5/49 128/5/49 76/5/49
f 76/5/49 128/5/49 129/5/49
f 76/5/49 129/5/49 113/5/49
f 125/5/49 83/5/49 130/5/49
f 130/5/49 83/5/49 87/5/49
f 130/5/49 87/5/49 89/5/49
f 130/5/49 89/5/49 131/5/49
f 131/5/49 89/5/49 92/5/49
f 131/5/49 92/5/49 132/5/49
f 132/5/49 92/5/49 94/5/49
f 113/5/49 129/5/49 133/5/49
f 113/5/49 133/5/49 114/5/49
f 114/5/49 133/5/49 110/5/49
f 110/5/49 133/5/49 134/5/49
f 110/5/49 134/5/49 108/5/49
f 108/5/49 134/5/49 135/5/49
f 108/5/49 135/5/49 106/5/49
f 132/5/49 94/5/49 136/5/49
f 136/5/49 94/5/49 96/5/49
f 136/5/49 96/5/49 100/5/49
f 136/5/49 100/5/49 137/5/49
f 137/5/49 100/5/49 99/5/49
f 137/5/49 99/5/49 138/5/49
f 138/5/49 99/5/49 116/5/49
f 138/5/49 116/5/49 139/5/49
f 139/5/49 116/5/49 118/5/49
f 106/5/49 135/5/49 140/5/49
f 106/5/49 140/5/49 104/5/49
f 139/5/49 118/5/49 141/5/49
f 141/5/49 118/5/49 120/5/49
f 104/5/49 140/5/49 102/5/49
f 141/5/49 120/5/49 102/5/49
f 102/5/49 140/5/49 142/5/49
f 141/5/49 102/5/49 143/5/49
f 143/5/49 102/5/49 142/5/49
f 143/5/49 142/5/49 144/5/49
f 145/6/12 128/5/13 127/5/12
f 128/5/13 145/6/12 146/6/13
f 147/6/11 127/5/12 126/5/11
f 127/5/12 147/6/11 145/6/12
f 147/6/11 124/5/10 148/6/10
f 124/5/10 147/6/11 126/5/11
f 148/6/10 123/5/9 149/6/9
f 123/5/9 148/6/10 124/5/10
f 149/6/9 121/5/8 150/6/8
f 121/5/8 149/6/9 123/5/9
f 150/6/8 122/5/7 151/6/7
f 122/5/7 150/6/8 121/5/8
f 151/6/7 125/5/6 152/6/6
f 125/5/6 151/6/7 122/5/7
f 152/6/6 130/5/5 153/6/5
f 130/5/5 152/6/6 125/5/6
f 154/6/4 130/5/5 131/5/4
f 130/5/5 154/6/4 153/6/5
f 155/6/3 131/5/4 132/5/3
f 131/5/4 155/6/3 154/6/4
f 156/6/2 132/5/3 136/5/2
f 132/5/3 156/6/2 155/6/3
f 157/6/1 136/5/2 137/5/1
f 136/5/2 157/6/1 156/6/2
f 158/6/24 137/5/1 138/5/24
f 137/5/1 158/6/24 157/6/1
f 159/6/23 138/5/24 139/5/23
f 138/5/24 159/6/23 158/6/24
f 141/5/22 159/6/23 139/5/23
f 159/6/23 141/5/22 160/6/22
f 143/5/21 160/6/22 141/5/22
f 160/6/22 143/5/21 161/6/21
f 144/5/20 161/6/21 143/5/21
f 161/6/21 144/5/20 162/6/20
f 142/5/19 162/6/20 144/5/20
f 162/6/20 142/5/19 163/6/19
f 140/5/18 163/6/19 142/5/19
f 163/6/19 140/5/18 164/6/18
f 135/5/17 164/6/18 140/5/18
f 164/6/18 135/5/17 165/6/17
f 166/6/16 135/5/17 134/5/16
f 135/5/17 166/6/16 165/6/17
f 167/6/15 134/5/16 133/5/15
f 134/5/16 167/6/15 166/6/16
f 168/6/14 133/5/15 129/5/14
f 133/5/15 168/6/14 167/6/15
f 146/6/13 129/5/14 128/5/13
f 129/5/14 146/6/13 168/6/14
f 18/1/49 14/1/49 16/1/49
f 14/1/49 18/1/49 20/1/49
f 14/1/49 20/1/49 12/1/49
f 12/1/49 20/1/49 22/1/49
f 12/1/49 22/1/49 9/1/49
f 9/1/49 22/1/49 23/1/49
f 9/1/49 23/1/49 7/1/49
f 7/1/49 23/1/49 5/1/49
f 5/1/49 23/1/49 25/1/49
f 5/1/49 25/1/49 27/1/49
f 5/1/49 27/1/49 2/1/49
f 2/1/49 27/1/49 29/1/49
f 2/1/49 29/1/49 1/1/49
f 1/1/49 29/1/49 31/1/49
f 1/1/49 31/1/49 47/1/49
f 47/1/49 31/1/49 45/1/49
f 45/1/49 31/1/49 33/1/49
f 45/1/49 33/1/49 43/1/49
f 43/1/49 33/1/49 35/1/49
f 43/1/49 35/1/49 37/1/49
f 43/1/49 37/1/49 41/1/49
f 41/1/49 37/1/49 39/1/49
f 98/4/1 52/7/2 51/7/1
f 52/7/2 98/4/1 95/4/2
f 97/4/24 51/7/1 61/7/24
f 51/7/1 97/4/24 98/4/1
f 115/4/23 61/7/24 62/7/23
f 61/7/24 115/4/23 97/4/24
f 57/7/22 115/4/23 62/7/23
f 115/4/23 57/7/22 117/4/22
f 58/7/21 117/4/22 57/7/22
f 117/4/22 58/7/21 119/4/21
f 63/7/20 119/4/21 58/7/21
f 119/4/21 63/7/20 101/4/20
f 49/7/19 101/4/20 63/7/20
f 101/4/20 49/7/19 103/4/19
f 50/7/18 103/4/19 49/7/19
f 103/4/19 50/7/18 105/4/18
f 53/7/17 105/4/18 50/7/18
f 105/4/18 53/7/17 107/4/17
f 109/4/16 53/7/17 54/7/16
f 53/7/17 109/4/16 107/4/17
f 112/4/15 54/7/16 55/7/15
f 54/7/16 112/4/15 109/4/16
f 111/4/14 55/7/15 56/7/14
f 55/7/15 111/4/14 112/4/15
f 74/4/13 56/7/14 59/7/13
f 56/7/14 74/4/13 111/4/14
f 73/4/12 59/7/13 60/7/12
f 59/7/13 73/4/12 74/4/13
f 77/4/11 60/7/12 66/7/11
f 60/7/12 77/4/11 73/4/12
f 77/4/11 65/7/10 80/4/10
f 65/7/10 77/4/11 66/7/11
f 80/4/10 64/7/9 82/4/9
f 64/7/9 80/4/10 65/7/10
f 82/4/9 67/7/8 86/4/8
f 67/7/8 82/4/9 64/7/9
f 86/4/8 68/7/7 84/4/7
f 68/7/7 86/4/8 67/7/8
f 84/4/7 72/7/6 88/4/6
f 72/7/6 84/4/7 68/7/7
f 88/4/6 71/7/5 90/4/5
f 71/7/5 88/4/6 72/7/6
f 91/4/4 71/7/5 70/7/4
f 71/7/5 91/4/4 90/4/5
f 93/4/3 70/7/4 69/7/3
f 70/7/4 93/4/3 91/4/4
f 95/4/2 69/7/3 52/7/2
f 69/7/3 95/4/2 93/4/3
f 151/8/50 149/8/50 150/8/50
f 149/8/50 151/8/50 152/8/50
f 149/8/50 152/8/50 148/8/50
f 148/8/50 152/8/50 153/8/50
f 148/8/50 153/8/50 147/8/50
f 147/8/50 153/8/50 154/8/50
f 147/8/50 154/8/50 145/8/50
f 145/8/50 154/8/50 155/8/50
f 145/8/50 155/8/50 146/8/50
f 146/8/50 155/8/50 168/8/50
f 168/8/50 155/8/50 156/8/50
f 168/8/50 156/8/50 157/8/50
f 168/8/50 157/8/50 167/8/50
f 167/8/50 157/8/50 158/8/50
f 167/8/50 158/8/50 166/8/50
f 166/8/50 158/8/50 159/8/50
f 166/8/50 159/8/50 165/8/50
f 165/8/50 159/8/50 164/8/50
f 164/8/50 159/8/50 160/8/50
f 164/8/50 160/8/50 161/8/50
f 164/8/50 161/8/50 163/8/50
f 163/8/50 161/8/50 162/8/50

