# Created by Kenney (www.kenney.nl)

mtllib wall-corner.mtl

g wall-corner

v -0.5 0.28 0.5 1 1 1
v -0.5 0.45 0.465 1 1 1
v -0.465 0.45 0.5 1 1 1
v -0.465 1.01 0.5 1 1 1
v -0.5 1.01 0.465 1 1 1
v -0.5 1.11 0.5 1 1 1
v -0.5 0 -0.5 1 1 1
v 0.5 5.414336E-16 -0.5 1 1 1
v -0.5 0.28 -0.5 1 1 1
v 0.5 0.28 -0.5 1 1 1
v 0.5 5.414336E-16 0.5 1 1 1
v -0.5 5.414336E-16 0.5 1 1 1
v 0.5 0.28 0.5 1 1 1
v 0.465 0.45 0.5 1 1 1
v 0.465 1.01 0.5 1 1 1
v 0.5 1.11 0.5 1 1 1
v -0.2908356 1.18 0.5 1 1 1
v -0.5 1.265 0.5 1 1 1
v -0.3804951 1.22 0.5 1 1 1
v -0.3804951 1.265 0.5 1 1 1
v -0.2908356 1.22 0.5 1 1 1
v 0.2908356 1.18 0.5 1 1 1
v 0.5 1.31 0.5 1 1 1
v 0.3304951 1.22 0.5 1 1 1
v 0.3304951 1.31 0.5 1 1 1
v 0.2908356 1.22 0.5 1 1 1
v 0.5 1.265 0 1 1 1
v 0.3804951 1.265 0 1 1 1
v 0.5 1.31 0 1 1 1
v 0.3304951 1.31 0 1 1 1
v 0.3304951 1.22 0 1 1 1
v 0.3804951 1.22 0 1 1 1
v 0.3304951 1.22 -0.25 1 1 1
v 0.3304951 1.31 -0.25 1 1 1
v -0.5 1.18 0.2908356 1 1 1
v -0.2908356 1.18 0.2908356 1 1 1
v -0.5 1.22 0.2908356 1 1 1
v -0.2908356 1.22 0.2908356 1 1 1
v -0.3804951 1.265 0.3804951 1 1 1
v -0.5 1.265 0.3804951 1 1 1
v -0.3804951 1.22 0.3804951 1 1 1
v -0.5 1.22 0.3804951 1 1 1
v -0.5 1.22 -0.3304951 1 1 1
v -0.5 1.31 -0.3304951 1 1 1
v -0.25 1.22 -0.3304951 1 1 1
v -0.25 1.31 -0.3304951 1 1 1
v -0.25 1.31 -0.5 1 1 1
v -0.25 1.265 -0.5 1 1 1
v -0.25 1.265 -0.3804951 1 1 1
v -0.25 1.22 -0.3804951 1 1 1
v -0.5 1.31 -0.5 1 1 1
v 0.3304951 1.22 0.25 1 1 1
v 0.3304951 1.31 0.25 1 1 1
v 0.3804951 1.22 -0.3804951 1 1 1
v 0.3804951 1.265 -0.3804951 1 1 1
v 0.3804951 1.22 -0.25 1 1 1
v 0.3804951 1.265 -0.25 1 1 1
v 0.5 1.265 0.25 1 1 1
v 0.3804951 1.265 0.25 1 1 1
v 0.5 1.265 -0.25 1 1 1
v 0.5 1.265 -0.5 1 1 1
v 0.25 1.265 -0.5 1 1 1
v 0.25 1.265 -0.3804951 1 1 1
v 0 1.22 -0.3804951 1 1 1
v 0 1.265 -0.3804951 1 1 1
v 0 1.265 -0.5 1 1 1
v 0.3804951 1.22 0.25 1 1 1
v 0.25 1.31 -0.5 1 1 1
v 0.25 1.31 -0.3304951 1 1 1
v 0 1.31 -0.5 1 1 1
v -3.609557E-16 1.31 -0.3304951 1 1 1
v 0.5 1.31 -0.25 1 1 1
v 0.5 1.31 0.25 1 1 1
v -3.609557E-16 1.22 -0.3304951 1 1 1
v 0.25 1.22 -0.3304951 1 1 1
v -0.5 0.45 -0.465 1 1 1
v -0.5 1.01 -0.465 1 1 1
v -0.5 1.11 -0.5 1 1 1
v -0.5 1.18 -0.2908356 1 1 1
v -0.5 1.22 -0.2908356 1 1 1
v 0.25 1.22 -0.3804951 1 1 1
v 0.5 1.11 -0.5 1 1 1
v 0.465 1.01 -0.465 1 1 1
v 0.465 0.45 -0.465 1 1 1
v 0.2908356 1.22 -0.2908356 1 1 1
v 0.2908356 1.18 -0.2908356 1 1 1

vn -0.6997307 0.1440622 0.6997307
vn -0.6863982 -0.2402394 0.6863982
vn 0 0 -1
vn 0 0 1
vn 1 0 0
vn -1 0 0
vn 0 1 0
vn 0 -1 0
vn 0.9438583 -0.3303504 0
vn 0 0.2016529 -0.9794571
vn -0.7071068 0 0.7071068
vn 0.9794571 0.2016529 0
vn 0 -0.3303504 -0.9438583

vt 0.84375 0.06774809
vt 0.84375 0.09370229
vt 0.84375 0.1791985
vt 0.84375 0.1944656
vt 0.84375 0.025
vt 0.84375 0.2051527
vt 0.84375 0.2181298
vt 0.84375 0.2112595
vt 0.84375 0.225
vt 0.96875 0.09370229
vt 0.96875 0.1791985
vt 0.96875 0.2051527

usemtl colormap

f 3/2/1 2/2/1 1/1/1
f 6/4/2 5/3/2 4/3/2
f 9/1/3 8/5/3 7/5/3
f 8/5/3 9/1/3 10/1/3
f 13/1/4 12/5/4 11/5/4
f 12/5/4 13/1/4 1/1/4
f 1/1/4 13/1/4 14/2/4
f 1/1/4 14/2/4 3/2/4
f 3/2/4 14/2/4 15/3/4
f 3/2/4 15/3/4 4/3/4
f 4/3/4 15/3/4 16/4/4
f 4/3/4 16/4/4 6/4/4
f 6/4/4 16/4/4 17/6/4
f 6/4/4 17/6/4 18/7/4
f 18/7/4 17/6/4 19/8/4
f 18/7/4 19/8/4 20/7/4
f 19/8/4 17/6/4 21/8/4
f 17/6/4 16/4/4 22/6/4
f 23/9/4 22/6/4 16/4/4
f 22/6/4 23/9/4 24/8/4
f 24/8/4 23/9/4 25/9/4
f 26/8/4 22/6/4 24/8/4
f 29/9/4 28/7/4 27/7/4
f 30/9/4 28/7/4 29/9/4
f 31/8/4 28/7/4 30/9/4
f 28/7/4 31/8/4 32/8/4
f 13/1/5 8/5/5 10/1/5
f 8/5/5 13/1/5 11/5/5
f 31/8/6 34/9/6 33/8/6
f 34/9/6 31/8/6 30/9/6
f 37/8/3 36/6/3 35/6/3
f 36/6/3 37/8/3 38/8/3
f 40/7/7 20/7/7 39/7/7
f 20/7/7 40/7/7 18/7/7
f 21/8/5 36/6/5 38/8/5
f 36/6/5 21/8/5 17/6/5
f 20/7/5 41/8/5 39/7/5
f 41/8/5 20/7/5 19/8/5
f 40/7/3 41/8/3 42/8/3
f 41/8/3 40/7/3 39/7/3
f 45/8/4 44/9/4 43/8/4
f 44/9/4 45/8/4 46/9/4
f 46/9/5 48/7/5 47/9/5
f 48/7/5 46/9/5 49/7/5
f 49/7/5 46/9/5 50/8/5
f 50/8/5 46/9/5 45/8/5
f 47/9/7 44/9/7 46/9/7
f 44/9/7 47/9/7 51/9/7
f 24/8/6 53/9/6 52/8/6
f 53/9/6 24/8/6 25/9/6
f 56/8/6 55/7/6 54/8/6
f 55/7/6 56/8/6 57/7/6
f 27/7/7 59/7/7 58/7/7
f 59/7/7 27/7/7 28/7/7
f 12/5/8 8/5/8 11/5/8
f 8/5/8 12/5/8 7/5/8
f 57/7/7 60/7/7 55/7/7
f 61/7/7 55/7/7 60/7/7
f 55/7/7 61/7/7 62/7/7
f 55/7/7 62/7/7 63/7/7
f 64/8/4 49/7/4 50/8/4
f 49/7/4 64/8/4 65/7/4
f 48/7/7 65/7/7 66/7/7
f 65/7/7 48/7/7 49/7/7
f 67/8/6 28/7/6 32/8/6
f 28/7/6 67/8/6 59/7/6
f 70/9/7 69/9/7 68/9/7
f 69/9/7 70/9/7 71/9/7
f 34/9/3 56/8/3 33/8/3
f 56/8/3 34/9/3 57/7/3
f 57/7/3 34/9/3 60/7/3
f 60/7/3 34/9/3 72/9/3
f 34/9/7 29/9/7 72/9/7
f 29/9/7 34/9/7 30/9/7
f 53/9/3 67/8/3 52/8/3
f 67/8/3 53/9/3 59/7/3
f 59/7/3 53/9/3 58/7/3
f 58/7/3 53/9/3 73/9/3
f 53/9/7 23/9/7 73/9/7
f 23/9/7 53/9/7 25/9/7
f 74/8/6 65/7/6 64/8/6
f 71/9/6 65/7/6 74/8/6
f 70/9/6 65/7/6 71/9/6
f 65/7/6 70/9/6 66/7/6
f 75/8/4 71/9/4 74/8/4
f 71/9/4 75/8/4 69/9/4
f 12/5/6 9/1/6 7/5/6
f 9/1/6 12/5/6 76/2/6
f 76/2/6 12/5/6 77/3/6
f 77/3/6 12/5/6 43/8/6
f 44/9/6 77/3/6 43/8/6
f 51/9/6 77/3/6 44/9/6
f 77/3/6 51/9/6 78/4/6
f 43/8/6 12/5/6 79/6/6
f 80/8/6 43/8/6 79/6/6
f 79/6/6 12/5/6 35/6/6
f 35/6/6 12/5/6 37/8/6
f 37/8/6 12/5/6 42/8/6
f 42/8/6 12/5/6 40/7/6
f 40/7/6 12/5/6 2/2/6
f 2/2/6 12/5/6 1/1/6
f 5/3/6 40/7/6 2/2/6
f 40/7/6 5/3/6 18/7/6
f 18/7/6 5/3/6 6/4/6
f 69/9/5 62/7/5 68/9/5
f 62/7/5 69/9/5 63/7/5
f 63/7/5 69/9/5 81/8/5
f 81/8/5 69/9/5 75/8/5
f 16/4/9 83/3/9 82/4/9
f 83/3/9 16/4/9 15/3/9
f 76/2/10 10/1/10 9/1/10
f 10/1/10 76/2/10 84/2/10
f 3/2/11 5/3/11 2/2/11
f 5/3/11 3/2/11 4/3/11
f 84/2/12 13/1/12 10/1/12
f 13/1/12 84/2/12 14/2/12
f 29/9/5 60/7/5 72/9/5
f 27/7/5 60/7/5 29/9/5
f 16/4/5 60/7/5 27/7/5
f 16/4/5 27/7/5 58/7/5
f 82/4/5 60/7/5 16/4/5
f 60/7/5 82/4/5 61/7/5
f 16/4/5 58/7/5 23/9/5
f 23/9/5 58/7/5 73/9/5
f 19/8/7 21/8/7 41/8/7
f 38/8/7 41/8/7 21/8/7
f 41/8/7 38/8/7 37/8/7
f 41/8/7 37/8/7 42/8/7
f 51/9/3 82/4/3 78/4/3
f 82/4/3 51/9/3 48/7/3
f 48/7/3 51/9/3 47/9/3
f 66/7/3 82/4/3 48/7/3
f 62/7/3 82/4/3 66/7/3
f 82/4/3 62/7/3 61/7/3
f 70/9/3 62/7/3 66/7/3
f 62/7/3 70/9/3 68/9/3
f 26/8/7 24/8/7 85/8/7
f 52/8/7 85/8/7 24/8/7
f 31/8/7 85/8/7 52/8/7
f 67/8/7 31/8/7 52/8/7
f 31/8/7 67/8/7 32/8/7
f 33/8/7 85/8/7 31/8/7
f 33/8/7 81/8/7 85/8/7
f 56/8/7 81/8/7 33/8/7
f 81/8/7 56/8/7 54/8/7
f 85/8/7 81/8/7 75/8/7
f 85/8/7 75/8/7 80/8/7
f 80/8/7 75/8/7 74/8/7
f 80/8/7 74/8/7 45/8/7
f 80/8/7 45/8/7 43/8/7
f 45/8/7 74/8/7 50/8/7
f 50/8/7 74/8/7 64/8/7
f 55/7/4 81/8/4 54/8/4
f 81/8/4 55/7/4 63/7/4
f 22/6/6 85/8/6 86/6/6
f 85/8/6 22/6/6 26/8/6
f 86/6/4 80/8/4 79/6/4
f 80/8/4 86/6/4 85/8/4
f 78/4/13 83/3/13 77/3/13
f 83/3/13 78/4/13 82/4/13
f 77/11/3 84/10/3 76/10/3
f 84/10/3 77/11/3 83/11/3
f 15/11/5 84/10/5 83/11/5
f 84/10/5 15/11/5 14/10/5
f 17/12/7 22/12/7 36/12/7
f 22/12/7 79/12/7 36/12/7
f 36/12/7 79/12/7 35/12/7
f 79/12/7 22/12/7 86/12/7

g wall-corner




usemtl colormap

f 3/2/1 2/2/1 1/1/1
f 6/4/2 5/3/2 4/3/2
f 9/1/3 8/5/3 7/5/3
f 8/5/3 9/1/3 10/1/3
f 13/1/4 12/5/4 11/5/4
f 12/5/4 13/1/4 1/1/4
f 1/1/4 13/1/4 14/2/4
f 1/1/4 14/2/4 3/2/4
f 3/2/4 14/2/4 15/3/4
f 3/2/4 15/3/4 4/3/4
f 4/3/4 15/3/4 16/4/4
f 4/3/4 16/4/4 6/4/4
f 6/4/4 16/4/4 17/6/4
f 6/4/4 17/6/4 18/7/4
f 18/7/4 17/6/4 19/8/4
f 18/7/4 19/8/4 20/7/4
f 19/8/4 17/6/4 21/8/4
f 17/6/4 16/4/4 22/6/4
f 23/9/4 22/6/4 16/4/4
f 22/6/4 23/9/4 24/8/4
f 24/8/4 23/9/4 25/9/4
f 26/8/4 22/6/4 24/8/4
f 29/9/4 28/7/4 27/7/4
f 30/9/4 28/7/4 29/9/4
f 31/8/4 28/7/4 30/9/4
f 28/7/4 31/8/4 32/8/4
f 13/1/5 8/5/5 10/1/5
f 8/5/5 13/1/5 11/5/5
f 31/8/6 34/9/6 33/8/6
f 34/9/6 31/8/6 30/9/6
f 37/8/3 36/6/3 35/6/3
f 36/6/3 37/8/3 38/8/3
f 40/7/7 20/7/7 39/7/7
f 20/7/7 40/7/7 18/7/7
f 21/8/5 36/6/5 38/8/5
f 36/6/5 21/8/5 17/6/5
f 20/7/5 41/8/5 39/7/5
f 41/8/5 20/7/5 19/8/5
f 40/7/3 41/8/3 42/8/3
f 41/8/3 40/7/3 39/7/3
f 45/8/4 44/9/4 43/8/4
f 44/9/4 45/8/4 46/9/4
f 46/9/5 48/7/5 47/9/5
f 48/7/5 46/9/5 49/7/5
f 49/7/5 46/9/5 50/8/5
f 50/8/5 46/9/5 45/8/5
f 47/9/7 44/9/7 46/9/7
f 44/9/7 47/9/7 51/9/7
f 24/8/6 53/9/6 52/8/6
f 53/9/6 24/8/6 25/9/6
f 56/8/6 55/7/6 54/8/6
f 55/7/6 56/8/6 57/7/6
f 27/7/7 59/7/7 58/7/7
f 59/7/7 27/7/7 28/7/7
f 12/5/8 8/5/8 11/5/8
f 8/5/8 12/5/8 7/5/8
f 57/7/7 60/7/7 55/7/7
f 61/7/7 55/7/7 60/7/7
f 55/7/7 61/7/7 62/7/7
f 55/7/7 62/7/7 63/7/7
f 64/8/4 49/7/4 50/8/4
f 49/7/4 64/8/4 65/7/4
f 48/7/7 65/7/7 66/7/7
f 65/7/7 48/7/7 49/7/7
f 67/8/6 28/7/6 32/8/6
f 28/7/6 67/8/6 59/7/6
f 70/9/7 69/9/7 68/9/7
f 69/9/7 70/9/7 71/9/7
f 34/9/3 56/8/3 33/8/3
f 56/8/3 34/9/3 57/7/3
f 57/7/3 34/9/3 60/7/3
f 60/7/3 34/9/3 72/9/3
f 34/9/7 29/9/7 72/9/7
f 29/9/7 34/9/7 30/9/7
f 53/9/3 67/8/3 52/8/3
f 67/8/3 53/9/3 59/7/3
f 59/7/3 53/9/3 58/7/3
f 58/7/3 53/9/3 73/9/3
f 53/9/7 23/9/7 73/9/7
f 23/9/7 53/9/7 25/9/7
f 74/8/6 65/7/6 64/8/6
f 71/9/6 65/7/6 74/8/6
f 70/9/6 65/7/6 71/9/6
f 65/7/6 70/9/6 66/7/6
f 75/8/4 71/9/4 74/8/4
f 71/9/4 75/8/4 69/9/4
f 12/5/6 9/1/6 7/5/6
f 9/1/6 12/5/6 76/2/6
f 76/2/6 12/5/6 77/3/6
f 77/3/6 12/5/6 43/8/6
f 44/9/6 77/3/6 43/8/6
f 51/9/6 77/3/6 44/9/6
f 77/3/6 51/9/6 78/4/6
f 43/8/6 12/5/6 79/6/6
f 80/8/6 43/8/6 79/6/6
f 79/6/6 12/5/6 35/6/6
f 35/6/6 12/5/6 37/8/6
f 37/8/6 12/5/6 42/8/6
f 42/8/6 12/5/6 40/7/6
f 40/7/6 12/5/6 2/2/6
f 2/2/6 12/5/6 1/1/6
f 5/3/6 40/7/6 2/2/6
f 40/7/6 5/3/6 18/7/6
f 18/7/6 5/3/6 6/4/6
f 69/9/5 62/7/5 68/9/5
f 62/7/5 69/9/5 63/7/5
f 63/7/5 69/9/5 81/8/5
f 81/8/5 69/9/5 75/8/5
f 16/4/9 83/3/9 82/4/9
f 83/3/9 16/4/9 15/3/9
f 76/2/10 10/1/10 9/1/10
f 10/1/10 76/2/10 84/2/10
f 3/2/11 5/3/11 2/2/11
f 5/3/11 3/2/11 4/3/11
f 84/2/12 13/1/12 10/1/12
f 13/1/12 84/2/12 14/2/12
f 29/9/5 60/7/5 72/9/5
f 27/7/5 60/7/5 29/9/5
f 16/4/5 60/7/5 27/7/5
f 16/4/5 27/7/5 58/7/5
f 82/4/5 60/7/5 16/4/5
f 60/7/5 82/4/5 61/7/5
f 16/4/5 58/7/5 23/9/5
f 23/9/5 58/7/5 73/9/5
f 19/8/7 21/8/7 41/8/7
f 38/8/7 41/8/7 21/8/7
f 41/8/7 38/8/7 37/8/7
f 41/8/7 37/8/7 42/8/7
f 51/9/3 82/4/3 78/4/3
f 82/4/3 51/9/3 48/7/3
f 48/7/3 51/9/3 47/9/3
f 66/7/3 82/4/3 48/7/3
f 62/7/3 82/4/3 66/7/3
f 82/4/3 62/7/3 61/7/3
f 70/9/3 62/7/3 66/7/3
f 62/7/3 70/9/3 68/9/3
f 26/8/7 24/8/7 85/8/7
f 52/8/7 85/8/7 24/8/7
f 31/8/7 85/8/7 52/8/7
f 67/8/7 31/8/7 52/8/7
f 31/8/7 67/8/7 32/8/7
f 33/8/7 85/8/7 31/8/7
f 33/8/7 81/8/7 85/8/7
f 56/8/7 81/8/7 33/8/7
f 81/8/7 56/8/7 54/8/7
f 85/8/7 81/8/7 75/8/7
f 85/8/7 75/8/7 80/8/7
f 80/8/7 75/8/7 74/8/7
f 80/8/7 74/8/7 45/8/7
f 80/8/7 45/8/7 43/8/7
f 45/8/7 74/8/7 50/8/7
f 50/8/7 74/8/7 64/8/7
f 55/7/4 81/8/4 54/8/4
f 81/8/4 55/7/4 63/7/4
f 22/6/6 85/8/6 86/6/6
f 85/8/6 22/6/6 26/8/6
f 86/6/4 80/8/4 79/6/4
f 80/8/4 86/6/4 85/8/4
f 78/4/13 83/3/13 77/3/13
f 83/3/13 78/4/13 82/4/13
f 77/11/3 84/10/3 76/10/3
f 84/10/3 77/11/3 83/11/3
f 15/11/5 84/10/5 83/11/5
f 84/10/5 15/11/5 14/10/5
f 17/12/7 22/12/7 36/12/7
f 22/12/7 79/12/7 36/12/7
f 36/12/7 79/12/7 35/12/7
f 79/12/7 22/12/7 86/12/7

