# Created by Kenney (www.kenney.nl)

mtllib wall-half.mtl

g wall-half

v -0.5 0.28 0.5 1 1 1
v -0.5 0 0.5 1 1 1
v -0.5 0.28 -0.5 1 1 1
v -0.5 0 -0.5 1 1 1
v 0.5 0 0.5 1 1 1
v 0.5 0.28 0.5 1 1 1
v 0.5 0 -0.5 1 1 1
v 0.5 0.28 -0.5 1 1 1
v 0.465 0.45 0.5 1 1 1
v -0.465 0.45 0.5 1 1 1
v 0.465 1.01 0.5 1 1 1
v -0.465 1.01 0.5 1 1 1
v 0.5 1.11 0.5 1 1 1
v -0.5 1.11 0.5 1 1 1
v 0.5 1.18 0.5 1 1 1
v -0.2908356 1.18 0.5 1 1 1
v -0.5 1.265 0.5 1 1 1
v -0.3804951 1.22 0.5 1 1 1
v -0.2908356 1.22 0.5 1 1 1
v -0.3804951 1.265 0.5 1 1 1
v -0.465 0.45 -0.5 1 1 1
v 0.465 0.45 -0.5 1 1 1
v 0.5 1.11 -0.5 1 1 1
v 0.465 1.01 -0.5 1 1 1
v -0.5 1.11 -0.5 1 1 1
v -0.465 1.01 -0.5 1 1 1
v -0.5 1.31 0.25 1 1 1
v -0.5 1.265 0.25 1 1 1
v -0.5 1.31 2.82449E-14 1 1 1
v -0.5 1.265 2.82449E-14 1 1 1
v -0.5 1.265 -0.25 1 1 1
v -0.5 1.31 -0.5 1 1 1
v -0.5 1.31 -0.25 1 1 1
v 0.5 1.18 -0.5 1 1 1
v -0.3804951 1.22 0.25 1 1 1
v -0.3304951 1.22 0.25 1 1 1
v -0.3304951 1.22 1.868189E-14 1 1 1
v -0.3304951 1.22 -0.25 1 1 1
v -0.3304951 1.22 -0.5 1 1 1
v -0.2908356 1.22 -0.5 1 1 1
v -0.3804951 1.22 -0.25 1 1 1
v -0.3804951 1.22 1.840216E-14 1 1 1
v -0.3304951 1.31 -0.25 1 1 1
v -0.3304951 1.31 -0.5 1 1 1
v -0.3304951 1.31 0.25 1 1 1
v -0.3304951 1.31 1.868189E-14 1 1 1
v -0.3804951 1.265 1.840216E-14 1 1 1
v -0.3804951 1.265 -0.25 1 1 1
v -0.3804951 1.265 0.25 1 1 1
v -0.2908356 1.18 -0.5 1 1 1
v 0.49 0.7909038 -0.3150313 1 1 1
v 0.49 0.8909038 -0.3150313 1 1 1
v 0.465 0.7909038 -0.3400313 1 1 1
v 0.465 0.8909038 -0.3400313 1 1 1
v 0.49 0.7909038 -0.2150313 1 1 1
v 0.465 0.7909038 -0.1900313 1 1 1
v 0.49 0.8909038 -0.2150313 1 1 1
v 0.465 0.8909038 -0.1900313 1 1 1
v 0.49 0.6110227 -0.2622079 1 1 1
v 0.49 0.7110227 -0.2622079 1 1 1
v 0.465 0.6110227 -0.2872079 1 1 1
v 0.465 0.7110227 -0.2872079 1 1 1
v 0.49 0.6110227 -0.1622079 1 1 1
v 0.465 0.6110227 -0.1372079 1 1 1
v 0.49 0.7110227 -0.1622079 1 1 1
v 0.465 0.7110227 -0.1372079 1 1 1
v 0.49 0.7556424 -0.06862116 1 1 1
v 0.49 0.8556424 -0.06862116 1 1 1
v 0.465 0.7556424 -0.09362116 1 1 1
v 0.465 0.8556424 -0.09362116 1 1 1
v 0.49 0.7556424 0.03137884 1 1 1
v 0.465 0.7556424 0.05637884 1 1 1
v 0.49 0.8556424 0.03137884 1 1 1
v 0.465 0.8556424 0.05637884 1 1 1

vn -1 0 5.215833E-14
vn 1 0 -5.215833E-14
vn 5.215833E-14 0 1
vn -0.9794571 0.2016529 5.108685E-14
vn 0.9794571 0.2016529 -5.108685E-14
vn 0.9438583 -0.3303504 -4.923007E-14
vn -0.9438583 -0.3303504 4.923007E-14
vn 0 1 0
vn -5.215833E-14 0 -1
vn 0 -1 0
vn 0.9238795 0 -0.3826834
vn 0.7071068 0 -0.7071068
vn 0.9238795 0 0.3826834
vn 0.7071068 0 0.7071068

vt 0.84375 0.06774809
vt 0.84375 0.025
vt 0.84375 0.09370229
vt 0.84375 0.1791985
vt 0.84375 0.1944656
vt 0.84375 0.2051527
vt 0.84375 0.2181298
vt 0.84375 0.2112595
vt 0.84375 0.225
vt 0.78125 0.125
vt 0.96875 0.1791985
vt 0.96875 0.09370229
vt 0.96875 0.2051527

usemtl colormap

f 3/1/1 2/2/1 1/1/1
f 2/2/1 3/1/1 4/2/1
f 7/2/2 6/1/2 5/2/2
f 6/1/2 7/2/2 8/1/2
f 6/1/3 2/2/3 5/2/3
f 2/2/3 6/1/3 1/1/3
f 1/1/3 6/1/3 9/3/3
f 1/1/3 9/3/3 10/3/3
f 10/3/3 9/3/3 11/4/3
f 10/3/3 11/4/3 12/4/3
f 12/4/3 11/4/3 13/5/3
f 12/4/3 13/5/3 14/5/3
f 14/5/3 13/5/3 15/6/3
f 14/5/3 15/6/3 16/6/3
f 14/5/3 16/6/3 17/7/3
f 17/7/3 16/6/3 18/8/3
f 18/8/3 16/6/3 19/8/3
f 17/7/3 18/8/3 20/7/3
f 10/3/4 3/1/4 1/1/4
f 3/1/4 10/3/4 21/3/4
f 8/1/5 9/3/5 6/1/5
f 9/3/5 8/1/5 22/3/5
f 11/4/6 23/5/6 13/5/6
f 23/5/6 11/4/6 24/4/6
f 25/5/7 12/4/7 14/5/7
f 12/4/7 25/5/7 26/4/7
f 29/9/1 28/7/1 27/9/1
f 30/7/1 28/7/1 29/9/1
f 25/5/1 28/7/1 30/7/1
f 25/5/1 30/7/1 31/7/1
f 14/5/1 28/7/1 25/5/1
f 28/7/1 14/5/1 17/7/1
f 25/5/1 31/7/1 32/9/1
f 32/9/1 31/7/1 33/9/1
f 23/5/2 15/6/2 13/5/2
f 15/6/2 23/5/2 34/6/2
f 19/8/8 35/8/8 18/8/8
f 35/8/8 19/8/8 36/8/8
f 36/8/8 19/8/8 37/8/8
f 37/8/8 19/8/8 38/8/8
f 38/8/8 19/8/8 39/8/8
f 39/8/8 19/8/8 40/8/8
f 41/8/8 37/8/8 38/8/8
f 37/8/8 41/8/8 42/8/8
f 39/8/2 43/9/2 38/8/2
f 43/9/2 39/8/2 44/9/2
f 37/8/2 45/9/2 36/8/2
f 45/9/2 37/8/2 46/9/2
f 45/9/8 29/9/8 27/9/8
f 29/9/8 45/9/8 46/9/8
f 43/9/8 32/9/8 33/9/8
f 32/9/8 43/9/8 44/9/8
f 47/7/8 31/7/8 30/7/8
f 31/7/8 47/7/8 48/7/8
f 20/7/8 28/7/8 17/7/8
f 28/7/8 20/7/8 49/7/8
f 35/8/2 20/7/2 18/8/2
f 20/7/2 35/8/2 49/7/2
f 45/9/3 35/8/3 36/8/3
f 35/8/3 45/9/3 49/7/3
f 49/7/3 45/9/3 28/7/3
f 28/7/3 45/9/3 27/9/3
f 41/8/2 47/7/2 42/8/2
f 47/7/2 41/8/2 48/7/2
f 43/9/3 41/8/3 38/8/3
f 41/8/3 43/9/3 48/7/3
f 48/7/3 43/9/3 31/7/3
f 31/7/3 43/9/3 33/9/3
f 29/9/9 47/7/9 30/7/9
f 46/9/9 47/7/9 29/9/9
f 37/8/9 47/7/9 46/9/9
f 47/7/9 37/8/9 42/8/9
f 50/6/2 19/8/2 16/6/2
f 19/8/2 50/6/2 40/8/2
f 34/6/9 23/5/9 50/6/9
f 23/5/9 25/5/9 50/6/9
f 24/4/9 25/5/9 23/5/9
f 24/4/9 26/4/9 25/5/9
f 22/3/9 26/4/9 24/4/9
f 22/3/9 21/3/9 26/4/9
f 8/1/9 21/3/9 22/3/9
f 8/1/9 3/1/9 21/3/9
f 7/2/9 3/1/9 8/1/9
f 3/1/9 7/2/9 4/2/9
f 50/6/9 25/5/9 32/9/9
f 50/6/9 32/9/9 39/8/9
f 39/8/9 32/9/9 44/9/9
f 40/8/9 50/6/9 39/8/9
f 4/2/10 5/2/10 2/2/10
f 5/2/10 4/2/10 7/2/10
f 53/10/12 52/10/11 51/10/11
f 52/10/11 53/10/12 54/10/12
f 57/10/13 56/10/14 55/10/13
f 56/10/14 57/10/13 58/10/14
f 57/10/8 54/10/8 58/10/8
f 54/10/8 57/10/8 52/10/8
f 53/10/10 55/10/10 56/10/10
f 55/10/10 53/10/10 51/10/10
f 51/10/11 57/10/13 55/10/13
f 57/10/13 51/10/11 52/10/11
f 61/10/12 60/10/11 59/10/11
f 60/10/11 61/10/12 62/10/12
f 65/10/13 64/10/14 63/10/13
f 64/10/14 65/10/13 66/10/14
f 65/10/8 62/10/8 66/10/8
f 62/10/8 65/10/8 60/10/8
f 61/10/10 63/10/10 64/10/10
f 63/10/10 61/10/10 59/10/10
f 59/10/11 65/10/13 63/10/13
f 65/10/13 59/10/11 60/10/11
f 69/10/12 68/10/11 67/10/11
f 68/10/11 69/10/12 70/10/12
f 73/10/13 72/10/14 71/10/13
f 72/10/14 73/10/13 74/10/14
f 73/10/8 70/10/8 74/10/8
f 70/10/8 73/10/8 68/10/8
f 69/10/10 71/10/10 72/10/10
f 71/10/10 69/10/10 67/10/10
f 67/10/11 73/10/13 71/10/13
f 73/10/13 67/10/11 68/10/11
f 26/11/1 10/12/1 12/11/1
f 10/12/1 26/11/1 21/12/1
f 22/12/2 11/11/2 9/12/2
f 11/11/2 22/12/2 24/11/2
f 15/13/8 50/13/8 16/13/8
f 50/13/8 15/13/8 34/13/8

g wall-half




usemtl colormap

f 3/1/1 2/2/1 1/1/1
f 2/2/1 3/1/1 4/2/1
f 7/2/2 6/1/2 5/2/2
f 6/1/2 7/2/2 8/1/2
f 6/1/3 2/2/3 5/2/3
f 2/2/3 6/1/3 1/1/3
f 1/1/3 6/1/3 9/3/3
f 1/1/3 9/3/3 10/3/3
f 10/3/3 9/3/3 11/4/3
f 10/3/3 11/4/3 12/4/3
f 12/4/3 11/4/3 13/5/3
f 12/4/3 13/5/3 14/5/3
f 14/5/3 13/5/3 15/6/3
f 14/5/3 15/6/3 16/6/3
f 14/5/3 16/6/3 17/7/3
f 17/7/3 16/6/3 18/8/3
f 18/8/3 16/6/3 19/8/3
f 17/7/3 18/8/3 20/7/3
f 10/3/4 3/1/4 1/1/4
f 3/1/4 10/3/4 21/3/4
f 8/1/5 9/3/5 6/1/5
f 9/3/5 8/1/5 22/3/5
f 11/4/6 23/5/6 13/5/6
f 23/5/6 11/4/6 24/4/6
f 25/5/7 12/4/7 14/5/7
f 12/4/7 25/5/7 26/4/7
f 29/9/1 28/7/1 27/9/1
f 30/7/1 28/7/1 29/9/1
f 25/5/1 28/7/1 30/7/1
f 25/5/1 30/7/1 31/7/1
f 14/5/1 28/7/1 25/5/1
f 28/7/1 14/5/1 17/7/1
f 25/5/1 31/7/1 32/9/1
f 32/9/1 31/7/1 33/9/1
f 23/5/2 15/6/2 13/5/2
f 15/6/2 23/5/2 34/6/2
f 19/8/8 35/8/8 18/8/8
f 35/8/8 19/8/8 36/8/8
f 36/8/8 19/8/8 37/8/8
f 37/8/8 19/8/8 38/8/8
f 38/8/8 19/8/8 39/8/8
f 39/8/8 19/8/8 40/8/8
f 41/8/8 37/8/8 38/8/8
f 37/8/8 41/8/8 42/8/8
f 39/8/2 43/9/2 38/8/2
f 43/9/2 39/8/2 44/9/2
f 37/8/2 45/9/2 36/8/2
f 45/9/2 37/8/2 46/9/2
f 45/9/8 29/9/8 27/9/8
f 29/9/8 45/9/8 46/9/8
f 43/9/8 32/9/8 33/9/8
f 32/9/8 43/9/8 44/9/8
f 47/7/8 31/7/8 30/7/8
f 31/7/8 47/7/8 48/7/8
f 20/7/8 28/7/8 17/7/8
f 28/7/8 20/7/8 49/7/8
f 35/8/2 20/7/2 18/8/2
f 20/7/2 35/8/2 49/7/2
f 45/9/3 35/8/3 36/8/3
f 35/8/3 45/9/3 49/7/3
f 49/7/3 45/9/3 28/7/3
f 28/7/3 45/9/3 27/9/3
f 41/8/2 47/7/2 42/8/2
f 47/7/2 41/8/2 48/7/2
f 43/9/3 41/8/3 38/8/3
f 41/8/3 43/9/3 48/7/3
f 48/7/3 43/9/3 31/7/3
f 31/7/3 43/9/3 33/9/3
f 29/9/9 47/7/9 30/7/9
f 46/9/9 47/7/9 29/9/9
f 37/8/9 47/7/9 46/9/9
f 47/7/9 37/8/9 42/8/9
f 50/6/2 19/8/2 16/6/2
f 19/8/2 50/6/2 40/8/2
f 34/6/9 23/5/9 50/6/9
f 23/5/9 25/5/9 50/6/9
f 24/4/9 25/5/9 23/5/9
f 24/4/9 26/4/9 25/5/9
f 22/3/9 26/4/9 24/4/9
f 22/3/9 21/3/9 26/4/9
f 8/1/9 21/3/9 22/3/9
f 8/1/9 3/1/9 21/3/9
f 7/2/9 3/1/9 8/1/9
f 3/1/9 7/2/9 4/2/9
f 50/6/9 25/5/9 32/9/9
f 50/6/9 32/9/9 39/8/9
f 39/8/9 32/9/9 44/9/9
f 40/8/9 50/6/9 39/8/9
f 4/2/10 5/2/10 2/2/10
f 5/2/10 4/2/10 7/2/10
f 53/10/12 52/10/11 51/10/11
f 52/10/11 53/10/12 54/10/12
f 57/10/13 56/10/14 55/10/13
f 56/10/14 57/10/13 58/10/14
f 57/10/8 54/10/8 58/10/8
f 54/10/8 57/10/8 52/10/8
f 53/10/10 55/10/10 56/10/10
f 55/10/10 53/10/10 51/10/10
f 51/10/11 57/10/13 55/10/13
f 57/10/13 51/10/11 52/10/11
f 61/10/12 60/10/11 59/10/11
f 60/10/11 61/10/12 62/10/12
f 65/10/13 64/10/14 63/10/13
f 64/10/14 65/10/13 66/10/14
f 65/10/8 62/10/8 66/10/8
f 62/10/8 65/10/8 60/10/8
f 61/10/10 63/10/10 64/10/10
f 63/10/10 61/10/10 59/10/10
f 59/10/11 65/10/13 63/10/13
f 65/10/13 59/10/11 60/10/11
f 69/10/12 68/10/11 67/10/11
f 68/10/11 69/10/12 70/10/12
f 73/10/13 72/10/14 71/10/13
f 72/10/14 73/10/13 74/10/14
f 73/10/8 70/10/8 74/10/8
f 70/10/8 73/10/8 68/10/8
f 69/10/10 71/10/10 72/10/10
f 71/10/10 69/10/10 67/10/10
f 67/10/11 73/10/13 71/10/13
f 73/10/13 67/10/11 68/10/11
f 26/11/1 10/12/1 12/11/1
f 10/12/1 26/11/1 21/12/1
f 22/12/2 11/11/2 9/12/2
f 11/11/2 22/12/2 24/11/2
f 15/13/8 50/13/8 16/13/8
f 50/13/8 15/13/8 34/13/8

