# Created by Kenney (www.kenney.nl)

mtllib boat-speed-h.mtl

g boat-speed-h

v 0.1780892 0 0.4310682 1 1 1
v 0.2968153 0.2 1.141514 1 1 1
v 0.40698 0 0.06794 1 1 1
v 0.6783 0.2 0.5363 1 1 1
v 4.593217E-13 0.2 1.3058 1 1 1
v 6.492738E-13 0.6 1.835 1 1 1
v 0.3905465 0.6 1.618834 1 1 1
v 0.8925 0.6 0.8225 1 1 1
v -0.3905465 0.6 1.618834 1 1 1
v -0.2968153 0.2 1.141514 1 1 1
v -0.8925 0.6 0.8225 1 1 1
v -0.6783 0.2 0.5363 1 1 1
v 1.864103E-13 0 0.52964 1 1 1
v -0.40698 0 0.06794 1 1 1
v -0.1780892 0 0.4310682 1 1 1
v -0.40698 0 -1.635 1 1 1
v 0.40698 0 -1.635 1 1 1
v 0.8925 0.6 -1.835 1 1 1
v 0.6783 0.2 -1.735 1 1 1
v -0.6783 0.2 -1.735 1 1 1
v -0.8925 0.6 -1.835 1 1 1
v 6.018496E-13 0.8 1.72475 1 1 1
v -0.3710192 0.8 1.519392 1 1 1
v 0.3710192 0.8 1.519392 1 1 1
v 0.847875 0.8 0.762875 1 1 1
v -0.847875 0.8 0.762875 1 1 1
v -0.5511187 0.9 0.546575 1 1 1
v -0.5511187 0.9 0.2669925 1 1 1
v -0.2411625 0.9 1.038311 1 1 1
v 0.5511187 0.9 0.2669925 1 1 1
v 4.465949E-13 0.9 1.171794 1 1 1
v 0.2411625 0.9 1.038311 1 1 1
v 0.5511187 0.9 0.546575 1 1 1
v 0.847875 0.8 -1.835 1 1 1
v -0.5511187 0.9 -1.835 1 1 1
v 0.5511187 0.9 -1.835 1 1 1
v -0.5511187 0.9 -1.21259 1 1 1
v 0.5511187 0.9 -1.21259 1 1 1
v -0.847875 0.8 -1.835 1 1 1
v 0.5511187 0.9 -1.06259 1 1 1
v 0.5511187 0.9 -0.4330074 1 1 1
v -0.5511187 0.9 -0.4330074 1 1 1
v -0.5511187 0.9 -1.06259 1 1 1
v 0.5511187 1.049751 -0.08300745 1 1 1
v 0.5511187 1.049751 -0.4330074 1 1 1
v -0.5511187 1.049751 -0.08300745 1 1 1
v -0.5511187 1.049751 -0.4330074 1 1 1
v 0.5511187 1 -1.11259 1 1 1
v 0.5511187 1 -1.21259 1 1 1
v -0.5511187 0.8 -1.01259 1 1 1
v 0.5511187 0.8 -1.01259 1 1 1
v -0.5511187 0.8 -0.8125899 1 1 1
v 0.5511187 0.8 -0.8125899 1 1 1
v -0.5511187 1 -1.21259 1 1 1
v -0.5511187 1 -1.11259 1 1 1
v 0.5511187 0.6 -0.8125899 1 1 1
v -0.5511187 0.6 -0.8125899 1 1 1
v -0.5511187 0.6 -0.4330074 1 1 1
v 0.5511187 0.6 -0.4330074 1 1 1
v -0.5511187 0.8 -1.21259 1 1 1
v 0.5511187 0.8 -1.21259 1 1 1
v 0.5511189 0.973205 -1.685795 1 1 1
v 0.5511189 0.8 -1.585795 1 1 1
v 0.5511189 1.073205 -1.51259 1 1 1
v 0.5511189 0.9 -1.41259 1 1 1
v 0.3511188 0.9 -1.41259 1 1 1
v 0.3511188 1.073205 -1.51259 1 1 1
v 0.5011188 1.203109 -1.58759 1 1 1
v -0.3511188 1.073205 -1.51259 1 1 1
v -0.5511189 1.073205 -1.51259 1 1 1
v -0.5511189 0.9 -1.41259 1 1 1
v -0.3511188 0.9 -1.41259 1 1 1
v -0.5011188 1.203109 -1.58759 1 1 1
v 0.3511188 1.24641 -1.61259 1 1 1
v -0.3511188 1.24641 -1.61259 1 1 1
v 0.3511188 0.8 -1.585795 1 1 1
v 0.3511188 0.973205 -1.685795 1 1 1
v -0.3511188 0.973205 -1.685795 1 1 1
v 0.3511188 1.14641 -1.785795 1 1 1
v -0.3511188 1.14641 -1.785795 1 1 1
v -0.3511188 0.8 -1.585795 1 1 1
v -0.5511189 0.8 -1.585795 1 1 1
v -0.5511189 0.973205 -1.685795 1 1 1
v -0.5011188 1.103109 -1.760795 1 1 1
v 0.5011188 1.103109 -1.760795 1 1 1
v 0.0961406 0.9 0.45109 1 1 1
v 0.0961406 1 0.55109 1 1 1
v 0.0961406 0.9 0.95109 1 1 1
v 0.0961406 1 0.85109 1 1 1
v 0.2961406 1 0.55109 1 1 1
v 0.2961406 1 0.85109 1 1 1
v 0.2961406 0.9 0.45109 1 1 1
v 0.2961406 0.9 0.95109 1 1 1
v -0.2961406 0.9 0.45109 1 1 1
v -0.2961406 1 0.55109 1 1 1
v -0.2961406 0.9 0.95109 1 1 1
v -0.2961406 1 0.85109 1 1 1
v -0.0961406 1 0.55109 1 1 1
v -0.0961406 1 0.85109 1 1 1
v -0.0961406 0.9 0.45109 1 1 1
v -0.0961406 0.9 0.95109 1 1 1

vn 0.2619643 -0.9395021 0.2207043
vn 0.1920218 -0.952574 0.2360727
vn 0.5180839 -0.8529251 0.06409276
vn 0.3934299 -0.9055408 0.1587726
vn 2.164373E-13 -0.7977512 0.6029866
vn 0.5323393 -0.697377 0.4798751
vn 0.4407001 -0.7287337 0.5241475
vn 0.7544408 -0.597847 0.2709209
vn 0.8169599 -0.5534499 0.1620794
vn -0.4407001 -0.7287337 0.5241475
vn -0.5323393 -0.697377 0.4798751
vn -0.7544408 -0.597847 0.2709209
vn -0.8169599 -0.5534499 0.1620794
vn 8.956604E-14 -0.9683677 0.2495279
vn -0.3934299 -0.9055408 0.1587726
vn -0.1920218 -0.952574 0.2360727
vn -0.5180839 -0.8529251 0.06409276
vn -0.2619643 -0.9395021 0.2207043
vn 0 -1 0
vn 0.8815585 -0.4720746 -3.164284E-13
vn -0.5933529 -0.8049424 2.129793E-13
vn 0.5933529 -0.8049424 -2.129793E-13
vn -0.8815585 -0.4720746 3.164284E-13
vn -3.482249E-13 -0.2425356 -0.9701425
vn -3.210475E-13 -0.4472136 -0.8944272
vn 3.143447E-13 0.4827589 0.8757533
vn -0.6051339 0.401033 0.6877394
vn -0.6617706 0.3845893 0.6435454
vn 0.6051339 0.401033 0.6877394
vn 0.6617706 0.3845893 0.6435454
vn 0.9091833 0.2915056 0.2973385
vn 0.93326 0.2765666 0.2292091
vn -0.9091833 0.2915056 0.2973385
vn -0.93326 0.2765666 0.2292091
vn 0 1 0
vn 0.9760001 0.21777 -3.503275E-13
vn 0.1772926 0.9720045 0.1541899
vn 0.2808217 0.9580277 0.05763825
vn 0.1379751 0.9764712 0.1657312
vn 0.2595052 0.9616719 0.08856864
vn 6.387713E-14 0.9840379 0.1779595
vn -0.2595052 0.9616719 0.08856864
vn -0.2808217 0.9580277 0.05763825
vn -0.1379751 0.9764712 0.1657312
vn -0.1772926 0.9720045 0.1541899
vn -0.9760001 0.21777 3.503275E-13
vn 0.3193336 0.9476424 -1.146223E-13
vn -0.3193336 0.9476424 1.146223E-13
vn 1 0 -3.58942E-13
vn -1 0 3.58942E-13
vn 7.206543E-14 0.979638 0.2007718
vn 1.411961E-13 0.9193814 0.3933674
vn -3.58942E-13 0 -1
vn 1.88707E-13 0.8506508 0.5257311
vn 3.210475E-13 0.4472136 0.8944272
vn 3.58942E-13 0 1
vn 0.9870877 0.1387219 -0.08009113
vn 1 6.776264E-21 -5.421011E-20
vn 5.421011E-20 0.5000001 0.8660256
vn -1 -6.776264E-21 5.421011E-20
vn 0 -0.8660254 0.5000001
vn 0.1601823 0.8548428 -0.4935438
vn -0.1601823 0.8548428 -0.4935438
vn -0.9870877 0.1387219 -0.08009113
vn -5.421011E-20 -0.5000001 -0.8660256
vn 0.7071069 0.6123724 -0.3535534
vn -0.7071069 0.6123724 -0.3535534
vn -1 0 0
vn 0 0.9238795 -0.3826834
vn 0 0.9238795 0.3826834
vn 1 0 0
vn 0 0.7071068 0.7071068
vn 0 0.7071068 -0.7071068

vt 0.46875 0.025
vt 0.46875 0.06310426
vt 0.46875 0.1393128
vt 0.71875 0.3893128
vt 0.71875 0.427417
vt 0.71875 0.4464692
vt 0.09375 0.1964692
vt 0.09375 0.225
vt 0.59375 0.1964692
vt 0.84375 0.1964692
vt 0.84375 0.2155213
vt 0.84375 0.1774171
vt 0.84375 0.1393128
vt 0.59375 0.1393128
vt 0.59375 0.1774171
vt 0.71875 0.1393128
vt 0.71875 0.1774171
vt 0.71875 0.1964692
vt 0.71875 0.125
vt 0.71875 0.025
vt 0.71875 0.2
vt 0.71875 0.225

usemtl colormap

f 3/1/3 2/2/2 1/1/1
f 2/2/2 3/1/3 4/2/4
f 2/2/6 6/3/5 5/2/5
f 6/3/5 2/2/6 7/3/7
f 2/2/6 8/3/8 7/3/7
f 8/3/8 2/2/6 4/2/9
f 10/2/11 6/3/5 9/3/10
f 6/3/5 10/2/11 5/2/5
f 11/3/12 10/2/11 9/3/10
f 10/2/11 11/3/12 12/2/13
f 13/1/14 2/2/2 5/2/14
f 2/2/2 13/1/14 1/1/1
f 14/1/17 10/2/16 12/2/15
f 10/2/16 14/1/17 15/1/18
f 15/1/18 5/2/14 10/2/16
f 5/2/14 15/1/18 13/1/14
f 16/1/19 15/1/19 14/1/19
f 15/1/19 16/1/19 17/1/19
f 15/1/19 17/1/19 13/1/19
f 13/1/19 17/1/19 1/1/19
f 1/1/19 17/1/19 3/1/19
f 4/2/9 18/3/20 8/3/8
f 18/3/20 4/2/9 19/2/20
f 16/1/21 12/2/15 20/2/21
f 12/2/15 16/1/21 14/1/17
f 17/1/22 4/2/4 3/1/3
f 4/2/4 17/1/22 19/2/22
f 21/3/23 12/2/13 11/3/12
f 12/2/13 21/3/23 20/2/23
f 21/3/24 19/2/24 20/2/24
f 19/2/24 21/3/24 18/3/24
f 20/2/25 17/1/25 16/1/25
f 17/1/25 20/2/25 19/2/25
f 22/5/26 9/4/27 6/4/26
f 9/4/27 22/5/26 23/5/28
f 8/4/31 24/5/30 7/4/29
f 24/5/30 8/4/31 25/5/32
f 23/5/28 11/4/33 9/4/27
f 11/4/33 23/5/28 26/5/34
f 24/5/30 6/4/26 7/4/29
f 6/4/26 24/5/30 22/5/26
f 29/6/35 28/6/35 27/6/35
f 28/6/35 29/6/35 30/6/35
f 30/6/35 29/6/35 31/6/35
f 30/6/35 31/6/35 32/6/35
f 30/6/35 32/6/35 33/6/35
f 18/4/36 25/5/32 8/4/31
f 25/5/32 18/4/36 34/5/36
f 24/5/39 33/6/38 32/6/37
f 33/6/38 24/5/39 25/5/40
f 24/5/39 31/6/41 22/5/41
f 31/6/41 24/5/39 32/6/37
f 23/5/44 27/6/43 26/5/42
f 27/6/43 23/5/44 29/6/45
f 22/5/41 29/6/45 23/5/44
f 29/6/45 22/5/41 31/6/41
f 37/6/35 36/6/35 35/6/35
f 36/6/35 37/6/35 38/6/35
f 26/5/34 21/4/46 11/4/33
f 21/4/46 26/5/34 39/5/46
f 25/5/40 30/6/47 33/6/38
f 30/6/47 25/5/40 38/6/47
f 34/5/47 38/6/47 25/5/40
f 38/6/47 34/5/47 36/6/47
f 40/6/47 30/6/47 38/6/47
f 30/6/47 40/6/47 41/6/47
f 42/6/48 27/6/43 28/6/48
f 27/6/43 42/6/48 26/5/42
f 35/6/48 26/5/42 42/6/48
f 26/5/42 35/6/48 39/5/48
f 35/6/48 42/6/48 43/6/48
f 35/6/48 43/6/48 37/6/48
f 41/7/49 44/8/49 30/7/49
f 44/8/49 41/7/49 45/8/49
f 46/8/50 42/7/50 28/7/50
f 42/7/50 46/8/50 47/8/50
f 28/7/52 44/8/51 46/8/51
f 44/8/51 28/7/52 30/7/52
f 47/8/53 41/9/53 42/9/53
f 41/9/53 47/8/53 45/8/53
f 46/8/51 45/8/35 47/8/35
f 45/8/35 46/8/51 44/8/51
f 38/10/49 48/11/49 40/10/49
f 48/11/49 38/10/49 49/11/49
f 52/12/35 51/12/54 50/12/54
f 51/12/54 52/12/35 53/12/35
f 54/11/53 38/9/53 37/9/53
f 38/9/53 54/11/53 49/11/53
f 48/11/54 54/11/35 55/11/54
f 54/11/35 48/11/54 49/11/35
f 40/10/55 50/12/54 51/12/54
f 50/12/54 40/10/55 43/10/55
f 43/10/55 40/10/55 48/11/54
f 43/10/55 48/11/54 55/11/54
f 55/11/50 37/10/50 43/10/50
f 37/10/50 55/11/50 54/11/50
f 53/12/56 57/13/56 56/13/56
f 57/13/56 53/12/56 52/12/56
f 42/9/53 59/14/53 58/14/53
f 59/14/53 42/9/53 41/9/53
f 43/9/49 60/15/49 37/9/49
f 60/15/49 43/9/49 50/15/49
f 43/9/49 52/15/49 50/15/49
f 42/9/49 52/15/49 43/9/49
f 42/9/49 57/14/49 52/15/49
f 57/14/49 42/9/49 58/14/49
f 56/14/50 59/14/50 53/15/50
f 41/9/50 53/15/50 59/14/50
f 53/15/50 41/9/50 40/9/50
f 53/15/50 40/9/50 51/15/50
f 40/9/50 61/15/50 51/15/50
f 61/15/50 40/9/50 38/9/50
f 37/9/53 61/15/53 60/15/53
f 61/15/53 37/9/53 38/9/53
f 59/14/35 57/14/35 58/14/35
f 57/14/35 59/14/35 56/14/35
f 39/17/53 18/16/53 21/16/53
f 18/16/53 39/17/53 34/17/53
f 34/17/53 39/17/53 35/18/53
f 34/17/53 35/18/53 36/18/53
f 64/19/57 63/20/58 62/19/57
f 63/20/58 64/19/57 65/20/58
f 64/19/59 66/20/59 65/20/59
f 66/20/59 64/19/59 67/19/59
f 67/19/59 64/19/59 68/21/59
f 67/19/59 68/21/59 69/19/59
f 69/19/59 68/21/59 70/19/59
f 71/20/59 69/19/59 70/19/59
f 69/19/59 71/20/59 72/20/59
f 70/19/59 68/21/59 73/21/59
f 73/21/59 68/21/59 74/22/59
f 73/21/59 74/22/59 75/22/59
f 66/20/60 77/19/60 76/20/60
f 77/19/60 66/20/60 67/19/60
f 69/19/61 77/19/61 67/19/61
f 77/19/61 69/19/61 78/19/61
f 80/22/63 74/22/62 79/22/62
f 74/22/62 80/22/63 75/22/63
f 69/19/58 81/20/58 78/19/58
f 81/20/58 69/19/58 72/20/58
f 71/20/60 83/19/64 82/20/60
f 83/19/64 71/20/60 70/19/64
f 83/19/65 81/20/65 82/20/65
f 81/20/65 83/19/65 78/19/65
f 78/19/65 83/19/65 84/21/65
f 78/19/65 84/21/65 77/19/65
f 77/19/65 84/21/65 62/19/65
f 63/20/65 77/19/65 62/19/65
f 77/19/65 63/20/65 76/20/65
f 62/19/65 84/21/65 85/21/65
f 85/21/65 84/21/65 80/22/65
f 85/21/65 80/22/65 79/22/65
f 68/21/66 62/19/57 85/21/66
f 62/19/57 68/21/66 64/19/57
f 79/22/62 68/21/66 85/21/66
f 68/21/66 79/22/62 74/22/62
f 84/21/67 75/22/63 80/22/63
f 75/22/63 84/21/67 73/21/67
f 70/19/64 84/21/67 83/19/64
f 84/21/67 70/19/64 73/21/67
f 88/20/68 87/22/68 86/20/68
f 87/22/68 88/20/68 89/22/68
f 87/22/69 91/22/70 90/22/69
f 91/22/70 87/22/69 89/22/70
f 90/22/71 93/20/71 92/20/71
f 93/20/71 90/22/71 91/22/71
f 89/22/70 93/20/72 91/22/70
f 93/20/72 89/22/70 88/20/72
f 86/20/73 90/22/69 92/20/73
f 90/22/69 86/20/73 87/22/69
f 96/20/68 95/22/68 94/20/68
f 95/22/68 96/20/68 97/22/68
f 95/22/69 99/22/70 98/22/69
f 99/22/70 95/22/69 97/22/70
f 98/22/71 101/20/71 100/20/71
f 101/20/71 98/22/71 99/22/71
f 97/22/70 101/20/72 99/22/70
f 101/20/72 97/22/70 96/20/72
f 94/20/73 98/22/69 100/20/73
f 98/22/69 94/20/73 95/22/69

g boat-speed-h




usemtl colormap

f 3/1/3 2/2/2 1/1/1
f 2/2/2 3/1/3 4/2/4
f 2/2/6 6/3/5 5/2/5
f 6/3/5 2/2/6 7/3/7
f 2/2/6 8/3/8 7/3/7
f 8/3/8 2/2/6 4/2/9
f 10/2/11 6/3/5 9/3/10
f 6/3/5 10/2/11 5/2/5
f 11/3/12 10/2/11 9/3/10
f 10/2/11 11/3/12 12/2/13
f 13/1/14 2/2/2 5/2/14
f 2/2/2 13/1/14 1/1/1
f 14/1/17 10/2/16 12/2/15
f 10/2/16 14/1/17 15/1/18
f 15/1/18 5/2/14 10/2/16
f 5/2/14 15/1/18 13/1/14
f 16/1/19 15/1/19 14/1/19
f 15/1/19 16/1/19 17/1/19
f 15/1/19 17/1/19 13/1/19
f 13/1/19 17/1/19 1/1/19
f 1/1/19 17/1/19 3/1/19
f 4/2/9 18/3/20 8/3/8
f 18/3/20 4/2/9 19/2/20
f 16/1/21 12/2/15 20/2/21
f 12/2/15 16/1/21 14/1/17
f 17/1/22 4/2/4 3/1/3
f 4/2/4 17/1/22 19/2/22
f 21/3/23 12/2/13 11/3/12
f 12/2/13 21/3/23 20/2/23
f 21/3/24 19/2/24 20/2/24
f 19/2/24 21/3/24 18/3/24
f 20/2/25 17/1/25 16/1/25
f 17/1/25 20/2/25 19/2/25
f 22/5/26 9/4/27 6/4/26
f 9/4/27 22/5/26 23/5/28
f 8/4/31 24/5/30 7/4/29
f 24/5/30 8/4/31 25/5/32
f 23/5/28 11/4/33 9/4/27
f 11/4/33 23/5/28 26/5/34
f 24/5/30 6/4/26 7/4/29
f 6/4/26 24/5/30 22/5/26
f 29/6/35 28/6/35 27/6/35
f 28/6/35 29/6/35 30/6/35
f 30/6/35 29/6/35 31/6/35
f 30/6/35 31/6/35 32/6/35
f 30/6/35 32/6/35 33/6/35
f 18/4/36 25/5/32 8/4/31
f 25/5/32 18/4/36 34/5/36
f 24/5/39 33/6/38 32/6/37
f 33/6/38 24/5/39 25/5/40
f 24/5/39 31/6/41 22/5/41
f 31/6/41 24/5/39 32/6/37
f 23/5/44 27/6/43 26/5/42
f 27/6/43 23/5/44 29/6/45
f 22/5/41 29/6/45 23/5/44
f 29/6/45 22/5/41 31/6/41
f 37/6/35 36/6/35 35/6/35
f 36/6/35 37/6/35 38/6/35
f 26/5/34 21/4/46 11/4/33
f 21/4/46 26/5/34 39/5/46
f 25/5/40 30/6/47 33/6/38
f 30/6/47 25/5/40 38/6/47
f 34/5/47 38/6/47 25/5/40
f 38/6/47 34/5/47 36/6/47
f 40/6/47 30/6/47 38/6/47
f 30/6/47 40/6/47 41/6/47
f 42/6/48 27/6/43 28/6/48
f 27/6/43 42/6/48 26/5/42
f 35/6/48 26/5/42 42/6/48
f 26/5/42 35/6/48 39/5/48
f 35/6/48 42/6/48 43/6/48
f 35/6/48 43/6/48 37/6/48
f 41/7/49 44/8/49 30/7/49
f 44/8/49 41/7/49 45/8/49
f 46/8/50 42/7/50 28/7/50
f 42/7/50 46/8/50 47/8/50
f 28/7/52 44/8/51 46/8/51
f 44/8/51 28/7/52 30/7/52
f 47/8/53 41/9/53 42/9/53
f 41/9/53 47/8/53 45/8/53
f 46/8/51 45/8/35 47/8/35
f 45/8/35 46/8/51 44/8/51
f 38/10/49 48/11/49 40/10/49
f 48/11/49 38/10/49 49/11/49
f 52/12/35 51/12/54 50/12/54
f 51/12/54 52/12/35 53/12/35
f 54/11/53 38/9/53 37/9/53
f 38/9/53 54/11/53 49/11/53
f 48/11/54 54/11/35 55/11/54
f 54/11/35 48/11/54 49/11/35
f 40/10/55 50/12/54 51/12/54
f 50/12/54 40/10/55 43/10/55
f 43/10/55 40/10/55 48/11/54
f 43/10/55 48/11/54 55/11/54
f 55/11/50 37/10/50 43/10/50
f 37/10/50 55/11/50 54/11/50
f 53/12/56 57/13/56 56/13/56
f 57/13/56 53/12/56 52/12/56
f 42/9/53 59/14/53 58/14/53
f 59/14/53 42/9/53 41/9/53
f 43/9/49 60/15/49 37/9/49
f 60/15/49 43/9/49 50/15/49
f 43/9/49 52/15/49 50/15/49
f 42/9/49 52/15/49 43/9/49
f 42/9/49 57/14/49 52/15/49
f 57/14/49 42/9/49 58/14/49
f 56/14/50 59/14/50 53/15/50
f 41/9/50 53/15/50 59/14/50
f 53/15/50 41/9/50 40/9/50
f 53/15/50 40/9/50 51/15/50
f 40/9/50 61/15/50 51/15/50
f 61/15/50 40/9/50 38/9/50
f 37/9/53 61/15/53 60/15/53
f 61/15/53 37/9/53 38/9/53
f 59/14/35 57/14/35 58/14/35
f 57/14/35 59/14/35 56/14/35
f 39/17/53 18/16/53 21/16/53
f 18/16/53 39/17/53 34/17/53
f 34/17/53 39/17/53 35/18/53
f 34/17/53 35/18/53 36/18/53
f 64/19/57 63/20/58 62/19/57
f 63/20/58 64/19/57 65/20/58
f 64/19/59 66/20/59 65/20/59
f 66/20/59 64/19/59 67/19/59
f 67/19/59 64/19/59 68/21/59
f 67/19/59 68/21/59 69/19/59
f 69/19/59 68/21/59 70/19/59
f 71/20/59 69/19/59 70/19/59
f 69/19/59 71/20/59 72/20/59
f 70/19/59 68/21/59 73/21/59
f 73/21/59 68/21/59 74/22/59
f 73/21/59 74/22/59 75/22/59
f 66/20/60 77/19/60 76/20/60
f 77/19/60 66/20/60 67/19/60
f 69/19/61 77/19/61 67/19/61
f 77/19/61 69/19/61 78/19/61
f 80/22/63 74/22/62 79/22/62
f 74/22/62 80/22/63 75/22/63
f 69/19/58 81/20/58 78/19/58
f 81/20/58 69/19/58 72/20/58
f 71/20/60 83/19/64 82/20/60
f 83/19/64 71/20/60 70/19/64
f 83/19/65 81/20/65 82/20/65
f 81/20/65 83/19/65 78/19/65
f 78/19/65 83/19/65 84/21/65
f 78/19/65 84/21/65 77/19/65
f 77/19/65 84/21/65 62/19/65
f 63/20/65 77/19/65 62/19/65
f 77/19/65 63/20/65 76/20/65
f 62/19/65 84/21/65 85/21/65
f 85/21/65 84/21/65 80/22/65
f 85/21/65 80/22/65 79/22/65
f 68/21/66 62/19/57 85/21/66
f 62/19/57 68/21/66 64/19/57
f 79/22/62 68/21/66 85/21/66
f 68/21/66 79/22/62 74/22/62
f 84/21/67 75/22/63 80/22/63
f 75/22/63 84/21/67 73/21/67
f 70/19/64 84/21/67 83/19/64
f 84/21/67 70/19/64 73/21/67
f 88/20/68 87/22/68 86/20/68
f 87/22/68 88/20/68 89/22/68
f 87/22/69 91/22/70 90/22/69
f 91/22/70 87/22/69 89/22/70
f 90/22/71 93/20/71 92/20/71
f 93/20/71 90/22/71 91/22/71
f 89/22/70 93/20/72 91/22/70
f 93/20/72 89/22/70 88/20/72
f 86/20/73 90/22/69 92/20/73
f 90/22/69 86/20/73 87/22/69
f 96/20/68 95/22/68 94/20/68
f 95/22/68 96/20/68 97/22/68
f 95/22/69 99/22/70 98/22/69
f 99/22/70 95/22/69 97/22/70
f 98/22/71 101/20/71 100/20/71
f 101/20/71 98/22/71 99/22/71
f 97/22/70 101/20/72 99/22/70
f 101/20/72 97/22/70 96/20/72
f 94/20/73 98/22/69 100/20/73
f 98/22/69 94/20/73 95/22/69

